<?xml version="1.0" encoding="utf-8"?>
<!-- Generator: Adobe Illustrator 22.0.1, SVG Export Plug-In . SVG Version: 6.00 Build 0)  -->
<svg version="1.1" id="Layer_1" xmlns="http://www.w3.org/2000/svg" xmlns:xlink="http://www.w3.org/1999/xlink" x="0px" y="0px"
	 viewBox="0 0 512 512" style="enable-background:new 0 0 512 512;" xml:space="preserve">
<style type="text/css">
	.st0{fill:#F19611;}
</style>
<g>
	<g>
		<path class="st0" d="M500.9,345h-48.7c36-23.9,59.8-64.9,59.8-111.3c0-73.6-59.9-133.6-133.6-133.6V66.8c0-6.1-5-11.1-11.1-11.1
			h-66.8c-6.1,0-11.1,5-11.1,11.1v33.4H189.2h-44.5h-11.1C59.9,100.2,0,160.1,0,233.7c0,46.4,23.8,87.4,59.8,111.3H11.1
			C5,345,0,350,0,356.2v44.5c0,6.1,5,11.1,11.1,11.1h11.1c0,24.5,20,44.5,44.5,44.5c24.5,0,44.5-20,44.5-44.5h33.4
			c6.1,0,11.1-5,11.1-11.1s-5-11.1-11.1-11.1h-39.4c-0.1-0.2-0.2-0.3-0.3-0.5c-0.2-0.3-0.4-0.7-0.6-1c-0.5-0.8-1-1.5-1.5-2.2
			c-0.2-0.2-0.3-0.4-0.5-0.7c-0.3-0.4-0.6-0.8-1-1.2c-0.2-0.2-0.4-0.5-0.6-0.7c-0.3-0.4-0.7-0.8-1-1.2c-0.2-0.3-0.5-0.5-0.7-0.7
			c-0.5-0.6-1.1-1.1-1.6-1.6c-0.3-0.3-0.7-0.6-1-0.9c-0.3-0.3-0.6-0.5-0.9-0.8c-0.4-0.3-0.8-0.7-1.2-1c-0.2-0.2-0.5-0.4-0.7-0.6
			c-0.7-0.5-1.4-1-2.1-1.5c0,0,0,0,0,0c-0.7-0.5-1.5-1-2.2-1.4c-0.1-0.1-0.3-0.1-0.4-0.2c-0.7-0.4-1.5-0.8-2.2-1.2
			c-0.1,0-0.1-0.1-0.2-0.1c-1.7-0.8-3.4-1.6-5.2-2.2c-0.1,0-0.1,0-0.2-0.1c-0.9-0.3-1.7-0.6-2.6-0.8c0,0-0.1,0-0.1,0
			c-1.8-0.5-3.6-0.9-5.5-1.1c-0.2,0-0.4,0-0.6-0.1c-0.7-0.1-1.4-0.2-2.1-0.2c-0.2,0-0.5,0-0.7-0.1c-0.9-0.1-1.8-0.1-2.7-0.1
			c-0.9,0-1.8,0-2.7,0.1c-0.2,0-0.5,0-0.7,0.1c-0.7,0.1-1.4,0.1-2.1,0.2c-0.2,0-0.4,0-0.6,0.1c-1.9,0.3-3.7,0.6-5.5,1.1
			c0,0-0.1,0-0.1,0c-0.9,0.2-1.8,0.5-2.6,0.8c-0.1,0-0.1,0-0.2,0.1c-1.8,0.6-3.5,1.4-5.2,2.2c-0.1,0-0.1,0.1-0.2,0.1
			c-0.8,0.4-1.5,0.8-2.2,1.2c-0.1,0.1-0.3,0.1-0.4,0.2c-0.8,0.4-1.5,0.9-2.2,1.4c0,0,0,0,0,0c-0.7,0.5-1.4,1-2.1,1.5
			c-0.3,0.2-0.5,0.4-0.7,0.6c-0.4,0.3-0.8,0.7-1.2,1c-0.3,0.3-0.6,0.5-0.9,0.8c-0.3,0.3-0.7,0.6-1,0.9c-0.6,0.5-1.1,1.1-1.6,1.6
			c-0.2,0.2-0.5,0.5-0.7,0.7c-0.3,0.4-0.7,0.8-1,1.2c-0.2,0.2-0.4,0.5-0.6,0.7c-0.3,0.4-0.7,0.8-1,1.2c-0.2,0.2-0.3,0.4-0.5,0.7
			c-0.5,0.7-1,1.5-1.5,2.2c-0.2,0.3-0.4,0.7-0.6,1c-0.1,0.2-0.2,0.3-0.3,0.5h-6v-22.3h44.5h66.8h11.1h44.5h189.2h66.8l0,0h44.5v22.3
			h-6c-0.1-0.2-0.2-0.3-0.3-0.5c-0.2-0.3-0.4-0.7-0.6-1c-0.5-0.8-1-1.5-1.5-2.2c-0.2-0.2-0.3-0.4-0.5-0.7c-0.3-0.4-0.6-0.8-1-1.2
			c-0.2-0.2-0.4-0.5-0.6-0.7c-0.3-0.4-0.7-0.8-1-1.2c-0.2-0.3-0.5-0.5-0.7-0.7c-0.5-0.6-1.1-1.1-1.6-1.6c-0.3-0.3-0.7-0.6-1-0.9
			c-0.3-0.3-0.6-0.5-0.9-0.8c-0.4-0.3-0.8-0.7-1.2-1c-0.2-0.2-0.5-0.4-0.7-0.6c-0.7-0.5-1.4-1-2.1-1.5c0,0,0,0,0,0
			c-0.7-0.5-1.5-1-2.2-1.4c-0.1-0.1-0.3-0.1-0.4-0.2c-0.7-0.4-1.5-0.8-2.2-1.2c-0.1,0-0.1-0.1-0.2-0.1c-1.7-0.8-3.4-1.6-5.2-2.2
			c-0.1,0-0.1,0-0.2-0.1c-0.9-0.3-1.7-0.6-2.6-0.8c0,0-0.1,0-0.1,0c-1.8-0.5-3.6-0.9-5.5-1.1c-0.2,0-0.4,0-0.6-0.1
			c-0.7-0.1-1.4-0.2-2.1-0.2c-0.2,0-0.5,0-0.7-0.1c-0.9-0.1-1.8-0.1-2.7-0.1s-1.8,0-2.7,0.1c-0.2,0-0.5,0-0.7,0.1
			c-0.7,0.1-1.4,0.1-2.1,0.2c-0.2,0-0.4,0-0.6,0.1c-1.9,0.3-3.7,0.6-5.5,1.1c0,0-0.1,0-0.1,0c-0.9,0.2-1.8,0.5-2.6,0.8
			c-0.1,0-0.1,0-0.2,0.1c-1.8,0.6-3.5,1.4-5.2,2.2c-0.1,0-0.1,0.1-0.2,0.1c-0.8,0.4-1.5,0.8-2.2,1.2c-0.1,0.1-0.3,0.1-0.4,0.2
			c-0.8,0.4-1.5,0.9-2.2,1.4c0,0,0,0,0,0c-0.7,0.5-1.4,1-2.1,1.5c-0.3,0.2-0.5,0.4-0.7,0.6c-0.4,0.3-0.8,0.7-1.2,1
			c-0.3,0.3-0.6,0.5-0.9,0.8c-0.3,0.3-0.7,0.6-1,0.9c-0.6,0.5-1.1,1.1-1.6,1.6c-0.2,0.2-0.5,0.5-0.7,0.7c-0.3,0.4-0.7,0.8-1,1.2
			c-0.2,0.2-0.4,0.5-0.6,0.7c-0.3,0.4-0.7,0.8-1,1.2c-0.2,0.2-0.3,0.4-0.5,0.7c-0.5,0.7-1,1.5-1.5,2.2c-0.2,0.3-0.4,0.7-0.6,1
			c-0.1,0.2-0.2,0.3-0.3,0.5H211.5c-6.1,0-11.1,5-11.1,11.1s5,11.1,11.1,11.1h189.2c0,24.5,20,44.5,44.5,44.5
			c24.5,0,44.5-20,44.5-44.5h11.1c6.1,0,11.1-5,11.1-11.1v-44.5C512,350,507,345,500.9,345z M46.1,403.5c0.1-0.2,0.1-0.3,0.2-0.5
			c0.5-1.3,1.2-2.4,1.9-3.6c0.1-0.1,0.1-0.2,0.2-0.2c0.3-0.5,0.7-0.9,1-1.4c0.1-0.1,0.2-0.2,0.2-0.3c0.4-0.4,0.8-0.9,1.2-1.3
			c0.1-0.1,0.1-0.1,0.2-0.2c0.9-0.9,2-1.8,3.1-2.5c0.2-0.1,0.4-0.2,0.5-0.4c0.4-0.2,0.7-0.5,1.1-0.7c0.2-0.1,0.5-0.3,0.7-0.4
			c0.4-0.2,0.7-0.4,1.1-0.5c0.2-0.1,0.5-0.2,0.7-0.3c0.6-0.2,1.1-0.4,1.7-0.6c0.2-0.1,0.5-0.1,0.7-0.2c0.4-0.1,0.8-0.2,1.2-0.3
			c0.3-0.1,0.5-0.1,0.8-0.2c0.4-0.1,0.9-0.1,1.3-0.2c0.2,0,0.5-0.1,0.7-0.1c0.7-0.1,1.4-0.1,2-0.1c0.7,0,1.4,0,2,0.1
			c0.2,0,0.5,0.1,0.7,0.1c0.4,0.1,0.9,0.1,1.3,0.2c0.3,0,0.5,0.1,0.8,0.2c0.4,0.1,0.8,0.2,1.2,0.3c0.2,0.1,0.5,0.1,0.7,0.2
			c0.6,0.2,1.2,0.4,1.7,0.6c0.2,0.1,0.5,0.2,0.7,0.3c0.4,0.2,0.7,0.3,1.1,0.5c0.2,0.1,0.5,0.2,0.7,0.4c0.4,0.2,0.7,0.4,1.1,0.7
			c0.2,0.1,0.4,0.2,0.5,0.4c1.1,0.8,2.1,1.6,3.1,2.5c0.1,0.1,0.1,0.1,0.2,0.2c0.4,0.4,0.8,0.8,1.2,1.3c0.1,0.1,0.2,0.2,0.2,0.3
			c0.4,0.5,0.7,0.9,1,1.4c0.1,0.1,0.1,0.2,0.2,0.2c0.8,1.1,1.4,2.3,1.9,3.6c0.1,0.2,0.1,0.3,0.2,0.5c1,2.6,1.6,5.4,1.6,8.3
			c0,12.3-10,22.3-22.3,22.3s-22.3-10-22.3-22.3C44.5,408.9,45.1,406.1,46.1,403.5z M133.6,345c-61.4,0-111.3-49.9-111.3-111.3
			s49.9-111.3,111.3-111.3V345z M178.1,345h-22.3v-33.4h22.3V345z M178.1,289.4h-22.3v-22.3h22.3V289.4z M178.1,244.9h-22.3v-22.3
			h22.3V244.9z M178.1,200.3h-22.3v-22.3h22.3V200.3z M178.1,155.8h-22.3v-33.4h22.3V155.8z M311.7,77.9h44.5v22.3h-44.5V77.9z
			 M378.4,345H200.3V122.4h100.2h66.8h11.1v61.2c0,6.1,5,11.1,11.1,11.1s11.1-5,11.1-11.1v-59c50.7,10.3,89,55.3,89,109.1
			C489.7,295.1,439.8,345,378.4,345z M445.2,434.1c-12.3,0-22.3-10-22.3-22.3c0-2.9,0.6-5.7,1.6-8.3c0.1-0.2,0.1-0.3,0.2-0.5
			c0.5-1.3,1.2-2.4,1.9-3.6c0.1-0.1,0.1-0.2,0.2-0.2c0.3-0.5,0.7-0.9,1-1.4c0.1-0.1,0.2-0.2,0.2-0.3c0.4-0.4,0.8-0.9,1.2-1.3
			c0.1-0.1,0.1-0.1,0.2-0.2c0.9-0.9,2-1.8,3.1-2.5c0.2-0.1,0.4-0.2,0.5-0.4c0.4-0.2,0.7-0.5,1.1-0.7c0.2-0.1,0.5-0.3,0.7-0.4
			c0.4-0.2,0.7-0.4,1.1-0.5c0.2-0.1,0.5-0.2,0.7-0.3c0.6-0.2,1.1-0.4,1.7-0.6c0.2-0.1,0.5-0.1,0.7-0.2c0.4-0.1,0.8-0.2,1.2-0.3
			c0.3-0.1,0.5-0.1,0.8-0.2c0.4-0.1,0.9-0.1,1.3-0.2c0.2,0,0.5-0.1,0.7-0.1c0.7-0.1,1.4-0.1,2-0.1s1.4,0,2,0.1
			c0.2,0,0.5,0.1,0.7,0.1c0.4,0.1,0.9,0.1,1.3,0.2c0.3,0,0.5,0.1,0.8,0.2c0.4,0.1,0.8,0.2,1.2,0.3c0.2,0.1,0.5,0.1,0.7,0.2
			c0.6,0.2,1.2,0.4,1.7,0.6c0.2,0.1,0.5,0.2,0.7,0.3c0.4,0.2,0.7,0.3,1.1,0.5c0.2,0.1,0.5,0.2,0.7,0.4c0.4,0.2,0.7,0.4,1.1,0.7
			c0.2,0.1,0.4,0.2,0.5,0.4c1.1,0.8,2.1,1.6,3.1,2.5c0.1,0.1,0.1,0.1,0.2,0.2c0.4,0.4,0.8,0.8,1.2,1.3c0.1,0.1,0.2,0.2,0.2,0.3
			c0.4,0.5,0.7,0.9,1,1.4c0.1,0.1,0.1,0.2,0.2,0.2c0.8,1.1,1.4,2.3,1.9,3.6c0.1,0.2,0.1,0.3,0.2,0.5c1,2.6,1.6,5.4,1.6,8.3
			C467.5,424.1,457.5,434.1,445.2,434.1z"/>
	</g>
</g>
<g>
	<g>
		<path class="st0" d="M186,392.8c-2.1-2.1-4.9-3.3-7.9-3.3s-5.8,1.2-7.9,3.3c-2.1,2.1-3.3,4.9-3.3,7.9s1.2,5.8,3.3,7.9
			c2.1,2.1,4.9,3.3,7.9,3.3s5.8-1.2,7.9-3.3s3.3-4.9,3.3-7.9C189.2,397.8,188,394.9,186,392.8z"/>
	</g>
</g>
<g>
	<g>
		<path class="st0" d="M397.4,209.2c-2.1-2.1-4.9-3.3-7.9-3.3s-5.8,1.2-7.9,3.3c-2.1,2.1-3.3,4.9-3.3,7.9s1.2,5.8,3.3,7.9
			c2.1,2.1,4.9,3.3,7.9,3.3s5.8-1.2,7.9-3.3c2.1-2.1,3.3-4.9,3.3-7.9S399.5,211.2,397.4,209.2z"/>
	</g>
</g>
</svg>
