<svg
  width="512"
  height="512"
  viewBox="0 0 512 512"
  fill="#ffffff"
  xmlns="http://www.w3.org/2000/svg"
>
  <path
    d="m500.9 345 h-48.7 c36-23.9 59.8-64.9 59.8-111.3 0-73.6-59.9-133.6-133.6-133.6 v-33.3 c0-6.1-5-11.1-11.1-11.1 h-66.8
      c-6.1 0-11.1 5-11.1 11.1 v33.4 h-155.8 c-73.7 0-133.6 59.9-133.6 133.5 0 46.4 23.8 87.4 59.8 111.3 h-48.7
      c-6.1 0-11.1 5-11.1 11.2 v44.5 c0 6.1 5 11.1 11.1 11.1 h11.1 c0 24.5 20 44.5 44.5 44.5 s44.5-20 44.5-44.5 h33.4
      c6.1 0 11.1-5 11.1-11.1 s-5-11.1-11.1-11.1 h-39.4
      c-0.1-0.2-0.2-0.3-0.3-0.5-0.2-0.3-0.4-0.7-0.6-1-0.5-0.8-1-1.5-1.5-2.2-0.2-0.2-0.3-0.4-0.5-0.7-0.3-0.4-0.6-0.8-1-1.2-0.2-0.2-0.4-0.5-0.6-0.7-0.3-0.4-0.7-0.8-1-1.2-0.2-0.3-0.5-0.5-0.7-0.7-0.5-0.6-1.1-1.1-1.6-1.6-0.3-0.3-0.7-0.6-1-0.9
      s-0.6-0.5-0.9-0.8 c-0.4-0.3-0.8-0.7-1.2-1-0.2-0.2-0.5-0.4-0.7-0.6 l-2.1-1.5
      c-0.7-0.5-1.5-1-2.2-1.4-0.1-0.1-0.3-0.1-0.4-0.2-0.7-0.4-1.5-0.8-2.2-1.2-0.1 0-0.1-0.1-0.2-0.1-1.7-0.8-3.4-1.6-5.2-2.2-0.1 0-0.1 0-0.2-0.1-0.9-0.3-1.7-0.6-2.6-0.8
      h-0.1 c-1.8-0.5-3.6-0.9-5.5-1.1-0.2 0-0.4 0-0.6-0.1-0.7-0.1-1.4-0.2-2.1-0.2-0.2 0-0.5 0-0.7-0.1-0.9-0.1-1.8-0.1-2.7-0.1
      s-1.8 0-2.7 0.1 c-0.2 0-0.5 0-0.7 0.1-0.7 0.1-1.4 0.1-2.1 0.2-0.2 0-0.4 0-0.6 0.1-1.9 0.3-3.7 0.6-5.5 1.1 h-0.1
      c-0.9 0.2-1.8 0.5-2.6 0.8-0.1 0-0.1 0-0.2 0.1-1.8 0.6-3.5 1.4-5.2 2.2-0.1 0-0.1 0.1-0.2 0.1-0.8 0.4-1.5 0.8-2.2 1.2-0.1 0.1-0.3 0.1-0.4 0.2-0.8 0.4-1.5 0.9-2.2 1.4
      l-2.1 1.5 c-0.3 0.2-0.5 0.4-0.7 0.6-0.4 0.3-0.8 0.7-1.2 1-0.3 0.3-0.6 0.5-0.9 0.8 s-0.7 0.6-1 0.9
      c-0.6 0.5-1.1 1.1-1.6 1.6 l-0.7 0.7
      c-0.3 0.4-0.7 0.8-1 1.2-0.2 0.2-0.4 0.5-0.6 0.7-0.3 0.4-0.7 0.8-1 1.2-0.2 0.2-0.3 0.4-0.5 0.7-0.5 0.7-1 1.5-1.5 2.2-0.2 0.3-0.4 0.7-0.6 1-0.1 0.2-0.2 0.3-0.3 0.5
      h-6 v-22.3 h467.4 v22.3 h-6
      c-0.1-0.2-0.2-0.3-0.3-0.5-0.2-0.3-0.4-0.7-0.6-1-0.5-0.8-1-1.5-1.5-2.2-0.2-0.2-0.3-0.4-0.5-0.7-0.3-0.4-0.6-0.8-1-1.2-0.2-0.2-0.4-0.5-0.6-0.7-0.3-0.4-0.7-0.8-1-1.2-0.2-0.3-0.5-0.5-0.7-0.7-0.5-0.6-1.1-1.1-1.6-1.6-0.3-0.3-0.7-0.6-1-0.9
      s-0.6-0.5-0.9-0.8 c-0.4-0.3-0.8-0.7-1.2-1-0.2-0.2-0.5-0.4-0.7-0.6 l-2.1-1.5
      c-0.7-0.5-1.5-1-2.2-1.4-0.1-0.1-0.3-0.1-0.4-0.2-0.7-0.4-1.5-0.8-2.2-1.2-0.1 0-0.1-0.1-0.2-0.1-1.7-0.8-3.4-1.6-5.2-2.2-0.1 0-0.1 0-0.2-0.1-0.9-0.3-1.7-0.6-2.6-0.8
      h-0.1 c-1.8-0.5-3.6-0.9-5.5-1.1-0.2 0-0.4 0-0.6-0.1-0.7-0.1-1.4-0.2-2.1-0.2-0.2 0-0.5 0-0.7-0.1-0.9-0.1-1.8-0.1-2.7-0.1
      s-1.8 0-2.7 0.1 c-0.2 0-0.5 0-0.7 0.1-0.7 0.1-1.4 0.1-2.1 0.2-0.2 0-0.4 0-0.6 0.1-1.9 0.3-3.7 0.6-5.5 1.1 h-0.1
      c-0.9 0.2-1.8 0.5-2.6 0.8-0.1 0-0.1 0-0.2 0.1-1.8 0.6-3.5 1.4-5.2 2.2-0.1 0-0.1 0.1-0.2 0.1-0.8 0.4-1.5 0.8-2.2 1.2-0.1 0.1-0.3 0.1-0.4 0.2-0.8 0.4-1.5 0.9-2.2 1.4
      l-2.1 1.5 c-0.3 0.2-0.5 0.4-0.7 0.6-0.4 0.3-0.8 0.7-1.2 1-0.3 0.3-0.6 0.5-0.9 0.8 s-0.7 0.6-1 0.9
      c-0.6 0.5-1.1 1.1-1.6 1.6 l-0.7 0.7
      c-0.3 0.4-0.7 0.8-1 1.2-0.2 0.2-0.4 0.5-0.6 0.7-0.3 0.4-0.7 0.8-1 1.2-0.2 0.2-0.3 0.4-0.5 0.7-0.5 0.7-1 1.5-1.5 2.2-0.2 0.3-0.4 0.7-0.6 1-0.1 0.2-0.2 0.3-0.3 0.5
      h-195.5 c-6.1 0-11.1 5-11.1 11.1 s5 11.1 11.1 11.1 h189.2 c0 24.5 20 44.5 44.5 44.5 s44.5-20 44.5-44.5 h11.1
      c6.1 0 11.1-5 11.1-11.1 v-44.5 c0.1-6.2-4.9-11.2-11-11.2 z m-454.8 58.5
      c0.1-0.2 0.1-0.3 0.2-0.5 0.5-1.3 1.2-2.4 1.9-3.6 0.1-0.1 0.1-0.2 0.2-0.2 0.3-0.5 0.7-0.9 1-1.4 0.1-0.1 0.2-0.2 0.2-0.3 0.4-0.4 0.8-0.9 1.2-1.3
      l0.2-0.2
      c0.9-0.9 2-1.8 3.1-2.5 0.2-0.1 0.4-0.2 0.5-0.4 0.4-0.2 0.7-0.5 1.1-0.7 0.2-0.1 0.5-0.3 0.7-0.4 0.4-0.2 0.7-0.4 1.1-0.5 0.2-0.1 0.5-0.2 0.7-0.3 0.6-0.2 1.1-0.4 1.7-0.6 0.2-0.1 0.5-0.1 0.7-0.2
      l1.2-0.3
      c0.3-0.1 0.5-0.1 0.8-0.2 0.4-0.1 0.9-0.1 1.3-0.2 0.2 0 0.5-0.1 0.7-0.1 0.7-0.1 1.4-0.1 2-0.1 0.7 0 1.4 0 2 0.1 0.2 0 0.5 0.1 0.7 0.1 0.4 0.1 0.9 0.1 1.3 0.2 0.3 0 0.5 0.1 0.8 0.2
      l1.2 0.3
      c0.2 0.1 0.5 0.1 0.7 0.2 0.6 0.2 1.2 0.4 1.7 0.6 0.2 0.1 0.5 0.2 0.7 0.3 0.4 0.2 0.7 0.3 1.1 0.5 0.2 0.1 0.5 0.2 0.7 0.4 0.4 0.2 0.7 0.4 1.1 0.7 0.2 0.1 0.4 0.2 0.5 0.4 1.1 0.8 2.1 1.6 3.1 2.5
      l0.2 0.2
      c0.4 0.4 0.8 0.8 1.2 1.3 0.1 0.1 0.2 0.2 0.2 0.3 0.4 0.5 0.7 0.9 1 1.4 0.1 0.1 0.1 0.2 0.2 0.2 0.8 1.1 1.4 2.3 1.9 3.6 0.1 0.2 0.1 0.3 0.2 0.5 1 2.6 1.6 5.4 1.6 8.3 0 12.3-10 22.3-22.3 22.3
      s-22.3-10-22.3-22.3 c0.4-2.9 1-5.7 2-8.3 z m87.5-58.5 c-61.4 0-111.3-49.9-111.3-111.3 s49.9-111.3 111.3-111.3 v222.6 z
      m44.5 0 h-22.3 v-33.4 h22.3 v33.4 z m0-55.6 h-22.3 v-22.3 h22.3 v22.3 z m0-44.5 h-22.3 v-22.3 h22.3 v22.3 z m0-44.6
      h-22.3 v-22.3 h22.3 v22.3 z m0-44.5 h-22.3 v-33.4 h22.3 v33.4 z m133.6-77.9 h44.5 v22.3 h-44.5 v-22.3 z m66.7 267.1
      h-178.1 v-222.6 h178.1 v61.2 c0 6.1 5 11.1 11.1 11.1 s11.1-5 11.1-11.1 v-59
      c50.7 10.3 89 55.3 89 109.1 0.1 61.4-49.8 111.3-111.2 111.3 z m66.8 89.1
      c-12.3 0-22.3-10-22.3-22.3 0-2.9 0.6-5.7 1.6-8.3 0.1-0.2 0.1-0.3 0.2-0.5 0.5-1.3 1.2-2.4 1.9-3.6 0.1-0.1 0.1-0.2 0.2-0.2 0.3-0.5 0.7-0.9 1-1.4 0.1-0.1 0.2-0.2 0.2-0.3 0.4-0.4 0.8-0.9 1.2-1.3
      l0.2-0.2
      c0.9-0.9 2-1.8 3.1-2.5 0.2-0.1 0.4-0.2 0.5-0.4 0.4-0.2 0.7-0.5 1.1-0.7 0.2-0.1 0.5-0.3 0.7-0.4 0.4-0.2 0.7-0.4 1.1-0.5 0.2-0.1 0.5-0.2 0.7-0.3 0.6-0.2 1.1-0.4 1.7-0.6 0.2-0.1 0.5-0.1 0.7-0.2
      l1.2-0.3 c0.3-0.1 0.5-0.1 0.8-0.2 0.4-0.1 0.9-0.1 1.3-0.2 0.2 0 0.5-0.1 0.7-0.1 0.7-0.1 1.4-0.1 2-0.1 s1.4 0 2 0.1
      c0.2 0 0.5 0.1 0.7 0.1 0.4 0.1 0.9 0.1 1.3 0.2 0.3 0 0.5 0.1 0.8 0.2 l1.2 0.3
      c0.2 0.1 0.5 0.1 0.7 0.2 0.6 0.2 1.2 0.4 1.7 0.6 0.2 0.1 0.5 0.2 0.7 0.3 0.4 0.2 0.7 0.3 1.1 0.5 0.2 0.1 0.5 0.2 0.7 0.4 0.4 0.2 0.7 0.4 1.1 0.7 0.2 0.1 0.4 0.2 0.5 0.4 1.1 0.8 2.1 1.6 3.1 2.5
      l0.2 0.2
      c0.4 0.4 0.8 0.8 1.2 1.3 0.1 0.1 0.2 0.2 0.2 0.3 0.4 0.5 0.7 0.9 1 1.4 0.1 0.1 0.1 0.2 0.2 0.2 0.8 1.1 1.4 2.3 1.9 3.6 0.1 0.2 0.1 0.3 0.2 0.5 1 2.6 1.6 5.4 1.6 8.3 0.4 12.3-9.6 22.3-21.9 22.3
      z"
  />
  <path
    d="m186 392.8 c-2.1-2.1-4.9-3.3-7.9-3.3
      s-5.8 1.2-7.9 3.3-3.3 4.9-3.3 7.9 1.2 5.8 3.3 7.9 4.9 3.3 7.9 3.3 5.8-1.2 7.9-3.3 3.3-4.9 3.3-7.9
      c-0.1-2.9-1.3-5.8-3.3-7.9 z"
  />
  <path
    d="m397.4 209.2 c-2.1-2.1-4.9-3.3-7.9-3.3
      s-5.8 1.2-7.9 3.3-3.3 4.9-3.3 7.9 1.2 5.8 3.3 7.9 4.9 3.3 7.9 3.3 5.8-1.2 7.9-3.3 3.3-4.9 3.3-7.9-1.2-5.9-3.3-7.9 z"
  />
</svg>
