<svg
  width="511"
  height="511"
  viewBox="0 -2 512 511"
  fill="#ffffff"
  xmlns="http://www.w3.org/2000/svg"
>
  <path
    d="m6.7188 412.87-3.0234 1.793
      c-3.582 2.125-4.7617 6.75-2.6406 10.332 1.4102 2.375 3.918 3.6953 6.4922 3.6953 1.3086 0 2.6328-0.33984 3.8359-1.0547
      l3.0273-1.7969 c3.582-2.1211 4.7617-6.7461 2.6406-10.328-2.125-3.582-6.75-4.7617-10.332-2.6406 z"
  />
  <path
    d="m134.91 336.84-5.6094 3.3281
      c-3.5781 2.125-4.7617 6.7461-2.6367 10.328 1.4102 2.375 3.918 3.6953 6.4922 3.6953 1.3047 0 2.6328-0.33984 3.8359-1.0586
      l5.6094-3.3242 c3.582-2.125 4.7617-6.75 2.6367-10.328-2.1211-3.582-6.75-4.7617-10.328-2.6406 z"
  />
  <path
    d="m83.633 367.26-5.6055 3.3242
      c-3.582 2.125-4.7617 6.7461-2.6367 10.328 1.4062 2.375 3.9141 3.6953 6.4883 3.6953 1.3086 0 2.6328-0.33984 3.8398-1.0547
      l5.6055-3.3281 c3.582-2.125 4.7656-6.7461 2.6406-10.328 s-6.75-4.7617-10.332-2.6367 z"
  />
  <path
    d="m109.27 352.05-5.6094 3.3242
      c-3.582 2.125-4.7617 6.75-2.6367 10.328 1.4102 2.375 3.918 3.6953 6.4922 3.6953 1.3047 0 2.6289-0.33984 3.8359-1.0547
      l5.6094-3.3281 c3.5781-2.1211 4.7617-6.7461 2.6367-10.328-2.1211-3.5781-6.7461-4.7617-10.328-2.6367 z"
  />
  <path
    d="m32.359 397.67-5.6094 3.3242
      c-3.582 2.125-4.7617 6.75-2.6367 10.328 1.4102 2.375 3.918 3.6953 6.4922 3.6953 1.3047 0 2.6328-0.33984 3.8359-1.0547
      l5.6094-3.3281 c3.5781-2.1211 4.7617-6.7461 2.6367-10.328-2.1211-3.582-6.75-4.7656-10.328-2.6367 z"
  />
  <path
    d="m508.33 416.68-3.0156-1.8086 c-3.5742-2.1328-8.2031-0.97266-10.34 2.6016-2.1367 3.5742-0.97656 8.2031 2.5977 10.34
      l3.0195 1.8047
      c1.2109 0.72656 2.5469 1.0703 3.8633 1.0703 2.5625 0 5.0625-1.3086 6.4766-3.6719 2.1367-3.5703 0.97266-8.1992-2.6016-10.336
      z"
  />
  <path
    d="m485.01 402.73-5.6836-3.4023 c-3.5703-2.1367-8.2031-0.97266-10.34 2.5977-2.1367 3.5742-0.97266 8.2031 2.5977 10.34
      l5.6875 3.4023
      c1.2109 0.72656 2.543 1.0703 3.8633 1.0703 2.5625 0 5.0625-1.3086 6.4727-3.668 2.1406-3.5742 0.97656-8.2031-2.5977-10.34
      z"
  />
  <path
    d="m459.02 387.18-0.49219-0.29688 v-224.12 c0-2.9219-1.7734-5.668-4.4141-6.8984 l-190.83-110.18 v-5.4844
      c0-4.1641-3.375-7.5391-7.5391-7.5391 s-7.5391 3.375-7.5391 7.5391 v5.4219 l-191.62 110.54
      c-2.293 1.332-3.7734 3.8711-3.7734 6.5273 v222.85 l-0.42578 0.25391
      c-3.5781 2.1211-4.7617 6.7461-2.6367 10.328 1.4102 2.375 3.918 3.6953 6.4922 3.6953 1.3047 0 2.6289-0.33984 3.8359-1.0586
      l1.7734-1.0508 189.54 109.43 c2.3633 1.6133 5.5703 1.7266 8.0508 0.29688 l188.9-109.07 2.9375 1.7578
      c1.2109 0.72656 2.5469 1.0703 3.8633 1.0703 2.5664 0 5.0664-1.3086 6.4766-3.668 2.1367-3.5742 0.97266-8.2031-2.5977-10.34
      z m-391.13-3.4023 v-208.04 l64.766 37.395
      c1.1836 0.68359 2.4805 1.0117 3.7617 1.0117 2.6055 0 5.1367-1.3555 6.5352-3.7734 2.082-3.6055 0.84375-8.2148-2.7617-10.297
      l-64.75-37.387 180.25-103.97 180.13 104-93.953 54.242-78.582-45.371 v-2.7227 c0-4.1602-3.375-7.5391-7.5391-7.5391
      s-7.5391 3.375-7.5391 7.5391 v2.6445 l-82.891 47.812 c-2.332 1.3438-3.7695 3.8359-3.7695 6.5312 v96.273
      c-1.2266 0.039062-2.457 0.38281-3.5859 1.0508 l-3.0273 1.793
      c-3.5781 2.125-4.7617 6.75-2.6367 10.332 1.4102 2.375 3.918 3.6914 6.4922 3.6914 1.3047 0 2.6328-0.33984 3.8359-1.0547
      l3.0273-1.793 c0.98828-0.58594 1.7852-1.3672 2.3867-2.2578 l80.047 46.215 v107.72 z
      m187.78-16.715-71.785-41.445 71.777-41.441 47.984 27.703
      c3.6055 2.082 8.2148 0.84766 10.297-2.7578 2.082-3.6055 0.84375-8.2148-2.7578-10.297 l-51.754-29.883
      c-2.3359-1.3438-5.207-1.3438-7.5391 0 l-75.266 43.457 v-82.203 l71.461-41.219 v49.047
      c0 4.1641 3.375 7.5391 7.5391 7.5391 s7.5391-3.375 7.5391-7.5391 v-49.102 l71.547 41.305 v91.199 z
      m7.4961 13.082 79.191-45.723 c0.53516 0.65625 1.1875 1.2383 1.957 1.6992 l3.0156 1.8047
      c1.2148 0.72656 2.5469 1.0742 3.8672 1.0742 2.5625 0 5.0625-1.3086 6.4727-3.6719 2.1406-3.5703 0.97656-8.1992-2.5938-10.34
      l-3.0195-1.8047 c-0.72266-0.43359-1.4883-0.72266-2.2656-0.89062 v-92.508 l93.66-54.074 v208.07 l-180.29 104.09 z"
  />
  <path
    d="m433.04 371.64-5.6836-3.4023 c-3.5703-2.1367-8.2031-0.97266-10.34 2.5977-2.1367 3.5742-0.97656 8.2031 2.5977 10.34
      l5.6836 3.4023
      c1.2148 0.72266 2.5469 1.0703 3.8672 1.0703 2.5625 0 5.0625-1.3125 6.4727-3.6719 2.1406-3.5703 0.97656-8.1992-2.5977-10.336
      z"
  />
  <path
    d="m407.05 356.09-5.6836-3.3984 c-3.5703-2.1367-8.1992-0.97656-10.336 2.5977-2.1406 3.5703-0.97656 8.1992 2.5977 10.34
      l5.6836 3.3984
      c1.2109 0.72656 2.5469 1.0703 3.8633 1.0703 2.5625 0 5.0625-1.3086 6.4766-3.668 2.1367-3.5703 0.97266-8.1992-2.6016-10.34
      z"
  />
  <path
    d="m381.06 340.54-5.6836-3.3984 c-3.5703-2.1367-8.2031-0.97656-10.34 2.5977-2.1367 3.5703-0.97266 8.1992 2.5977 10.34
      l5.6836 3.3984
      c1.2148 0.72656 2.5469 1.0703 3.8633 1.0703 2.5664 0 5.0664-1.3086 6.4766-3.668 2.1367-3.5703 0.97266-8.1992-2.5977-10.34
      z"
  />
  <path
    d="m255.75 151.27 c4.1641 0 7.5391-3.375 7.5391-7.5391 v-7.0391 c0-4.1602-3.375-7.5391-7.5391-7.5391
      s-7.5391 3.375-7.5391 7.5391 v7.0391 c0 4.1602 3.375 7.5391 7.5391 7.5391 z"
  />
  <path
    d="m255.75 22.613 c4.1641 0 7.5391-3.375 7.5391-7.5391 v-7.0352 c0-4.1641-3.375-7.5391-7.5391-7.5391
      s-7.5391 3.375-7.5391 7.5391 v7.0352 c0 4.1641 3.375 7.5391 7.5391 7.5391 z"
  />
  <path
    d="m255.75 119.11 c4.1641 0 7.5391-3.375 7.5391-7.5391 v-7.0352 c0-4.1641-3.375-7.5391-7.5391-7.5391
      s-7.5391 3.375-7.5391 7.5391 v7.0352 c0 4.1641 3.375 7.5391 7.5391 7.5391 z"
  />
  <path
    d="m255.75 86.941 c4.1641 0 7.5391-3.375 7.5391-7.5391 v-7.0352 c0-4.1641-3.375-7.5391-7.5391-7.5391
      s-7.5391 3.375-7.5391 7.5391 v7.0352 c0 4.1641 3.375 7.5391 7.5391 7.5391 z"
  />
</svg>
