<svg
  width="1200"
  height="1200"
  viewBox="0 0 1200 1200"
  fill="#ffffff"
  xmlns="http://www.w3.org/2000/svg"
>
  <path
    d="m976.8 823.2 h-753.6 c-75.602 0-135.6-104.4-135.6-237.6 s60-237.6 135.6-237.6 h753.6 v36 l-753.6 0.003906
      c-54 0-99.602 92.398-99.602 201.6 0 109.2 45.602 201.6 99.602 201.6 h753.6 z"
  />
  <path
    d="m976.8 823.2 c-75.602 0-135.6-104.4-135.6-237.6 s60-237.6 135.6-237.6
      c75.602 0 135.6 104.4 135.6 237.6-0.003906 133.2-60.004 237.6-135.6 237.6 z m0-439.2
      c-54 0-99.602 92.398-99.602 201.6 0 109.2 45.602 201.6 99.602 201.6 s99.602-92.398 99.602-201.6
      c-0.003906-109.2-45.602-201.6-99.602-201.6 z"
  />
  <path
    d="m362.4 872.4h-104.4v-85.199h104.4zm-68.398-36h32.398v-13.199h-32.398z"
  />
  <path
    d="m910.8 872.4h-104.4v-85.199h104.4zm-68.402-36h32.398v-13.199h-32.398z"
  />
  <path
    d="m547.2 722.4 c-46.801 0-86.398-44.398-86.398-98.398 0-2.3984 0-54 30-87.602 26.398-30 37.199-78 37.199-97.199 h36
      c0 19.199 10.801 67.199 37.199 97.199 30 33.602 30 85.199 30 87.602 1.1992 54-37.199 98.398-84 98.398 z m0-208.8
      c-7.1992 16.801-16.801 32.398-28.801 45.602-20.398 22.801-21.602 63.602-21.602 63.602 0 34.801 22.801 62.398 50.398 62.398 27.602 0 50.398-27.602 50.398-62.398 0 0 0-40.801-21.602-63.602-11.992-12.004-21.594-28.805-28.793-45.602
      z"
  />
</svg>
