<svg
  width="800"
  height="800"
  viewBox="0 0 512 512"
  fill="#ffffff"
  xmlns="http://www.w3.org/2000/svg"
>
  <g
    transform="translate(64 64)"
  >
    <path
      d="m320 64 v256 h-256 v-256 h256 z m-148.25 64 h-24.932 l-47.334 128 h22.493 l8.9364-25.023 h56.662 l8.7446 25.023 h23.848
        l-48.418-128 z m88.344 0 h-22.402 v128 h22.402 v-128 z m-101 21.475 22.314 63.858 h-44.274 l21.96-63.858 z
        m182.24 106.52 h42.667 v42.667 h-42.667 v-42.667 z m-256 85.333 h42.667 v42.667 h-42.667 v-42.667 z m85.333 0 h42.667
        v42.667 h-42.667 v-42.667 z m-85.333-341.33 h42.667 v42.667 h-42.667 v-42.667 z m170.67 341.33 h42.667 v42.667 h-42.667
        v-42.667 z m-85.333-341.33 h42.667 v42.667 h-42.667 v-42.667 z m85.333 0 h42.667 v42.667 h-42.667 v-42.667 z
        m85.333 170.67 h42.667 v42.667 h-42.667 v-42.667 z m-341.33 85.333 h42.667 v42.667 h-42.667 v-42.667 z m341.33-170.67
        h42.667 v42.667 h-42.667 v-42.667 z m-341.33 85.333 h42.667 v42.667 h-42.667 v-42.667 z m0-85.333 h42.667 v42.667
        h-42.667 v-42.667 z"
    />
  </g>
</svg>
