<svg
  width="800"
  height="800"
  viewBox="0 0 512 512"
  fill="#ffffff"
  id="Layer_1"
  xmlns="http://www.w3.org/2000/svg"
  space="preserve"
  version="1.1"
>
  <style
    type="text/css"
  >
    .st0{fill:#FFFFFF;}
  </style>
  <path
    d="m430.8 90.6 h-171.3 v-16.2 c0-1.9-1.6-3.5-3.5-3.5 s-3.5 1.6-3.5 3.5 v16.2 h-171.3 v45.1 h8.2 l-0.2 212.8 h107.1
      l-17.4 92.6 h17.3 l27.6-92.6 h18.9 l4.7 61.5 h16.9 l4.7-61.5 h19 l27.6 92.6 h17.3 l-17.4-92.6 h107.1 v-212.8 h8.2 v-45.1
      z m-239.8 343.5 h-3.6 l16.1-85.6 h13 l-25.5 85.6 z m66.9-31 h-4 l-4.2-54.5 h12.3 l-4.1 54.5 z m66.6 31 h-3.6 l-25.5-85.6
      h13 l16.1 85.6 z m84.1-99.6 h-305.4 l0.2-198.8 h305.2 v198.8 z m-313.4-229.9 h321.6 v17.1 h-321.6 v-17.1 z"
    class="st0"
  />
  <path
    d="m376 164.9h12.6c1.9 0 3.5-1.6 3.5-3.5s-1.6-3.5-3.5-3.5h-12.6c-1.9 0-3.5 1.6-3.5 3.5s1.6 3.5 3.5 3.5z"
    class="st0"
  />
  <path
    d="m269.1 164.9h89c1.9 0 3.5-1.6 3.5-3.5s-1.6-3.5-3.5-3.5h-89c-1.9 0-3.5 1.6-3.5 3.5s1.6 3.5 3.5 3.5z"
    class="st0"
  />
  <path
    d="m269.1 177.2h119.5c1.9 0 3.5-1.6 3.5-3.5s-1.6-3.5-3.5-3.5h-119.5c-1.9 0-3.5 1.6-3.5 3.5s1.6 3.5 3.5 3.5z"
    class="st0"
  />
  <path
    d="m388.6 182.5h-69.4c-1.9 0-3.5 1.6-3.5 3.5s1.6 3.5 3.5 3.5h69.4c1.9 0 3.5-1.6 3.5-3.5s-1.6-3.5-3.5-3.5z"
    class="st0"
  />
  <path
    d="m269.1 189.5h36.4c1.9 0 3.5-1.6 3.5-3.5s-1.6-3.5-3.5-3.5h-36.4c-1.9 0-3.5 1.6-3.5 3.5s1.6 3.5 3.5 3.5z"
    class="st0"
  />
  <path
    d="m269.1 201.8h119.5c1.9 0 3.5-1.6 3.5-3.5s-1.6-3.5-3.5-3.5h-119.5c-1.9 0-3.5 1.6-3.5 3.5s1.6 3.5 3.5 3.5z"
    class="st0"
  />
  <path
    d="m388.6 207.1h-14.6c-1.9 0-3.5 1.6-3.5 3.5s1.6 3.5 3.5 3.5h14.6c1.9 0 3.5-1.6 3.5-3.5s-1.6-3.5-3.5-3.5z"
    class="st0"
  />
  <path
    d="m269.1 214.1h87.4c1.9 0 3.5-1.6 3.5-3.5s-1.6-3.5-3.5-3.5h-87.4c-1.9 0-3.5 1.6-3.5 3.5s1.6 3.5 3.5 3.5z"
    class="st0"
  />
  <path
    d="m269.1 226.3h119.5c1.9 0 3.5-1.6 3.5-3.5s-1.6-3.5-3.5-3.5h-119.5c-1.9 0-3.5 1.6-3.5 3.5s1.6 3.5 3.5 3.5z"
    class="st0"
  />
  <path
    d="m269.1 238.6h101.5c1.9 0 3.5-1.6 3.5-3.5s-1.6-3.5-3.5-3.5h-101.5c-1.9 0-3.5 1.6-3.5 3.5s1.6 3.5 3.5 3.5z"
    class="st0"
  />
  <path
    d="m392.1 253.7h-126.5v54.5h126.5v-54.5zm-7 47.5h-112.5v-40.5h112.5v40.5z"
    class="st0"
  />
  <path
    d="m179.1 290.2 c29.9 0 54.2-24.3 54.2-54.2 v-3.5 h-50.3 l5.5-50-3.5-0.5
      c-2-0.2-4-0.3-5.9-0.3-29.9 0-54.2 24.3-54.2 54.2-0.1 29.9 24.3 54.3 54.2 54.3 z m0-101.5 h1.7 l-5.6 50.7 h51
      c-1.8 24.4-22.2 43.7-47.1 43.7-26 0-47.2-21.2-47.2-47.2-0.1-26 21.1-47.2 47.2-47.2 z"
    class="st0"
  />
  <path
    d="m244.3 218.1-0.7-3.4 c-2-9.5-6.6-18.2-13.1-25.3-6.6-7.1-14.9-12.3-24.2-15.1 l-3.3-1-17.4 57.6 58.7-12.8 z m-36.8-36.1
      c6.7 2.6 12.8 6.7 17.7 12.1 4.9 5.3 8.5 11.7 10.6 18.7 l-40.2 8.7 11.9-39.5 z"
    class="st0"
  />
</svg>
