<svg
  width="800"
  height="800"
  viewBox="-2 0 24 24"
  fill="#ffffff"
  xmlns="http://www.w3.org/2000/svg"
>
  <path
    d="m7.11 5.12 c0.311 0 0.562-0.252 0.562-0.562 s-0.252-0.562-0.562-0.562 h-0.01
      c-0.15 0-0.285 0.064-0.379 0.165-0.098 0.103-0.159 0.243-0.159 0.397 s0.06 0.294 0.159 0.397
      c0.095 0.102 0.23 0.166 0.38 0.166 h0.011-1e-3 z m6.087 0 h0.01
      c0.15 0 0.285-0.064 0.379-0.165 0.098-0.103 0.159-0.243 0.159-0.397 s-0.06-0.294-0.159-0.397
      c-0.095-0.102-0.23-0.166-0.38-0.166 h-0.011 1e-3 c-0.311 0-0.562 0.252-0.562 0.562 s0.252 0.562 0.562 0.562 z
      m-11.711 2.654 c0.811 4e-3 1.468 0.66 1.471 1.471 v6.23
      c0 0.4-0.163 0.763-0.426 1.025-0.257 0.267-0.617 0.433-1.017 0.433 h-0.031 2e-3 -8e-3 c-0.816 0-1.478-0.662-1.478-1.478
      v-6.231 c0-0.4 0.166-0.761 0.433-1.019 0.26-0.266 0.623-0.431 1.025-0.431 h0.029-1e-3 z m15.288 0.274 v9.635
      c0 0.429-0.177 0.818-0.462 1.096-0.276 0.285-0.662 0.462-1.089 0.462 h-0.023 1e-3 -1.082 v3.274
      c0 0.82-0.665 1.486-1.486 1.486 s-1.486-0.665-1.486-1.486 v-3.274 h-1.99 v3.282 c0 0.816-0.662 1.478-1.478 1.478 h-0.029
      c-0.4 0-0.761-0.166-1.019-0.433-0.267-0.261-0.433-0.624-0.433-1.026 v-0.028 1e-3 l-0.014-3.274 h-1.076
      c-0.87 0-1.576-0.706-1.576-1.576 v-0.011 1e-3 -9.606 z m-3.346-5.84 c1.017 0.52 1.85 1.272 2.452 2.19 l0.015 0.024
      c0.579 0.866 0.923 1.932 0.923 3.077 v0.032-2e-3 h-13.342 v-0.031 c0-1.146 0.345-2.211 0.936-3.098 l-0.013 0.02
      c0.619-0.944 1.457-1.696 2.444-2.197 l0.036-0.017-1.024-1.89
      c-0.025-0.032-0.04-0.072-0.04-0.116 0-0.076 0.045-0.142 0.11-0.172 h1e-3
      c0.03-0.019 0.067-0.031 0.107-0.031 0.08 0 0.15 0.048 0.182 0.116 l1e-3 1e-3 1.04 1.904
      c0.854-0.383 1.85-0.606 2.899-0.606 s2.045 0.223 2.945 0.624 l-0.046-0.018 1.04-1.904
      c0.032-0.07 0.102-0.117 0.182-0.117 0.04 0 0.076 0.012 0.108 0.031 h-1e-3
      c0.066 0.03 0.112 0.096 0.112 0.173 0 0.044-0.015 0.084-0.04 0.116 z m6.88 7.04 v6.21 c0 0.816-0.662 1.478-1.478 1.478
      h-0.029 c-0.4 0-0.761-0.166-1.019-0.433-0.267-0.261-0.433-0.624-0.433-1.026 v-0.028 1e-3 -6.231
      c0-0.399 0.166-0.76 0.433-1.016 0.259-0.263 0.619-0.426 1.017-0.426 h0.024-1e-3 0.028
      c0.4 0 0.763 0.163 1.025 0.426 0.267 0.257 0.433 0.617 0.433 1.017 v0.027-1e-3 z"
  />
</svg>
