<svg
  width="800"
  height="800"
  viewBox="0 0 32 32"
  fill="#ffffff"
  xmlns="http://www.w3.org/2000/svg"
>
  <path
    d="m11.766 6.93 c4e-3 0.352 0.29 0.636 0.643 0.636 h7e-3
      c0.175 0 0.333-0.071 0.448-0.185 0.145-0.12 0.237-0.301 0.237-0.503 0-0.359-0.291-0.651-0.651-0.651-0.202 0-0.382 0.092-0.502 0.236
      l-1e-3 1e-3 c-0.118 0.117-0.192 0.279-0.192 0.458 v8e-3 z m7.136 8e-3
      c0.01 0.351 0.298 0.632 0.65 0.632 0.358 0 0.648-0.289 0.65-0.647-2e-3 -0.358-0.293-0.647-0.651-0.647-0.179 0-0.341 0.072-0.458 0.189-0.119 0.117-0.192 0.279-0.192 0.458
      v0.016-1e-3 z m-6.711-3.27-1.294-2.234 c-0.023-0.039-0.037-0.086-0.037-0.137 s0.014-0.097 0.037-0.138
      c0.051-0.078 0.135-0.131 0.232-0.137 h1e-3 c0.099 1e-3 0.185 0.055 0.232 0.135 l1e-3 1e-3 1.31 2.266
      c0.975-0.449 2.116-0.711 3.319-0.711 s2.343 0.262 3.369 0.732 l-0.05-0.021 1.302-2.266
      c0.05-0.062 0.127-0.101 0.212-0.101 0.151 0 0.273 0.122 0.273 0.273 0 0.036-7e-3 0.071-0.02 0.103
      l1e-3 -2e-3 -1.286 2.234 c2.032 1.133 3.476 3.112 3.859 5.449 l6e-3 0.044-15.332-2e-3 c0.39-2.38 1.833-4.359 3.826-5.471
      l0.039-0.02 z m-7.909 3.617 v0.024 c9e-3 1.021 0.835 1.847 1.855 1.856 h1e-3 l0.163-4e-3 h1.408
      c0.25-1.692 0.982-3.18 2.05-4.357 l-6e-3 7e-3 h-3.613 c-1.148 6e-3 -2.112 0.79-2.391 1.851 l-4e-3 0.017
      c0.303 0.041 0.534 0.296 0.536 0.606 z m21.827 7.264 h-1.02 c-0.071 0-0.129 0.058-0.129 0.129 v16.111
      c0 0.068 0.053 0.124 0.12 0.128 h1.053 c1.23-5e-3 2.226-1.003 2.226-2.234 v-16.368 c0 1.234-1 2.234-2.234 2.234 h-0.016
      z m-10.163 8.418 h-2e-3 c-0.138 0-0.257 0.078-0.317 0.192 l-1e-3 2e-3 -1.763 3.787 h4.21 l-1.817-3.785
      c-0.056-0.116-0.173-0.195-0.308-0.196 z m1.282-6.585 v-9e-3 c0-0.756-0.61-1.369-1.364-1.374 h-1e-3
      c-0.382 0-0.728 0.153-0.981 0.402-0.249 0.249-0.403 0.592-0.403 0.972 0 0.756 0.61 1.369 1.364 1.374 h0.01
      c0.755 0 1.369-0.61 1.374-1.364 z m5.289 12.767
      c0.075 0.154 0.119 0.334 0.119 0.525 0 0.67-0.544 1.214-1.214 1.214-0.131 0-0.258-0.021-0.376-0.059 l9e-3 2e-3
      c-0.03-0.01-0.057-0.026-0.087-0.038-0.109-0.045-0.202-0.1-0.287-0.167 l3e-3 2e-3 c-0.034-0.025-0.063-0.05-0.091-0.075
      l1e-3 1e-3 c-0.106-0.096-0.193-0.21-0.259-0.337 l-3e-3 -7e-3 -3.512-7.312 c-0.158-0.33-0.489-0.554-0.873-0.554 h-3e-3
      c-0.386 2e-3 -0.72 0.225-0.881 0.549 l-3e-3 6e-3 -3.423 7.352 c-0.176 0.398-0.549 0.679-0.991 0.723 h-5e-3
      c-0.127 0-0.251-0.01-0.372-0.028 l0.014 2e-3 c-0.069-0.017-0.128-0.036-0.185-0.059 l8e-3 3e-3
      c-0.038-0.014-0.076-0.025-0.112-0.042-0.067-0.035-0.124-0.072-0.177-0.113 l3e-3 2e-3
      c-0.027-0.019-0.057-0.034-0.083-0.056-0.261-0.224-0.425-0.554-0.425-0.922 0-0.196 0.046-0.381 0.129-0.544
      l-3e-3 7e-3 5.135-11.049 c-0.555-0.413-0.91-1.067-0.91-1.804 0-1.114 0.813-2.038 1.878-2.213 l0.013-2e-3 v-1.424
      c0-0.158 0.083-0.297 0.207-0.375 l2e-3 -1e-3 c0.063-0.038 0.139-0.061 0.221-0.061 s0.158 0.023 0.223 0.062 l-2e-3 -1e-3
      c0.126 0.079 0.209 0.218 0.209 0.376 v0.019 l0.016 8e-3 c0.814 0.23 1.433 0.885 1.605 1.705 l3e-3 0.015
      c0.032 0.142 0.051 0.305 0.051 0.473 0 0.71-0.332 1.342-0.85 1.749 l-5e-3 4e-3 4.229 8.799 z m2.555-15.225
      c-0.415 1e-3 -0.752 0.337-0.752 0.753 v12.27 h-2.169 l-4.162-8.66
      c0.445-0.506 0.716-1.173 0.716-1.904 0-1.154-0.676-2.149-1.653-2.613 l-0.018-8e-3 v-1.037 c0-0.379-0.2-0.712-0.5-0.898
      l-5e-3 -3e-3 c-0.156-0.097-0.346-0.155-0.55-0.155-0.582 0-1.054 0.472-1.054 1.054 0 0.018 0 0.035 1e-3 0.052 v-2e-3 0.9
      c-1.112 0.411-1.891 1.463-1.891 2.696 0 0.758 0.294 1.448 0.775 1.961 l-1e-3 -2e-3 -4.005 8.619 h-3.671
      c-1.366-9e-3 -2.47-1.116-2.475-2.482 v-17.18 0.013 c0 1.371 1.108 2.484 2.478 2.491 h1e-3 q0.083 0 0.165-5e-3 h18.401
      s3.163-0.273 3.571 1.921 c-0.312 0.032-0.553 0.293-0.555 0.61-3e-3 0.89-0.725 1.61-1.615 1.61 h-1.021 z"
  />
</svg>
