<svg
  width="512"
  height="512"
  viewBox="0 0 512 512"
  fill="#ffffff"
  xmlns="http://www.w3.org/2000/svg"
>
  <path
    d="m162.41 306.27
      c-11.012 0-19.938 8.927-19.938 19.921 0 11.003 8.927 19.93 19.938 19.93 10.994 0 19.903-8.927 19.903-19.93 0-10.995-8.909-19.921-19.903-19.921
      z"
  />
  <path
    d="m373.82 314.43 h-19.013 v-19.013 c0-3.962-3.226-7.189-7.188-7.189 h-7.612 c-3.979 0-7.188 3.227-7.188 7.189 v19.013
      h-19.004 c-3.97 0-7.188 3.226-7.188 7.188 v7.603 c0 3.961 3.218 7.188 7.188 7.188 h19.004 v19.013
      c0 3.979 3.209 7.197 7.188 7.197 h7.612 c3.962 0 7.188-3.218 7.188-7.197 v-19.013 h19.013
      c3.971 0 7.189-3.227 7.189-7.188 v-7.603 c0-3.962-3.218-7.188-7.189-7.188 z"
  />
  <path
    d="m241.56 56.571 v95.547 h28.891 v-95.547
      c9.36-5.138 15.769-14.956 15.769-26.374-1e-3 -16.677-13.538-30.197-30.215-30.197-16.686 0-30.197 13.52-30.197 30.197 0 11.418 6.41 21.253 15.752 26.374
      z"
  />
  <rect
    x="201.03"
    y="170.58"
    width="109.94"
    height="40.603"
  />
  <path
    d="m420.1 231 h-328.19 c-17.68 0-32.022 14.324-32.022 32.005 v216.97 c0 17.699 14.342 32.031 32.022 32.031 h328.19
      c17.673 0 32.014-14.332 32.014-32.031 v-216.97 c0-17.68-14.341-32.005-32.014-32.005 z m-257.69 155.28
      c-33.19 0-60.1-26.91-60.1-60.092 0-33.19 26.91-60.082 60.1-60.082 33.172 0 60.074 26.892 60.074 60.082-1e-3 33.182-26.902 60.092-60.074 60.092
      z m233.66 90.141 h-39.929 v-39.928 h39.928 v39.928 z m-53.716-90.141
      c-33.181 0-60.091-26.91-60.091-60.092 0-33.19 26.91-60.082 60.091-60.082 33.19 0 60.092 26.892 60.092 60.082-1e-3 33.182-26.902 60.092-60.092 60.092
      z"
  />
</svg>
