<svg
  width="800"
  height="800"
  viewBox="0 0 512 512"
  fill="#ffffff"
  xmlns="http://www.w3.org/2000/svg"
>
  <path
    d="m152.28 427.01-19.952 84.494 h-124.99 l23.082-79.671 c31.792 7.743 74.363 6.11 121.86-4.823 z m252.37-128.95 h-34.187
      v33.757 h34.188 v-33.757 z m-298 33.906 h-17.525 v-50.723 h97.573 l32.713-138.51 35.594 138.51 h48.65 v-49.567 h50.424
      v-99.142 h0.281 l-34.645-132.03 h-164.32 l-113.95 393.28 c46.541 15.601 122.89 3.479 211.24-45.157 h-146.03 v-16.668 z
      m398-33.906 v33.757 h-50.424 v48.714 h-34.787 l33.897 129.17 h-139.62 l-33.539-130.5
      c9.59-4.944 19.172-10.18 28.703-15.751 3.797-2.223 7.463-4.455 11.16-6.687 v-24.942 h-196.58 v-16.663 h-17.524 v-17.094
      h214.53 v-49.571 h50.429 v-99.142 h33.757 v99.142 h49.572 v49.571 h50.421 z m-85.038-16.667 h-64.528 v65.386 h64.528
      v-65.386 z"
  />
</svg>
