<svg
  width="800"
  height="800"
  viewBox="0 0 24 24"
  fill="#ffffff"
  xmlns="http://www.w3.org/2000/svg"
>
  <path
    d="M6.898.437 S7.87.534 8.26 1.505 c0 0 1.069 2.526 2.04 4.955 1.42 3.33 3.22 7.615 4.67 11.078 H1.167
      c-.778 0-1.166-.486-1.166-.486.777 1.36 3.012 5.636 3.012 5.636.388.486.777.776 1.36.776 1.264 0 3.208-1.262 3.208-1.262
      l7.409-4.619 c1.412 3.372 2.5 5.98 2.5 5.98 H24 c.097-.097-9.327-22.446-9.424-22.544-.097-.097-.292-.582-.972-.582 z
      m-.29.875 c-.583 0-.778.485-.875.582 L.39 14.526 c-.291.874-.097 1.943 1.458 1.943 h4.177 l3.693-8.841
      A453.32 453.32 0 0 0 7.58 2.38 c-.097-.291-.389-1.068-.972-1.068 z"
  />
</svg>
