<svg
  width="32"
  height="32"
  viewBox="0 0 32 32"
  fill="#ffffff"
  xmlns="http://www.w3.org/2000/svg"
>
  <path
    d="m28.2 23.8-4.5-4.5 c0.9-1.6 1.3-3.4 1.3-5.3 0-6.1-4.9-11-11-11 s-11 4.9-11 11 4.9 11 11 11 c1.9 0 3.7-0.5 5.3-1.3
      l4.5 4.5 c0.6 0.6 1.4 0.9 2.2 0.9 s1.6-0.3 2.2-0.9 c1.2-1.2 1.2-3.2 0-4.4 z m-7.2-8.8 h-2.1 c-0.1 0.6-0.4 1.2-0.7 1.8
      l1.5 1.5 c0.4 0.4 0.4 1 0 1.4-0.2 0.2-0.4 0.3-0.7 0.3 s-0.5-0.1-0.7-0.3 l-1.5-1.5 c-0.8 0.5-1.8 0.8-2.8 0.8
      s-2-0.3-2.8-0.8 l-1.5 1.5 c-0.2 0.2-0.4 0.3-0.7 0.3 s-0.5-0.1-0.7-0.3 c-0.4-0.4-0.4-1 0-1.4 l1.5-1.5
      c-0.3-0.5-0.6-1.1-0.7-1.8 h-2.1 c-0.6 0-1-0.4-1-1 s0.4-1 1-1 h2.1 c0.1-0.6 0.4-1.2 0.7-1.8 l-1.5-1.5
      c-0.4-0.4-0.4-1 0-1.4 s1-0.4 1.4 0 l1.5 1.5 c0.3-0.2 0.5-0.3 0.8-0.4 v-0.4 c0-1.1 0.9-2 2-2 s2 0.9 2 2 v0.4
      c0.3 0.1 0.5 0.3 0.8 0.4 l1.5-1.5 c0.4-0.4 1-0.4 1.4 0 s0.4 1 0 1.4 l-1.5 1.5 c0.3 0.5 0.6 1.1 0.7 1.8 h2.1
      c0.6 0 1 0.4 1 1 s-0.4 1-1 1 z"
  />
</svg>
