<svg
  width="800"
  height="800"
  viewBox="0 0 1024 1024"
  fill="#ffffff"
  xmlns="http://www.w3.org/2000/svg"
>
  <path
    d="m404.93 729.49
      c-94.598 19.854-81.33-57.768-159.41-70.073-96.35-15.182-94.909 63.337-94.909 63.337 0 92.084 46.894 166.73 166.73 166.73
      s166.73-74.649 166.73-166.73 c0 0 1.2205-38.884-26.589-22.461-0.001024 0-25.638 23.547-52.555 29.197 z m470 68.904
      v49.05 c0 23.123-15.929 39.875-39.053 39.875 h-286.31 c25.927-28.669 43.094-63.481 50.592-111.6 h256.74
      c11.562 0 18.031 11.116 18.031 22.678 z"
  />
  <path
    d="m317.33 62.633 c-27.044 0-49.05 22.007-49.05 49.05 s22.007 49.05 49.05 49.05 c27.044 0 49.05-22.007 49.05-49.05
      s-22.006-49.05-49.05-49.05 z m0 70.073 c-11.592 0-21.021-9.43-21.021-21.021
      s9.43-21.021 21.021-21.021 21.021 9.43 21.021 21.021-9.429 21.021-21.021 21.021 z m469.48 140.14
      c-23.184 0-42.043 18.859-42.043 42.043
      s18.859 42.043 42.043 42.043 42.043-18.859 42.043-42.043-18.859-42.043-42.043-42.043 z m0 56.058
      c-7.7262 0-14.015-6.2887-14.015-14.015 s6.2887-14.015 14.015-14.015 c7.7252 0 14.015 6.2887 14.015 14.015
      s-6.2887 14.015-14.015 14.015 z m-327.59-163.43 h-25.597 v20.478 h-22.525 v28.669 h22.525 v20.478 h25.597 v-20.478
      h22.525 v-28.669 h-22.525 z"
    fill="#FF7415"
  />
  <path
    d="m416.05 568.17
      c-24.991-16.143-53.882-25.969-83.553-28.419-7.8419-0.643-14.487 5.1051-15.123 12.81-0.63686 7.7191 5.0979 14.487 12.81 15.123 25.093 2.0734 49.529 10.381 70.66 24.025
      a13.919 13.919 0 0 0 7.589 2.2444 c4.5983 0 9.1085-2.2587 11.784-6.4116 4.202-6.4996 2.3334-15.177-4.1672-19.372 z
      m23.793 37.089 c-6.0419 4.845-7.0075 13.659-2.1696 19.701 a153.85 153.85 0 0 1 19.851 32.148
      c2.3611 5.1389 7.4385 8.1706 12.748 8.1706 1.9566 0 3.942-0.41058 5.8372-1.2727 7.0341-3.2304 10.121-11.544 6.8979-18.586
      a182.27 182.27 0 0 0-23.464-37.992 c-4.8512-6.0553-13.672-7.0136-19.701-2.1686 z m-112.7-129.2
      c7.7395 0 14.334-6.2754 14.334-14.015 v-56.058 c0-7.7395-6.5948-14.015-14.334-14.015 s-14.334 6.2754-14.334 14.015
      v56.058 c0 7.7406 6.5948 14.015 14.334 14.015 z"
  />
  <path
    d="m903.92 701.25-156.2-96.568 c-2.4225-1.5051-5.9027-6.6512-5.9027-9.4976 v-142.55
      c21.502-5.7819 29.508-22.743 29.508-41.014 0-23.184-17.379-43.415-40.564-43.415 h-112.12
      c-23.184 0-43.587 20.231-43.587 43.415 0 18.271 12.151 35.231 26.486 41.014 v142.55
      c0 2.8464-1.3167 7.9924-3.7392 9.4976 l-57.071 35.906
      c-17.705-49.368-51.072-92.102-97.189-121.07-16.122-10.127-38.528-18.667-39.431-19.024-1.8409-0.73924-5.2986-4.2082-5.2986-6.1925
      v-139.4 c19.454-6.0419 36.34-26.461 36.34-48.639 0-27.044-20.704-50.678-47.747-50.678 h-140.14
      c-27.044 0-51.25 23.634-51.25 50.678 0 22.178 21.574 42.597 32.837 48.639 v139.4
      c0 1.9843-0.15461 5.4542-1.9956 6.1925-0.89692 0.35631-21.092 8.8955-37.201 19.017-69.921 43.919-111.11 119.36-111.11 201.81 0 151.41 87.112 238.25 238.52 238.25
      s238.38-86.838 238.38-238.25 c0-18.024-2.0406-35.677-5.8884-52.776 l62.804-40.042
      c10.736-6.6655 16.83-20.672 16.83-33.312 v-143.02 h31.5 c7.7395 0 14.015-5.571 14.015-13.311
      s-6.2754-13.311-14.015-13.311 h-42.044 c-7.7252 0-14.015-6.6082-14.015-14.334 s6.2887-14.334 14.015-14.334 h112.12
      c7.7252 0 14.015 6.6082 14.015 14.334 s-6.2887 14.334-14.015 14.334 h-16.589 v169.64
      c0 12.639 9.0819 26.647 19.818 33.312 l154.19 96.568 c15.5 9.6214 27.701 34.065 27.701 52.308 v84.087
      c0 38.635-27.358 65.793-65.994 65.793 h-332.3 v29.693 h332.3 c54.094 0 94.662-41.392 94.662-95.485 v-84.087
      c0-27.947-16.88-61.382-40.625-76.122 z m-586.59 230.28
      c-182.91 0-210.22-131.71-210.22-210.22 0-72.741 36.835-139.31 98.539-178.08 13.926-8.745 31.713-16.642 31.911-16.717 12.447-4.9751 19.949-18.825 19.949-32.224
      v-140.42 h45.801 c7.7395 0 14.015-5.571 14.015-13.311 s-6.2754-13.311-14.015-13.311 h-56.058
      c-11.592 0-21.021-10.421-21.021-22.014 s9.43-22.014 21.021-22.014 h140.14 c11.592 0 21.021 10.421 21.021 22.014
      s-9.43 22.014-21.021 22.014 h-17.261 v167.04
      c0 13.406 11.012 27.262 23.459 32.224 0.19863 0.081911 20.615 7.9382 34.602 16.724 61.696 38.758 98.938 105.33 98.938 178.07 0 78.511-26.905 210.22-209.81 210.22
      z"
  />
  <path
    d="m800.44 733.46 a13.918 13.918 0 0 0 7.3771 2.1072
      c4.6873 0 9.2651-2.3467 11.92-6.6235 4.0853-6.5764 2.0601-15.219-4.5164-19.297 l-103.92-64.503
      c-6.5692-4.0853-15.219-2.0734-19.297 4.5164-4.0853 6.5764-2.0601 15.219 4.5164 19.297 l103.92 64.503 z m-115.96-180.32
      v-42.043 c0-7.7395-6.5948-14.015-14.334-14.015 s-14.334 6.2754-14.334 14.015 v42.043
      c0 7.7395 6.5948 14.015 14.334 14.015 7.7395-0.001024 14.334-6.2754 14.334-14.015 z m-121.89-196.2
      c23.184 0 42.043-18.859 42.043-42.043
      s-18.859-42.043-42.043-42.043-42.043 18.859-42.043 42.043 18.859 42.043 42.043 42.043 z m0-56.058
      c7.7262 0 14.015 6.2887 14.015 14.015 s-6.2887 14.015-14.015 14.015 c-7.7252 0-14.015-6.2887-14.015-14.015
      s6.2897-14.015 14.015-14.015 z m112.12-49.051 c23.184 0 42.043-18.859 42.043-42.043
      s-18.859-42.043-42.043-42.043-42.043 18.859-42.043 42.043 18.859 42.043 42.043 42.043 z m0-56.058
      c7.7262 0 14.015 6.2887 14.015 14.015 s-6.2887 14.015-14.015 14.015 c-7.7252 0-14.015-6.2887-14.015-14.015
      s6.2897-14.015 14.015-14.015 z m-507.29 39.332 h26.621 v-20.478 h23.549 v-28.669 h-23.549 v-20.478 h-26.621 v20.478
      h-21.502 v28.669 h21.502 z"
  />
</svg>
