<svg
  width="800"
  height="800"
  viewBox="0 0 512 512"
  fill="#ffffff"
  xmlns="http://www.w3.org/2000/svg"
>
  <path
    d="m502.82 60.707
      c-8.747-18.246-23.112-33.379-40.878-43.99-17.784-10.601-39.024-16.699-61.828-16.717-30.364 0.018-58.026 10.846-78.361 28.784-10.163 8.974-18.508 19.756-24.32 31.923-5.825 12.148-9.096 25.69-9.096 39.875-9e-3 18.074 5.333 35.08 14.478 49.563 7.811 12.384 18.377 22.977 30.838 31.263
      l-18.766 46.876 13.551-1.673
      c46.817-5.854 91.631-23.376 112.92-32.575 20.222-7.218 37.676-19.558 50.241-35.586 12.647-16.138 20.332-36.194 20.318-57.867 0.013-14.186-3.275-27.727-9.093-39.876
      z m-22.976 86.262 c-10.521 13.452-25.695 24.325-43.66 30.638 l-0.245 0.072-0.244 0.109
      c-18.418 7.996-55.674 22.515-95.277 29.408 l13.424-33.489-6.59-3.772
      c-13.297-7.599-24.184-17.947-31.679-29.824-7.504-11.914-11.62-25.284-11.633-39.531 0-11.19 2.546-21.819 7.25-31.661 7.042-14.736 19.051-27.626 34.464-36.826 15.419-9.199 34.19-14.663 54.458-14.654 27.065-9e-3 51.394 9.715 68.703 25.012 8.648 7.644 15.541 16.645 20.236 26.468 4.699 9.842 7.246 20.471 7.255 31.661-8e-3 17.044-5.923 32.911-16.462 46.389
      z"
  />
  <path
    d="m356.03 89.483 c-6.704 0-12.135 6.078-12.135 13.55 0 7.49 5.432 13.56 12.135 13.56 s12.144-6.07 12.144-13.56
      c0-7.472-5.441-13.55-12.144-13.55 z"
  />
  <path
    d="m402.86 89.483
      c-6.707 0-12.148 6.078-12.148 13.55 0 7.49 5.441 13.56 12.148 13.56 6.704 0 12.14-6.07 12.14-13.56 0-7.472-5.436-13.55-12.14-13.55
      z"
  />
  <path
    d="m449.67 89.483
      c-6.704 0-12.14 6.078-12.14 13.55 0 7.49 5.436 13.56 12.14 13.56 6.712 0 12.149-6.07 12.149-13.56-1e-3 -7.472-5.437-13.55-12.149-13.55
      z"
  />
  <path
    d="m220.94 347.06 c-12.682 4.216-26.202 6.585-40.282 6.585 s-27.599-2.369-40.282-6.585
      c-92.097 15.115-140.29 82.797-140.29 164.94 h361.15 c0-82.146-48.192-149.83-140.29-164.94 z"
  />
  <path
    d="m180.66 324.36 c54.588 0 98.836-44.252 98.836-98.836 v-28.043 c0-54.582-44.248-98.836-98.836-98.836
      s-98.836 44.253-98.836 98.836 v28.043 c0 54.584 44.249 98.836 98.836 98.836 z"
  />
</svg>
