<svg
  width="800"
  height="800"
  viewBox="0 0 512 512"
  fill="#ffffff"
  xmlns="http://www.w3.org/2000/svg"
>
  <path
    d="m283.92 374.52 c-3.227-1.207-6.742-2.87-10.316-4.839 l-59.776 82.622-4.251-54.124 h-31.765 l-4.257 54.133-59.774-82.631
      c-3.677 2.06-7.225 3.747-10.323 4.839-31.294 11.019-108.19 42.71-103.23 102.07 1.192 14.245 79.52 29.028 193.46 29.028
      s192.27-14.782 193.47-29.028 c4.963-59.419-72.134-90.439-103.24-102.07 z"
  />
  <path
    d="m123.11 251.95 c4.35 24.652 11.663 46.399 21.3 57.111 v29.722 c0 0.753-0.132 1.546-0.352 2.366 l33.751 16.254 v23.841
      h31.765 v-23.848 l33.73-16.238 c-0.211-0.819-0.339-1.614-0.339-2.374 v-29.722
      c9.637-10.712 16.95-32.46 21.301-57.111 10.15-3.623 15.948-9.422 23.191-34.792 7.71-27.025-11.593-26.107-11.593-26.107 15.613-51.676-4.938-100.24-39.359-96.677-23.742-41.534-103.25 9.488-128.18 5.931 0 14.244 5.931 24.924 5.931 24.924-8.66 16.445-5.319 49.236-2.878 65.822-1.414-0.025-18.868 0.157-11.465 26.107 7.246 25.369 13.045 31.168 23.195 34.791
      z"
  />
  <path
    d="m503.69 61.893
      c-7.999-16.685-21.135-30.524-37.382-40.228-16.263-9.695-35.686-15.271-56.54-15.287-27.765 0.016-53.062 9.918-71.658 26.322-9.293 8.206-16.924 18.066-22.24 29.193-5.327 11.109-8.318 23.492-8.318 36.464-8e-3 16.528 4.877 32.08 13.24 45.324 7.144 11.324 16.805 21.011 28.2 28.588
      l-17.161 42.866 12.392-1.53
      c42.812-5.353 83.793-21.376 103.26-29.788 18.492-6.601 34.454-17.885 45.944-32.543 11.564-14.758 18.592-33.098 18.579-52.918 0.013-12.97-2.995-25.353-8.313-36.463
      z m-21.012 78.884 c-9.62 12.301-23.497 22.244-39.926 28.018 l-0.223 0.066-0.224 0.1
      c-16.842 7.312-50.911 20.589-87.126 26.893 l12.276-30.624-6.026-3.449
      c-12.16-6.948-22.116-16.412-28.97-27.273-6.861-10.895-10.626-23.121-10.637-36.15 0-10.232 2.328-19.953 6.63-28.953 6.439-13.475 17.421-25.263 31.517-33.676 14.1-8.412 31.264-13.409 49.798-13.401 24.751-8e-3 46.998 8.884 62.827 22.873 7.908 6.99 14.212 15.221 18.505 24.204 4.297 9 6.626 18.72 6.634 28.953-7e-3 15.583-5.418 30.093-15.055 42.419
      z"
  />
  <path
    d="m369.45 88.207 c-6.129 0-11.098 5.559-11.098 12.391 0 6.849 4.968 12.4 11.098 12.4 s11.105-5.551 11.105-12.4
      c0-6.832-4.976-12.391-11.105-12.391 z"
  />
  <path
    d="m412.28 88.207
      c-6.134 0-11.109 5.559-11.109 12.391 0 6.849 4.976 12.4 11.109 12.4 6.13 0 11.101-5.551 11.101-12.4 0-6.832-4.971-12.391-11.101-12.391
      z"
  />
  <path
    d="m455.08 88.207
      c-6.129 0-11.102 5.559-11.102 12.391 0 6.849 4.972 12.4 11.102 12.4 6.138 0 11.109-5.551 11.109-12.4 1e-3 -6.832-4.971-12.391-11.109-12.391
      z"
  />
</svg>
