<svg
  width="800"
  height="800"
  viewBox="0 0 24 24"
  fill="#ffffff"
  xmlns="http://www.w3.org/2000/svg"
>
  <path
    d="m13.152 0.682 a2.25 2.25 0 0 1 2.269 0 l7e-3 4e-3 6.957 4.276 a2.276 2.276 0 0 1 1.126 1.964 v7.516
      c0 0.81-0.432 1.56-1.133 1.968 l-2e-3 1e-3 -11.964 7.037-4e-3 3e-3 a2.276 2.276 0 0 1-2.284 0 l-0.026-0.015-6.503-4.502
      a2.268 2.268 0 0 1-1.096-1.943 v-7.553 c0-0.392 0.1-0.77 0.284-1.1 l3e-3 -6e-3 0.014-0.026 a2.28 2.28 0 0 1 0.82-0.827
      h2e-3 l11.53-6.798 z m0.757 1.295 h-1e-3 l-11.26 6.639 6.248 4.247 a0.776 0.776 0 0 0 0.758-0.01 h2.346
      l11.633-6.804-6.629-4.074 a0.75 0.75 0 0 0-0.75 3e-3 z m4.091 7.732-3.25 1.9 v7.548 l3.25-1.912 v-7.536 z m1.5-0.878
      v7.532 l2.124-1.25 a0.777 0.777 0 0 0 0.387-0.671 v-7.079 l-2.511 1.468 z m-9.09 5.316 2.84-1.66 v7.552 l-3.233 1.902
      v-7.612 c0.134-0.047 0.265-0.107 0.391-0.18 l2e-3 -2e-3 z m-1.893 7.754 v-7.571 a2.277 2.277 0 0 1-0.393-0.18
      l-0.023-0.014-6.102-4.147 v7.003 c0 0.275 0.145 0.528 0.379 0.664 l0.025 0.014 6.114 4.232 z"
    fill-rule="evenodd"
  />
</svg>
