<svg
  width="800"
  height="800"
  viewBox="0 0 16 16"
  fill="#ffffff"
  xmlns="http://www.w3.org/2000/svg"
>
  <path
    d="m5 2.41 0.78-0.41 9 6v0.83l-5.78 3.8533v-1.2007l4.6-3.0626-7.6-5.07v3.65h-1v-4.59z"
    clip-rule="evenodd"
    fill-rule="evenodd"
  />
  <path
    d="m6.1304 12.124 c-0.18245 0.1796-0.32264 0.3794-0.42114 0.5996-0.0959 0.2195-0.14411 0.4578-0.14411 0.7157 v0.8618
      c0 0.0966-0.01822 0.1879-0.055 0.2734-0.03636 0.0846-0.08629 0.1587-0.1498 0.222-0.06349 0.0633-0.13786 0.113-0.22262 0.1492-0.08571 0.0366-0.17725 0.0547-0.27408 0.0547
      h-0.86486 c-0.09683 0-0.18837-0.0181-0.27408-0.0547-0.08476-0.0362-0.15912-0.0859-0.22262-0.1492
      s-0.11344-0.1374-0.1498-0.222 c-0.03678-0.0855-0.055-0.1768-0.055-0.2734 v-0.8618
      c0-0.2578-0.0493-0.4961-0.1474-0.7155-0.09622-0.2201-0.23542-0.4203-0.41785-0.5998-0.23414-0.231-0.41492-0.489-0.54164-0.7736-0.12711-0.2856-0.19041-0.5948-0.19041-0.9272 0-0.2223 0.02876-0.43694 0.08641-0.64374 0.05751-0.20627 0.13924-0.39906 0.24525-0.57819 0.10588-0.18115 0.23253-0.3452 0.3799-0.49203 0.1473-0.14678 0.31075-0.27294 0.49026-0.37842 0.18191-0.10554 0.37666-0.18708 0.5836-0.24436 0.20746-0.05741 0.42278-0.08606 0.64581-0.08606
      s0.43836 0.02865 0.64581 0.08606
      c0.20694 0.05728 0.40036 0.13869 0.5801 0.24429 0.18176 0.10547 0.34639 0.23164 0.49377 0.37849 0.14736 0.14683 0.27401 0.31088 0.37988 0.49202 0.10602 0.17913 0.18775 0.37192 0.24526 0.5782 0.05765 0.2068 0.08641 0.42144 0.08641 0.64374 0 0.3324-0.0633 0.6416-0.1904 0.9272-0.12673 0.2846-0.3075 0.5426-0.54165 0.7736
      z m-1.1034 0.9918 h-1.1916 v1.1853 c0 0.0436 0.01536 0.0807 0.04857 0.1138 0.03323 0.0331 0.07064 0.0486 0.11479 0.0486
      h0.86486 c0.04415 0 0.08157-0.0155 0.11479-0.0486 0.03321-0.0331 0.04858-0.0702 0.04858-0.1138 v-1.1853 z"
    clip-rule="evenodd"
    fill-rule="evenodd"
  />
</svg>
