<svg
  width="800"
  height="800"
  viewBox="0 0 512 512"
  fill="#ffffff"
  xmlns="http://www.w3.org/2000/svg"
>
  <path
    d="m397.27 173.26-16.749 11.557 c-12.268-13.347-26.762-24.597-42.89-33.177 l140.05-116.4-106.03-34.75-93.948 133.24
      c-3.327-0.307-6.683-0.52-10.07-0.621 l81.803-132.4-100.82 0.721-42.446 141.97 c-2.634 1.003-5.239 2.071-7.808 3.204
      l23.886-129.1-83.19 33.014 10.46 129.67 c-1.274 1.281-2.522 2.587-3.752 3.915
      l-23.504-112.22-58.243 56.154 51.788 102.09 c-0.96 2.248-1.869 4.521-2.728 6.819
      l-52.903-76.2-24.712 57.857 68.385 57.68 c-0.256 2.493-0.455 5.008-0.595 7.533 l-64.452-48.002-4.489 56.684 71.07 28.122
      c0.339 1.94 0.711 3.864 1.119 5.776 l-66.333-18.301 14.526 48.353 61.555 0.361 c0.592 1.356 1.205 2.706 1.833 4.045
      l-56.875 6.852 28.678 35.504 42.883-17.294 c7.014 9.804 15.1 18.792 24.099 26.77 l5.203-10.673
      s8.735-12.997 50.222-14.447 c19.401-0.686 41.332 2.414 59.181 5.906 l53.649 118.01 s12.809-3.655 27.422-12.809
      c14.613-9.133 25.574-29.227 25.574-29.227 s-18.268-54.844-38.38-76.76
      c-20.115-21.923-43.86-32.92-54.844-45.708-8.691-10.139-21.984-19.13-27.115-22.413
      l-2.706-4.85 164.11-36.817-21.919-109.65 z m-247.67 66.686 c-27.422 68.562 29.226 135.28 29.226 135.28 l-23.771 8.19
      s-1.382-1.774-3.568-5.036 l4.579-1.852-12.019-10.373
      c-13.563-24.435-32.611-71.72-13.682-121.64 27.483-72.173 107.88-90.47 107.88-90.47 l9.154 2.749
      c0 1e-3 -76.742 30.54-97.799 83.147 z m59.037 156.03 c23.309 0 41.198 9.616 41.198 9.616 s-32.903-2.184-51.947 1.808
      c-10.684 2.223-22.251 10.052-28.84 15.082-0.7-0.506-1.4-1.011-2.085-1.53 l7.621-13.552
      c-1e-3 0 10.747-11.424 34.053-11.424 z"
  />
</svg>
