<?xml version="1.0" standalone="no"?>
<!DOCTYPE svg PUBLIC "-//W3C//DTD SVG 20010904//EN"
 "http://www.w3.org/TR/2001/REC-SVG-20010904/DTD/svg10.dtd">
<svg version="1.0" xmlns="http://www.w3.org/2000/svg"
 width="256.000000pt" height="256.000000pt" viewBox="0 0 256.000000 256.000000"
 preserveAspectRatio="xMidYMid meet">

<g transform="translate(0.000000,256.000000) scale(0.100000,-0.100000)"
fill="#000000" stroke="none">
<path d="M716 2470 c-98 -5 -114 -16 -102 -63 4 -18 15 -29 36 -34 l30 -8 -34
-48 c-116 -163 -196 -390 -212 -601 l-7 -86 -36 0 c-32 0 -48 -12 -173 -138
l-138 -138 0 -621 c0 -552 2 -623 16 -637 14 -14 80 -16 584 -16 504 0 570 2
584 16 14 14 16 69 16 459 0 264 4 446 9 450 5 3 39 -7 75 -22 l66 -27 0 -72
c0 -106 -3 -104 200 -104 203 0 200 -2 200 104 l0 72 67 28 66 27 51 -50 c34
-33 60 -51 76 -51 17 0 56 32 142 118 86 86 118 125 118 142 0 16 -18 42 -51
76 l-50 51 27 66 28 67 72 0 c106 0 104 -3 104 200 0 203 2 200 -104 200 l-72
0 -28 67 -27 66 50 51 c33 34 51 60 51 76 0 34 -226 260 -260 260 -16 0 -42
-18 -76 -51 l-51 -50 -66 27 -67 28 0 72 c0 106 3 104 -200 104 -203 0 -200 2
-200 -104 l0 -72 -67 -28 -66 -27 -51 50 c-34 33 -60 51 -76 51 -33 0 -260
-226 -260 -259 0 -13 20 -44 50 -75 l51 -54 -27 -66 -28 -66 -72 0 c-97 0
-104 -7 -104 -116 l0 -84 -125 0 -125 0 0 44 c0 157 77 397 177 554 l34 54 24
-26 c28 -31 36 -32 64 -8 20 16 22 25 19 111 -4 116 -6 118 -132 111z m1014
-158 c0 -79 9 -91 80 -111 25 -7 71 -26 102 -42 32 -16 60 -29 63 -29 4 0 31
23 61 52 l55 52 71 -72 72 -71 -52 -55 c-29 -30 -52 -57 -52 -61 0 -3 13 -31
29 -63 16 -31 35 -77 42 -102 20 -71 32 -80 111 -80 l68 0 0 -100 0 -100 -68
0 c-79 0 -91 -9 -111 -80 -7 -25 -26 -71 -42 -102 -16 -32 -29 -60 -29 -63 0
-4 23 -31 52 -61 l52 -55 -72 -71 -71 -72 -55 52 c-30 29 -57 52 -61 52 -3 0
-29 -12 -58 -26 -28 -15 -76 -35 -106 -45 -78 -27 -81 -31 -81 -110 l0 -69
-100 0 -100 0 0 69 c0 79 -3 83 -81 110 -30 10 -78 30 -106 45 -29 14 -55 26
-58 26 -4 0 -31 -23 -61 -52 l-55 -52 -71 72 -72 71 52 55 c29 30 52 57 52 61
0 3 -12 29 -26 58 -15 28 -35 76 -45 106 -27 78 -31 81 -110 81 l-69 0 0 100
0 100 69 0 c79 0 83 3 110 81 10 30 30 78 45 106 14 29 26 55 26 58 0 4 -23
31 -52 61 l-52 55 72 71 71 72 55 -52 c30 -29 57 -52 61 -52 3 0 31 13 63 29
31 16 77 35 102 42 71 20 80 32 80 111 l0 68 100 0 100 0 0 -68z m-950 -816
c0 -53 20 -66 104 -66 l72 0 28 -67 27 -66 -50 -51 c-33 -33 -51 -60 -51 -75
0 -29 211 -248 247 -257 l23 -6 0 -364 0 -364 -500 0 -500 0 0 562 0 563 112
112 113 113 187 0 188 0 0 -34z"/>
<path d="M1527 2069 c-74 -17 -152 -62 -213 -123 -180 -180 -180 -452 0 -632
180 -179 452 -179 632 0 179 180 179 452 0 632 -112 112 -270 158 -419 123z
m257 -128 c75 -37 128 -91 165 -170 22 -47 26 -70 26 -141 0 -76 -4 -93 -33
-152 -38 -77 -92 -130 -171 -167 -47 -22 -70 -26 -141 -26 -71 0 -94 4 -141
26 -79 37 -133 90 -171 167 -29 59 -33 76 -33 152 0 71 4 94 26 140 87 186
293 260 473 171z"/>
<path d="M296 1214 c-9 -8 -16 -24 -16 -34 0 -46 19 -50 225 -50 206 0 225 4
225 50 0 46 -19 50 -225 50 -163 0 -196 -3 -209 -16z"/>
<path d="M296 1014 c-9 -8 -16 -24 -16 -34 0 -46 19 -50 225 -50 206 0 225 4
225 50 0 46 -19 50 -225 50 -163 0 -196 -3 -209 -16z"/>
<path d="M296 814 c-39 -38 -7 -84 59 -84 47 0 75 19 75 50 0 10 -7 26 -16 34
-21 21 -97 21 -118 0z"/>
<path d="M546 814 c-9 -8 -16 -24 -16 -34 0 -10 7 -26 16 -34 23 -24 495 -24
518 0 9 8 16 24 16 34 0 10 -7 26 -16 34 -23 24 -495 24 -518 0z"/>
<path d="M296 614 c-39 -38 -7 -84 59 -84 47 0 75 19 75 50 0 10 -7 26 -16 34
-21 21 -97 21 -118 0z"/>
<path d="M546 614 c-9 -8 -16 -24 -16 -34 0 -10 7 -26 16 -34 23 -24 495 -24
518 0 9 8 16 24 16 34 0 10 -7 26 -16 34 -23 24 -495 24 -518 0z"/>
<path d="M296 414 c-39 -38 -7 -84 59 -84 47 0 75 19 75 50 0 10 -7 26 -16 34
-21 21 -97 21 -118 0z"/>
<path d="M546 414 c-9 -8 -16 -24 -16 -34 0 -10 7 -26 16 -34 23 -24 495 -24
518 0 9 8 16 24 16 34 0 10 -7 26 -16 34 -23 24 -495 24 -518 0z"/>
<path d="M2385 830 c-35 -39 -160 -129 -236 -169 -86 -47 -192 -85 -292 -106
-89 -19 -87 -20 -81 13 7 33 -16 62 -48 62 -30 0 -148 -120 -148 -150 0 -30
118 -150 148 -150 45 0 67 53 36 85 -9 9 -15 17 -13 19 2 1 38 8 80 14 208 31
444 146 605 294 44 41 55 73 32 96 -19 19 -63 14 -83 -8z"/>
</g>
</svg>
