<svg
  width="1024"
  height="1024"
  viewBox="0 0 1024 1024"
  fill="#ffffff"
  xmlns="http://www.w3.org/2000/svg"
>
  <g
    transform="translate(0 1024) scale(.1 -.1)"
  >
    <path
      d="m1798 10060 c-20-11-47-36-60-57-22-36-23-47-26-260 l-4-223 h-666 c-629 0-669-2-708-19-23-10-52-34-65-52 l-24-34-3-899
        c-2-884-2-900 18-941 28-58 84-89 154-83 63 5 99 29 126 84 20 39 20 59 20 832 v792 h1150 v-252
        c0-153 4-269 11-293 29-104 153-151 244-91 58 38 60 46 65 351 l5 280 863 3 862 2 v-267
        c0-249 1-269 21-309 56-117 222-117 278 0 20 40 21 60 21 309 v267 l863-2 862-3 5-282
        c5-266 6-283 26-310 84-112 253-75 284 63 5 21 10 150 10 287 v247 h1150 v-3949 l-537-1158-538-1158 1-92 1-93 h-1111
        c-1062 0-1113-1-1152-19-55-25-87-71-92-135-4-59 20-105 77-143 l34-23 h1124
        c890 0 1124-3 1128-12 2-7 8-202 13-434 11-467 10-461 79-509 48-32 123-34 172-4 19 11 204 157 412 325 208 167 381 304 384 304
        s5-364 5-810 v-810 h-6720 v6134 l-21 42 c-56 116-221 117-279 3-20-38-20-70-18-3218 l3-3180 21-27 c11-15 33-37 48-48
        l27-21 h7158 l27 21 c15 11 37 33 48 48 21 27 21 36 26 1134 l5 1107 1194 2570
        c656 1414 1196 2586 1198 2606 6 45-25 121-59 143-13 9-260 127-549 262-365 172-538 248-569 251-58 7-110-15-142-58-14-19-261-543-549-1166
        l-524-1131-5 1726 c-5 1711-5 1727-25 1762-12 21-39 44-65 58 l-44 22 h-1334 l-4 223
        c-3 211-4 224-26 259-25 41-91 78-139 78-45 0-113-40-134-80-17-31-19-60-19-257 v-223 h-1729 l-3 229
        c-3 252-4 255-72 305-39 29-133 29-172 0-68-50-69-53-72-305 l-3-229 h-1729 v221 c0 209-1 223-22 260-40 71-135 98-210 59 z
        m7507-2319
        c176-83 319-154 318-159-3-11-2153-4646-2158-4650-3-3-731 334-744 344-3 3 1790 3873 1808 3902 6 10 65-13 256-102 287-135 316-141 381-84 64 57 83 142 44 205-26 43-33 47-301 174-128 61-235 112-236 113-2 2 31 77 73 167
        s89 192 105 226 l28 62 53-23 c29-14 197-92 373-175 z m-2344-4932 c200-94 365-172 366-173 s-10-29-26-63
        c-28-59-40-69-386-347-196-158-359-285-362-282 s-10 211-16 463 l-11 459 27 57 c14 31 30 57 34 57 5 0 173-77 374-171 z"
    />
    <path
      d="m2703 7718
        c-31-17-145-145-449-508-223-267-408-486-409-488-1-1-83 61-181 138-182 143-226 167-281 154-75-18-133-86-133-155 0-75 27-104 290-309 152-119 262-199 284-204 42-11 112 6 148 37 35 30 928 1095 945 1127 21 40 16 112-9 150-53 77-131 99-205 58
        z"
    />
    <path
      d="m3968 7630 c-130-39-158-204-50-285 27-20 43-20 1302-20 s1275 0 1302 20 c33 24 68 91 68 130 0 46-38 112-78 137
        l-37 23-1240 2 c-682 1-1252-2-1267-7 z"
    />
    <path
      d="m347 7356
        c-86-32-107-76-107-232 0-142 16-187 81-223 58-33 137-26 180 15 49 46 59 80 59 209 0 95-3 123-20 154-35 69-121 103-193 77
        z"
    />
    <path
      d="m3944 6801 c-55-25-87-72-92-135-4-59 20-105 77-143 l34-23 h829
        c918 0 861-4 914 66 55 71 31 181-51 231-28 17-73 18-850 20-783 3-822 2-861-16 z"
    />
    <path
      d="m2694 5271 c-17-10-214-237-439-505-225-267-411-486-414-486 s-80 59-171 131-177 137-192 145
        c-92 48-213-21-225-128-9-82 7-101 256-297 306-240 278-222 343-222 30 0 71 6 90 14 25 11 148 150 498 567 256 303 470 562 477 573 20 35 16 117-7 155-42 69-147 95-216 53
        z"
    />
    <path
      d="m3930 5168 c-57-39-75-72-75-138 0-71 21-105 85-137 l44-23 h1236
        c1183 0 1237 1 1276 19 61 28 89 73 89 143 0 63-19 97-75 136 l-33 22 h-2514 l-33-22 z"
    />
    <path
      d="m3929 4347 c-18-12-44-38-57-57-32-47-27-123 11-173 53-70 18-68 927-65 l815 3 37 23
        c39 24 78 91 78 133 0 39-42 112-79 136 l-34 23 h-1664 l-34-23 z"
    />
    <path
      d="m2702 2833 c-20-11-192-207-440-502-224-266-412-486-418-488 s-89 57-183 131
        c-191 150-225 167-293 146-106-31-152-161-87-244 30-38 473-384 513-401 48-20 125-19 158 3 32 20 942 1101 965 1145 20 39 13 124-13 160-46 62-137 84-202 50
        z"
    />
    <path
      d="m3962 1923
        c-38-7-99-74-107-116-15-77 26-158 92-186 21-8 254-11 860-9 821 3 832 3 860 24 33 24 73 97 73 135 0 47-42 111-90 136
        l-43 23-811-1 c-446-1-821-4-834-6 z"
    />
  </g>
</svg>
