<svg
  width="800"
  height="800"
  viewBox="0 0 256 240"
  fill="#ffffff"
  xmlns="http://www.w3.org/2000/svg"
>
  <path
    d="m84.635 20.256 c18.383 0 33.286 14.903 33.286 33.286
      s-14.903 33.286-33.286 33.286-33.286-14.903-33.286-33.286 14.902-33.286 33.286-33.286 z m-53.633 124.76
      c0-2.499 1.606-4.194 4.194-4.194 s4.194 1.606 4.194 4.194 v92.986 h91.469 v-92.986
      c0-2.499 1.606-4.194 4.194-4.194 2.499 0 4.194 1.606 4.194 4.194 v92.986 h29.092 v-101.37
      c0-22.934-18.74-41.585-41.585-41.585 h-8.388 l-24.451 38.015-2.945-28.467 4.016-9.638 h-18.026
      l4.016 9.638-3.123 28.645-24.452-38.193 h-9.816 c-22.934 0-41.585 18.74-41.585 41.585 v101.38 h29.092 v-92.986 h-0.09 z
      m183-127.01 h23 v23 h-23 v-23 z m-31 16 h21 v7 h-21 v-7 z m0-16 h21 v7 h-21 v-7 z m0 49 h54 v7 h-54 v-7 z m0-16 h54 v7
      h-54 v-7 z m0 32 h54 v7 h-54 v-7 z m-17-81.245 v104.24 h88 v-104 l-88-0.245 z m80.838 97.245 h-73.838 v-90 h74
      l-0.162 90 z"
  />
</svg>
