<svg
  width="1920"
  height="1920"
  viewBox="0 0 1920 1920"
  fill="#ffffff"
  xmlns="http://www.w3.org/2000/svg"
>
  <g
    transform="translate(0 1920) scale(.1 -.1)"
  >
    <path
      d="m6412 14547-1052-1052 v-4926 l53 8 c68 10 199 10 260 0 l47-8 v4671 h2e3 v2e3 h4980 v-9500 h-2899 l-36-74
        c-47-95-115-179-193-238 l-63-48 h3551 v8970 h530 v-9500 l-2135-2-2135-3-4-105 c-4-90-12-133-43-232-5-17 111-18 2336-18
        h2341 v8970 h530 v-9500 h-6669 l-6-37 c-16-98-47-200-79-259 l-34-64 h7148 v10220 h-890 v890 h-890 v890 h-5595
        l-1053-1053 z m948-257 v-690 h-1385 l690 690 c379 380 691 690 692 690 2 0 3-310 3-690 z"
    />
    <path
      d="m6750 12630v-180h4920v360h-4920v-180z"
    />
    <path
      d="m9208 11853-2458-3v-350h4920v180c0 99-1 179-2 178-2-2-1109-4-2460-5z"
    />
    <path
      d="m6752 10723 3-178 2458-3 2457-2v360h-4920l2-177z"
    />
    <path
      d="m6750 9770v-180h4920v360h-4920v-180z"
    />
    <path
      d="m7582 8943c77-59 147-145 190-235l33-68h3865v350h-4151l63-47z"
    />
    <path
      d="m6643 8776 c-94-30-180-101-221-183-22-43-35-97-57-233-34-208-29-197-88-216-29-9-96-36-150-60 l-99-43-159 114
        c-186 133-227 150-350 143-128-8-161-29-400-267-188-187-209-212-230-266-31-83-31-199 0-272 13-28 69-118 126-198
        l103-147-38-82 c-20-44-47-109-60-143-12-35-28-67-34-71-6-5-90-21-186-36-136-21-188-33-236-56-73-36-136-100-172-178
        l-27-57 v-630 l27-57 c33-72 93-137 158-172 48-26 99-38 406-91 26-4 33-12 43-47 7-23 33-88 57-145 l44-103-107-147
        c-135-187-156-235-151-352 5-140 23-168 267-412 186-187 212-209 266-229 81-31 189-32 265-2 30 12 119 67 197 122
        s146 100 152 100 c5 0 43-15 83-33 40-19 105-46 144-61 l71-27 32-190 c21-131 39-208 56-244 31-65 108-138 183-173
        l57-27 288-3 c324-4 361 1 454 64 105 71 135 135 177 378 l32 179 65 22 c35 12 103 39 150 59 l86 37 151-109
        c183-133 215-147 338-147 140 0 177 23 420 264 238 235 249 252 249 406 0 121-8 140-144 329-51 70-95 134-97 141-3 7 7 37 21 66 15 29 43 93 62 143
        s36 92 37 93 87 16 190 33 c218 35 270 55 346 136 95 100 95 101 95 474 v325 l-28 53
        c-39 75-100 137-162 167-36 18-112 37-236 59-101 19-184 37-186 42 s-28 70-59 144 c-30 74-58 142-61 151 s38 75 103 165
        c129 179 148 220 148 329 0 70-4 90-32 150 s-58 94-230 267
        c-211 213-248 240-355 258-68 11-152-1-211-30-22-11-102-63-176-115 s-142-95-151-95-50 15-90 34
        c-41 18-103 44-137 56-42 16-66 30-71 44-5 12-18 86-30 166-34 222-56 276-145 358-92 85-100 87-441 89-229 2-310-1-342-11 z
        m527-372
        c0-41 65-377 79-408 48-106 116-160 283-225 69-27 153-63 186-80 82-41 173-56 249-41 77 16 115 36 264 141 70 49 133 91 141 94 20 8 292-280 282-297-5-7-48-69-98-138-126-175-141-211-141-330 0-93 2-98 52-210 28-63 61-144 73-179 33-100 64-152 119-204 72-67 119-85 320-121
        l176-31 3-208
        c1-114 0-207-4-207-32 0-375-64-401-75-54-23-127-80-157-124-15-22-48-88-72-148-25-59-64-148-87-198-39-84-42-96-42-180 0-120 15-155 142-333
        l104-146-143-143 c-79-78-145-143-148-143 s-63 43-135 96
        c-153 113-228 151-312 160-73 8-140-7-237-51-39-18-111-47-160-64-120-42-181-77-226-128-60-68-80-124-114-313
        l-31-175-207-3-208-2-5 22
        c-3 13-16 93-30 179-26 165-43 217-93 286-42 56-106 98-220 143-54 21-137 57-187 81-77 37-101 43-171 47-123 7-165-10-343-133-83-59-155-105-159-103
        s-69 67-146 145 l-138 142 101 140
        c135 186 156 231 155 341 0 80-3 92-51 205-29 66-64 154-79 195-44 125-106 195-208 241-25 11-121 33-213 49-93 17-174 32-181 35-9 3-12 52-11 205 0 110 4 202 8 205 4 2 84 16 177 30 174 28 242 49 308 100 58 44 86 91 153 254 36 86 76 183 90 215 22 52 25 70 21 150-5 110-16 135-148 325
        l-93 133 290 290 145-104
        c79-57 166-113 194-125 107-46 199-39 343 26 47 21 127 53 176 70 111 40 161 68 208 120 64 70 84 126 117 313 17 95 32 179 35 186 3 9 53 12 205 12 110 0 200-2 200-6
        z"
    />
    <path
      d="m6860 7373
        c-283-22-547-146-751-353-418-424-453-1095-81-1562 343-430 945-566 1437-324 360 177 599 507 656 905 17 123 6 322-24 442-126 489-532 837-1038 889-56 5-113 9-128 8-14-1-46-3-71-5
        z m295-408
        c275-75 493-296 566-573 29-107 29-287 1-394-59-222-214-412-417-512-116-58-185-76-315-83-242-13-450 72-622 256-138 147-209 329-209 536 0 138 23 236 88 365 39 79 63 111 138 186 127 129 266 204 430 234 71 13 269 4 340-15
        z"
    />
    <path
      d="m9215 7991c47-65 100-183 115-253l11-58h2329v360h-2490l35-49z"
    />
    <path
      d="m9130 7076 c0-9 36-20 115-35 138-26 203-49 283-100 64-42 162-136 189-182 l17-29 h1935 l3 23 c2 12 2 93 0 180 l-3 157
        h-1269 c-1061 0-1270-2-1270-14 z"
    />
  </g>
</svg>
