<?xml version="1.0" standalone="no"?>
<!DOCTYPE svg PUBLIC "-//W3C//DTD SVG 20010904//EN"
 "http://www.w3.org/TR/2001/REC-SVG-20010904/DTD/svg10.dtd">
<svg version="1.0" xmlns="http://www.w3.org/2000/svg"
 width="320.000000pt" height="320.000000pt" viewBox="0 0 320.000000 320.000000"
 preserveAspectRatio="xMidYMid meet">

<g transform="translate(0.000000,320.000000) scale(0.100000,-0.100000)"
fill="#000000" stroke="none">
<path d="M1226 3014 c-19 -19 -22 -104 -4 -122 7 -7 21 -12 33 -12 33 0 45 20
45 77 0 41 -4 54 -19 63 -27 14 -37 13 -55 -6z"/>
<path d="M1595 2966 c-41 -18 -83 -69 -90 -109 -3 -18 -4 -463 -3 -989 3 -948
3 -957 24 -984 11 -15 33 -37 48 -48 27 -21 37 -21 666 -21 629 0 639 0 666
21 15 11 37 33 48 48 21 27 21 33 21 1011 0 978 0 984 -21 1011 -11 15 -33 37
-48 48 -27 21 -39 21 -654 23 -506 2 -633 0 -657 -11z m1267 -103 c16 -15 18
-35 18 -225 0 -125 -4 -217 -10 -229 -10 -18 -28 -19 -630 -19 -602 0 -620 1
-630 19 -6 12 -10 103 -10 227 0 179 2 210 17 226 15 17 48 18 621 18 549 0
607 -2 624 -17z m2 -689 c14 -14 16 -84 16 -621 0 -550 -2 -608 -17 -625 -15
-17 -48 -18 -621 -18 -549 0 -607 2 -624 17 -17 15 -18 48 -18 624 0 539 2
609 16 623 14 14 84 16 624 16 540 0 610 -2 624 -16z"/>
<path d="M1700 2635 l0 -145 540 0 540 0 0 145 0 145 -540 0 -540 0 0 -145z"/>
<path d="M1700 1945 l0 -145 145 0 145 0 0 145 0 145 -145 0 -145 0 0 -145z"/>
<path d="M2090 1945 l0 -145 150 0 150 0 0 145 0 145 -150 0 -150 0 0 -145z"/>
<path d="M2490 1945 l0 -145 145 0 145 0 0 145 0 145 -145 0 -145 0 0 -145z"/>
<path d="M1700 1550 l0 -150 145 0 145 0 0 150 0 150 -145 0 -145 0 0 -150z"/>
<path d="M2090 1550 l0 -151 148 3 147 3 3 148 3 147 -151 0 -150 0 0 -150z"/>
<path d="M2490 1355 l0 -345 145 0 145 0 0 345 0 345 -145 0 -145 0 0 -345z"/>
<path d="M2233 1302 l-143 -3 0 -144 0 -145 150 0 150 0 0 144 c0 80 -3 146
-7 148 -5 2 -72 2 -150 0z"/>
<path d="M1700 1155 l0 -145 145 0 145 0 0 145 0 145 -145 0 -145 0 0 -145z"/>
<path d="M1222 2768 c-9 -9 -12 -97 -12 -335 0 -318 0 -322 21 -334 27 -14 69
3 69 28 4 254 -3 629 -11 640 -14 16 -51 17 -67 1z"/>
<path d="M917 1844 c-4 -4 -7 -59 -7 -123 0 -64 -4 -121 -8 -128 -8 -13 -118
-63 -140 -63 -8 0 -55 39 -104 87 l-89 87 -99 -99 c-55 -55 -100 -104 -100
-110 0 -6 38 -48 85 -95 47 -47 85 -90 85 -96 0 -7 -13 -42 -30 -78 l-29 -66
-131 0 -130 0 0 -150 0 -150 124 0 c143 0 142 1 176 -89 l22 -60 -20 -28 c-11
-15 -50 -57 -86 -92 -36 -35 -66 -66 -66 -70 0 -3 45 -51 100 -106 l99 -99 89
87 c49 48 96 87 104 87 22 0 132 -50 140 -63 4 -7 8 -67 8 -135 l0 -123 148 3
147 3 3 128 3 128 65 30 c36 16 71 29 77 29 6 0 50 -38 98 -85 47 -47 90 -85
95 -85 5 0 54 45 109 100 l99 99 -87 89 c-48 49 -87 96 -87 105 0 8 -10 17
-23 21 -60 15 -146 123 -147 184 0 12 -4 22 -10 22 -5 0 -10 -8 -10 -18 0 -36
-53 -123 -101 -166 -73 -65 -143 -89 -249 -84 -98 5 -145 25 -217 91 -181 167
-119 480 113 566 66 25 171 28 235 6 94 -33 186 -126 215 -219 11 -36 13 -11
13 203 1 244 1 244 -19 226 -18 -16 -25 -17 -58 -6 -20 7 -53 20 -72 29 l-35
17 -5 130 -5 130 -141 3 c-77 1 -143 -1 -147 -4z m193 -144 l0 -50 -50 0 -50
0 0 50 0 50 50 0 50 0 0 -50z m-502 -173 l32 -33 -35 -34 -35 -34 -35 34 -35
34 32 33 c18 18 35 33 38 33 3 0 20 -15 38 -33z m-188 -517 l0 -50 -50 0 -50
0 0 50 0 50 50 0 50 0 0 -50z m188 -453 l32 -33 -35 -34 -35 -34 -35 34 -35
34 32 33 c18 18 35 33 38 33 3 0 20 -15 38 -33z m977 -67 c-36 -37 -44 -37
-80 0 l-29 30 34 35 34 35 35 -35 35 -35 -29 -30z m-475 -170 l0 -50 -50 0
-50 0 0 50 0 50 50 0 50 0 0 -50z"/>
<path d="M1025 1253 c-89 -21 -150 -66 -188 -137 -27 -53 -29 -156 -3 -206 59
-115 175 -169 291 -135 108 31 175 121 175 233 0 73 -15 114 -59 165 -50 56
-154 95 -216 80z"/>
<path d="M2010 600 c-24 -24 -25 -32 -2 -59 17 -21 19 -21 412 -19 l395 3 10
29 c8 24 6 31 -14 47 -22 18 -45 19 -402 19 -366 0 -380 -1 -399 -20z"/>
<path d="M2952 604 c-24 -17 -29 -53 -10 -72 7 -7 33 -12 59 -12 38 0 51 5 63
22 20 29 20 34 -4 58 -24 24 -77 26 -108 4z"/>
</g>
</svg>
