<svg xmlns="http://www.w3.org/2000/svg" width="60" height="60" viewBox="12 8 51 51">
  <g transform="translate(75 0) scale(-1 1) rotate(180 37.5 33.5)">
    <path d="M17.442 33.255c0-11.106 9.005-20.11 20.111-20.11s20.112 9.004 20.112 20.11c0 11.107-9.005 20.111-20.112 20.111S17.442 44.362 17.442 33.255Z" fill="#4a4a4a" />
    <path d="M18.048 28.055c2.109-8.307 10.119-14.91 19.427-14.91 8.964 0 16.556 5.867 19.152 13.968l-.125.003.089.058c-.593 1.334-3.073.978-5.932.622-5.648-.704-12.775-1.409-9.731 10.944.081 1.104-1.976 1.806-4.891 1.806-6.215 0-16.335-3.19-17.989-12.491Z" fill="#bfbfbf" />
  </g>
</svg>
