<svg
  width="800px"
  height="800px"
  viewBox="0 0 16 16"
  fill="#ffffff"
  class="bi bi-google"
  xmlns="http://www.w3.org/2000/svg"
>
  <path
    d="M15.545 6.558 a9.42 9.42 0 0 1 .139 1.626 c0 2.434-.87 4.492-2.384 5.885 h.002 C11.978 15.292 10.158 16 8 16
      A8 8 0 1 1 8 0 a7.689 7.689 0 0 1 5.352 2.082 l-2.284 2.284 A4.347 4.347 0 0 0 8 3.166 c-2.087 0-3.86 1.408-4.492 3.304
      a4.792 4.792 0 0 0 0 3.063 h.003 c.635 1.893 2.405 3.301 4.492 3.301 1.078 0 2.004-.276 2.722-.764 h-.003
      a3.702 3.702 0 0 0 1.599-2.431 H8 v-3.08 h7.545 z"
  />
</svg>
