<svg
  width="400"
  height="400"
  viewBox="0 0 400 400"
  fill="none"
  xmlns="http://www.w3.org/2000/svg"
>
  <g
    clip-path="url(#clip0_90_2172)"
  >
    <mask
      x="0"
      y="0"
      width="400"
      height="400"
      id="hh-cutout-mask"
      maskUnits="userSpaceOnUse"
    >
      <rect
        width="400"
        height="400"
        fill="#000"
      />
      <path
        d="m200 400
          c110.46 0 200-89.543 200-200 0-110.46-89.543-200-200-200-110.46 0-200 89.543-200 200 0 110.46 89.543 200 200 200 z"
        fill="#fff"
      />
      <path
        d="m299.58 170.89 c-6.2-6.26-15-9.66-25.74-9.66-13.36 0-23.6 5.3-29.5 15.26 v-49.36 h-30.96 v135.28 h30.96 v-47.56
          c0-11.08 2.32-18.18 5.8-22.36 3.38-4.16 8.12-5.78 13.26-5.78 4.54 0 8.12 1.42 10.64 3.98 2.52 2.66 3.96 6.72 3.96 12.4
          v59.2 h30.96 v-65.16 c0.02-11.08-3.28-20.08-9.38-26.24 z"
        fill="#000"
      />
      <path
        d="m160.34 161.23 c-13.36 0-23.6 5.3-29.5 15.26 v-49.36 h-30.96 v135.28 h30.96 v-47.56
          c0-11.08 2.32-18.18 5.8-22.36 3.38-4.16 8.12-5.78 13.26-5.78 4.54 0 8.12 1.42 10.64 3.98 2.52 2.66 3.96 6.72 3.96 12.4
          v59.2 h30.96 v-65.16 c0-11.08-3.28-20.08-9.48-26.34-6.1-6.24-14.9-9.56-25.64-9.56 z"
        fill="#000"
      />
    </mask>
    <path
      d="m200 400
        c110.46 0 200-89.543 200-200 0-110.46-89.543-200-200-200-110.46 0-200 89.543-200 200 0 110.46 89.543 200 200 200 z"
      fill="#fff"
      mask="url(#hh-cutout-mask)"
    />
  </g>
  <defs
  >
    <clipPath
      id="clip0_90_2172"
    >
      <rect
        width="400"
        height="400"
        fill="#fff"
      />
    </clipPath>
  </defs>
</svg>
