<svg
  width="800px"
  height="800px"
  viewBox="0 0 15 15"
  fill="#ffffff"
  xmlns="http://www.w3.org/2000/svg"
>
  <path
    d="m15 0 h-15 v15 h15 v-15 z m-7 8 c0-1.1046 0.89543-2 2-2 h1.1667 c1.0125 0 1.8333 0.82081 1.8333 1.8333 v0.16667 h-1
      v-0.16667 c0-0.46023-0.3731-0.83333-0.8333-0.83333 h-1.1667 c-0.55228 0-1 0.44772-1 1 s0.44772 1 1 1 h1
      c1.1046 0 2 0.89543 2 2 0 1.1046-0.8954 2-2 2 h-1 c-1.1046 0-2-0.8954-2-2 h1 c0 0.5523 0.44772 1 1 1 h1
      c0.5523 0 1-0.4477 1-1 s-0.4477-1-1-1 h-1 c-1.1046 0-2-0.89543-2-2 z m-2-2 v5 c0 0.5523-0.44772 1-1 1 s-1-0.4477-1-1 h-1
      c0 1.1046 0.89543 2 2 2 s2-0.8954 2-2 v-5 h-1 z"
    clip-rule="evenodd"
    fill-rule="evenodd"
  />
</svg>
