<svg
  width="800px"
  height="800px"
  viewBox="0 0 72 56"
  fill="#ffffff"
  id="Layer_1"
  xmlns="http://www.w3.org/2000/svg"
  space="preserve"
  version="1.1"
>
  <path
    d="m59.4 4.5 c-1.6-1.6-6.8 1.2-8.4 2.8 l-6.2 6.2 h-28.4 c-0.7 0-1.3 0.5-1.4 1.1-0.1 0.7 0.2 1.3 0.9 1.6 l18.8 7.4-11.6 11.5
      h-10.9 c-0.2 0-0.4 0.2-0.5 0.4 0 0.2 0.1 0.5 0.3 0.5 l9.2 3.6 c0.1 0.2 0.1 0.5 0.2 0.7 l-0.4 0.4 c-0.6 0.6-0.6 1.5 0 2.1
      s1.5 0.6 2.1 0 l0.4-0.4 c0.2 0.1 0.5 0.2 0.7 0.2 l3.5 9
      c0.1 0.2 0.3 0.3 0.5 0.3 0.1 0 0.2-0.1 0.3-0.1 0.1-0.1 0.1-0.2 0.1-0.3 v-10.6 l11.7-11.7 7.4 18.8
      c0.2 0.6 0.9 1 1.6 0.9 0.3-0.1 0.5-0.2 0.7-0.4 0.3-0.3 0.4-0.6 0.4-1 v-28.4 l6.2-6.2 c1.6-1.6 4.3-6.9 2.8-8.4 z"
  />
</svg>
