<svg
  width="192"
  height="192"
  viewBox="0 0 192.76 192.76"
  fill="#ffffff"
  xmlns="http://www.w3.org/2000/svg"
>
  <path
    d="m160.65 151.22
      c12.566-14.828 20.23-33.926 20.23-54.784 0-46.616-37.947-84.562-84.562-84.562-46.49 0-84.436 37.946-84.436 84.562 0 46.491 37.946 84.437 84.436 84.437 20.104 0 38.448-7.037 53.022-18.721
      l-68.727-69.234-20.353 20.354 v-53.275 h16.458 v17.465 l17.718-17.465 h19.224 l-21.614 21.487 68.604 69.736 z
      m-33.421 8.041 c-9.299 4.521-19.85 7.162-30.909 7.162-18.721 0-35.936-7.414-48.5-19.602 l33.675-33.549 45.734 45.989 z
      m-82.175-15.205 c-11.56-12.565-18.72-29.276-18.72-47.621 0-18.47 7.036-35.182 18.721-47.621 v95.242 h-1e-3 z
      m98.509-99.262 h-46.867 l-11.308 11.308 v-11.308 h-36.312
      c12.438-11.434 29.15-18.47 47.243-18.47 18.22 0 34.806 7.036 47.244 18.47 l3.268 3.015
      c12.062 12.691 19.604 29.779 19.604 48.626 0 11.687-2.891 22.616-8.043 32.417 l-46.113-46.49 34.553-34.553-3.269-3.015 z"
    fill="#fff"
    clip-rule="evenodd"
    fill-rule="evenodd"
  />
</svg>
