<svg
  width="800px"
  height="800px"
  viewBox="0 0 32 32"
  fill="#ffffff"
  id="Icons"
  xmlns="http://www.w3.org/2000/svg"
  version="1.1"
  xml:space="preserve"
>
  <defs
  >
    <mask
      id="learning-book-cutout"
    >
      <rect
        width="32"
        height="32"
      />
      <path
        d="m15 20v-10c0-1.7-1.3-3-3-3h-5c-0.6 0-1 0.4-1 1v8c0 0.6 0.4 1 1 1h5c1.7 0 3 1.3 3 3"
        fill="#000"
      />
      <path
        d="m17 20v-10c0-1.7 1.3-3 3-3h5c0.6 0 1 0.4 1 1v8c0 0.6-0.4 1-1 1h-5c-1.7 0-3 1.3-3 3"
        fill="#000"
      />
    </mask>
  </defs>
  <path
    d="m23 28c-1.1 0-2.1-0.7-2.5-1.8 0-0.1 0-0.2-0.1-0.2h-8.9c0 0.1 0 0.2-0.1 0.2-0.3 1.1-1.3 1.8-2.4 1.8-0.6 0-1 0.4-1 1s0.4 1 1 1h14c0.6 0 1-0.4 1-1s-0.4-1-1-1z"
  />
  <path
    d="m27 3h-22c-1.7 0-3 1.3-3 3v15c0 1.7 1.3 3 3 3h22c1.7 0 3-1.3 3-3v-15c0-1.7-1.3-3-3-3z"
    mask="url(#learning-book-cutout)"
  />
</svg>
