<svg
  width="487"
  height="487"
  viewBox="0 0 487 487"
  fill="#ffffff"
  xmlns="http://www.w3.org/2000/svg"
  version="1.0"
>
  <g
    fill="#fff"
    transform="translate(0 487) scale(.1 -.1)"
  >
    <path
      d="m2195 4240
        c-223-25-533-136-735-264-89-57-262-196-320-257-77-82-203-240-258-324-32-50-143-287-166-355-76-227-88-301-93-550-6-292 10-409 87-641 70-210 187-418 320-574 51-59 116-130 135-148 243-225 502-373 780-446 228-59 204-56 490-56 291 0 285-1 521 66 174 48 388 150 513 242 65 48 227 182 256 212 44 44 166 194 219 269 109 153 235 446 266 621 7 39 17 81 22 95 16 36 22 429 9 530-13 106-29 189-41 215-5 11-12 36-16 55-9 47-44 153-55 165-5 5-9 16-9 25 0 19-107 231-154 304-49 76-186 243-253 307-114 110-269 229-368 282-83 45-215 107-227 107-8 0-18 4-23 9-30 27-318 103-400 105
        l-40 1-16-55 c-8-30-18-62-21-70-4-8-23-69-43-135 s-50-160-65-210 c-16-49-47-151-70-225 s-46-144-50-155
        c-5-11-31-92-59-180-126-404-177-563-266-840-82-252-168-536-164-540 2-2 103 0 224 5 s411 9 645 11
        c234 1 445 2 470 3 45 1 45 1 54-39 4-22 11-47 14-55 2-8 6-22 7-30 s10-55 19-105
        c9-49 16-94 16-99 0-11-1826 6-1837 18-2 2 10 46 27 97 17 52 39 121 49 154 66 212 115 365 126 400 8 22 46 144 85 270 62 201 186 592 210 665 4 14 27 88 50 165
        s46 149 50 160 20 61 35 110 c15 50 40 128 56 175 74 228 128 401 134 434 4 20 11 39 16 42 s9 14 9 25
        c0 17-7 19-52 17-29 0-80-4-113-8 z m740-341
        c87-30 254-113 343-171 274-180 470-420 602-743 23-55 58-172 66-215 1-8 7-42 13-75 s14-127 17-210
        c7-161-10-334-42-437-40-131-70-209-112-293-55-111-168-285-185-285-8 0-18 25-25 63-16 85-35 180-80 397 l-38 185-89 6
        c-50 4-317 8-594 10-406 3-505 7-509 17-5 14-3 22 77 267 27 83 65 202 85 265 s41 124 46 135
        c4 11 20 61 35 110 44 145 95 305 120 375 13 36 56 166 95 290 s76 236 81 250 c22 64 29 80 32 80 1 0 30-9 62-21 z
        m-1028-31
        c-3-13-15-54-27-93-12-38-27-90-35-115-7-25-20-67-28-95-8-27-31-104-51-170-77-264-188-636-258-870-22-71-54-182-73-245-18-63-45-154-59-202-14-49-37-125-50-170-14-46-29-96-34-113-6-16-18-57-27-90
        s-21-71-25-85
        c-5-14-14-44-20-67-6-24-14-43-19-43-4 0-25 26-46 58-146 217-231 449-256 687-16 160-17 202-8 275 4 36 13 107 19 159 14 118 80 322 147 449 138 262 353 487 615 641 48 28 90 51 95 51 4 0 35 14 68 30 74 35 79 36 72 8
        z m1753-148 c0-5-5-10-11-10-5 0-7 5-4 10 3 6 8 10 11 10 2 0 4-4 4-10 z m70-70
        c0-5-4-10-10-10-5 0-10 5-10 10 0 6 5 10 10 10 6 0 10-4 10-10 z m-1153-392 c-3-8-6-5-6 6-1 11 2 17 5 13 3-3 4-12 1-19 z
        m-845-100 c-7-7-12-8-12-2 0 14 12 26 19 19 2-3-1-11-7-17 z m-732-48
        c0-5-5-10-11-10-5 0-7 5-4 10 3 6 8 10 11 10 2 0 4-4 4-10 z m2e3 -1865
        c241-3 396-8 398-14 4-12-147-114-252-170-76-40-198-89-313-125-113-35-383-56-539-43-253 23-509 116-730 265-49 33-98 69-108 81
        l-19 21 584-5 c321-3 762-7 979-10 z"
    />
  </g>
</svg>
