<svg
  width="800px"
  height="800px"
  viewBox="0 0 256 256"
  fill="#ffffff"
  id="Layer_1"
  xmlns="http://www.w3.org/2000/svg"
  baseProfile="tiny"
  space="preserve"
  version="1.2"
>
  <path
    d="m82.6 1.3 v13.1 h13 v52 l-3.3-3.3 c-4.5-4.5-10.4-6.8-16.4-6.8 h-41.5 c-12.7 0-22.9 10.3-22.9 22.9 v56.3 c0 4.5 3.6 8 8 8
      s8-3.6 8-8 v-51.6 c0-1.3 1.1-2.3 2.3-2.3 1.3 0 2.3 1.1 2.3 2.3 v140.1 c0 6.4 5.2 11.5 11.5 11.5 s11.5-5.2 11.5-11.5
      v-80.5 c0-1.3 1.1-2.3 2.3-2.3 1.3 0 2.3 1.1 2.3 2.3 v80.3 c0 6.4 5.2 11.5 11.5 11.5 s11.5-5.2 11.5-11.5 v-142.3
      c0-1.3 1.1-2.3 2.3-2.3 0.5 0 1.3 0.3 1.6 0.6 l9.1 9.1 v43.5 h143.3 v-118.1 h11 v-13 h-167.4 z m149.5 124.5 h-129.7 v-30
      l0.3 0.3 c0.6 0.5 1.5 1.1 2.5 1.5 s1.9 0.5 3.1 0.5 h36.5 c4.5 0 8-3.6 8-8 0-1.5-0.4-2.8-1.1-4 l21.3-29
      c0.5-0.9 0.4-2-0.4-2.6-0.8-0.5-2-0.4-2.6 0.4 l-20.8 28.7 c-1.3-0.8-2.7-1.3-4.3-1.3 h-33.4 l-9.2-9.2 v-55.1 h129.7
      l0.1 107.8 z m-174.9-110.9 c10.2 0 18.4 8.2 18.4 18.4 s-8.2 18.4-18.4 18.4-18.4-8.2-18.4-18.4 8.2-18.4 18.4-18.4 z
      m-51.9 224.9 h244.2 v13.5 h-244.2 v-13.5 z"
  />
</svg>
