<svg
  width="800px"
  height="800px"
  viewBox="0 -.5 17 17"
  fill="#ffffff"
  class="si-glyph si-glyph-mocule"
  xmlns="http://www.w3.org/2000/svg"
  version="1.1"
>
  <g
    fill="none"
    fill-rule="evenodd"
  >
    <path
      d="m17 9.935 v-3.849 c-0.043 0.027-0.076 0.068-0.117 0.099 l-2.193-2.229
        c0.165-0.287 0.267-0.615 0.267-0.97 0-1.081-0.876-1.956-1.954-1.956-1.08 0-1.954 0.875-1.954 1.956 0 0.363 0.104 0.699 0.278 0.991
        l-2.336 2.3 c-0.286-0.16-0.611-0.26-0.963-0.26-0.375 0-0.723 0.11-1.021 0.292 l-2.285-2.322
        c0.16-0.284 0.261-0.608 0.261-0.958 0-1.087-0.89-1.968-1.985-1.968-1.098 0-1.986 0.881-1.986 1.968 0 1.088 0.889 1.969 1.986 1.969 0.378 0 0.728-0.11 1.028-0.292
        l2.289 2.325 c-0.161 0.284-0.259 0.608-0.259 0.958 0 0.36 0.104 0.694 0.273 0.985 l-2.354 2.318
        c-0.286-0.158-0.611-0.257-0.963-0.257-1.088 0-1.971 0.868-1.971 1.94 s0.883 1.94 1.971 1.94 1.97-0.868 1.97-1.94
        c0-0.364-0.108-0.701-0.285-0.992 l2.337-2.301 c0.293 0.172 0.63 0.277 0.994 0.277 0.359 0 0.691-0.104 0.981-0.271
        l2.308 2.344
        c-0.168 0.286-0.271 0.613-0.271 0.968 0 1.071 0.874 1.938 1.954 1.938 1.078 0 1.954-0.867 1.954-1.938 0-0.364-0.108-0.701-0.284-0.992
        l2.205-2.182 c0.043 0.035 0.079 0.079 0.125 0.109 z m-4.973 1.395-2.307-2.343
        c0.173-0.294 0.279-0.632 0.279-0.998 0-0.374-0.109-0.72-0.291-1.018 l2.33-2.293
        c0.285 0.163 0.611 0.264 0.963 0.264 0.36 0 0.693-0.104 0.984-0.275 l2.262 2.297
        c-0.15 0.312-0.244 0.663-0.244 1.046 0 0.379 0.093 0.727 0.24 1.036 l-2.297 2.271
        c-0.281-0.156-0.602-0.253-0.947-0.253-0.355 0-0.685 0.102-0.972 0.266 z"
      fill="#fff"
      class="si-glyph-fill"
    />
  </g>
</svg>
