<svg
  width="480"
  height="294"
  viewBox="0 0 480 294"
  fill="#ffffff"
  xmlns="http://www.w3.org/2000/svg"
  version="1.0"
>
  <g
    fill="#fff"
    transform="translate(0 294) scale(.1 -.1)"
  >
    <path
      d="m2224 2560 c-167-19-321-72-363-127-18-22-21-40-21-132 v-107 l33-31
        c41-41 125-79 219-101 103-23 425-23 520 1 131 32 228 89 249 144 14 37 11 159-5 198-25 60-134 115-277 140-102 18-268 25-355 15
        z m330-84
        c102-33 151-84 127-130-31-56-183-106-326-106-96 0-216 23-267 52-121 68-88 142 84 188 60 17 95 19 203 16 79-3 149-10 179-20
        z"
    />
    <path
      d="m2824 1725 c-141-143-643-167-891-42-28 15-60 38-71 52 s-21 25-23 25
        c-10 0-1-158 10-178 51-95 288-160 550-149 209 8 368 54 436 126 28 30 30 38 32 122 2 49 2 88 0 87-1 0-20-20-43-43 z"
    />
    <path
      d="m2824 1725 c-141-143-643-167-891-42-28 15-60 38-71 52 s-21 25-23 25
        c-10 0-1-158 10-178 51-95 288-160 550-149 209 8 368 54 436 126 28 30 30 38 32 122 2 49 2 88 0 87-1 0-20-20-43-43 z"
      transform="translate(0 310)"
    />
    <path
      d="m2264 1074
        c-117-42-159-188-76-267 31-30 75-47 190-78 63-16 87-27 99-46 15-22 15-26-4-51-11-14-35-30-54-35-44-11-142 4-199 32-24 11-45 20-46 18-2-1-12-23-23-49
        l-20-47 42-20
        c63-30 142-44 226-39 116 7 185 50 211 131 16 51 5 100-32 142-30 35-45 41-220 90-74 20-99 51-74 90 33 50 107 58 207 25 34-12 62-20 64-18 1 2 9 23 19 47 20 51 18 53-58 76-62 19-198 18-252-1
        z"
    />
    <path
      d="m2878 1071
        c-180-72-246-267-148-438 34-60 92-104 171-129 30-10 74-35 99-57 71-62 115-81 190-81 51 0 75 5 109 24 25 14 46 30 48 36
        s-8 25-22 42 l-26 31-32-19
        c-18-11-47-20-65-20-31 0-82 24-82 40 0 4 18 15 40 25 56 25 109 80 137 142 22 47 24 65 21 136-4 95-23 142-81 200-59 59-116 80-222 84-71 3-100-1-137-16
        z m203-105
        c93-39 136-162 90-261-22-48-44-69-94-90-64-27-150-13-200 33-50 45-72 150-46 219 14 37 57 82 94 99 40 17 114 17 156 0 z"
    />
    <path
      d="m930 790 v-290 h130 v176 c0 99 4 174 9 172 s38-39 74-83 98-120 139-170 l74-90 114-6 v581 h-130
        l-2-176-3-176-144 176-143 176 h-118 v-290 z"
    />
    <path
      d="m3440 790v-290h430v99l-147 3-148 3-3 238-2 237h-130v-290z"
    />
    <path
      d="m1720 934
        c-93-40-140-112-140-211 1-109 62-188 169-220 102-29 218 4 274 80 85 113 50 275-72 339-44 23-65 28-125 28-40-1-86-7-106-16
        z m154-94 c38-14 66-66 66-123 0-40-5-53-33-84-28-30-40-36-76-36-81 0-121 43-121 131 0 93 77 146 164 112 z"
    />
  </g>
</svg>
