<?xml version="1.0" encoding="utf-8"?>
<svg width="800px" height="800px" viewBox="0 0 24 24" fill="none" xmlns="http://www.w3.org/2000/svg">
<path d="M13 11.5H20V13H13V11.5Z" fill="#1F2328"/>
<path d="M13 15H20V16.5H13V15Z" fill="#1F2328"/>
<path fill-rule="evenodd" clip-rule="evenodd" d="M7.3775 7.5C6.34059 7.5 5.5 8.34059 5.5 9.3775V10H4V9.3775C4 7.51216 5.51216 6 7.3775 6C9.24284 6 10.755 7.51216 10.755 9.3775C10.755 10.8005 9.87519 12.0163 8.63262 12.5139C8.46458 12.5812 8.32345 12.679 8.23352 12.78C8.14747 12.8766 8.1275 12.9514 8.1275 13.005L8.1275 15L6.6275 15L6.6275 13.005C6.6275 12.0022 7.44035 11.3755 8.07498 11.1214C8.76781 10.8439 9.255 10.1667 9.255 9.3775C9.255 8.34059 8.41441 7.5 7.3775 7.5Z" fill="#1F2328"/>
<path d="M8.3775 17C8.3775 17.5523 7.92978 18 7.3775 18C6.82522 18 6.3775 17.5523 6.3775 17C6.3775 16.4477 6.82522 16 7.3775 16C7.92978 16 8.3775 16.4477 8.3775 17Z" fill="#1F2328"/>
</svg>