<svg
  width="800px"
  height="800px"
  viewBox="0 0 24 24"
  fill="#ffffff"
  xmlns="http://www.w3.org/2000/svg"
>
  <path
    d="m13 11.5h7v1.5h-7v-1.5z"
    fill="#fff"
  />
  <path
    d="m13 15h7v1.5h-7v-1.5z"
    fill="#fff"
  />
  <path
    d="m7.3775 7.5 c-1.0369 0-1.8775 0.84059-1.8775 1.8775 v0.6225 h-1.5 v-0.6225 c0-1.8653 1.5122-3.3775 3.3775-3.3775
      s3.3775 1.5122 3.3775 3.3775
      c0 1.423-0.87981 2.6388-2.1224 3.1364-0.16804 0.0673-0.30917 0.1651-0.3991 0.2661-0.08605 0.0966-0.10602 0.1714-0.10602 0.225
      v1.995 h-1.5 v-1.995
      c0-1.0028 0.81285-1.6295 1.4475-1.8836 0.69283-0.2775 1.18-0.9547 1.18-1.7439 0-1.0369-0.84059-1.8775-1.8775-1.8775 z"
    fill="#fff"
    clip-rule="evenodd"
    fill-rule="evenodd"
  />
  <path
    d="m8.3775 17c0 0.5523-0.44772 1-1 1s-1-0.4477-1-1 0.44772-1 1-1 1 0.4477 1 1z"
    fill="#fff"
  />
</svg>
