<svg
  width="128"
  height="128"
  viewBox="0 0 128 128"
  fill="#ffffff"
  xmlns="http://www.w3.org/2000/svg"
  version="1.1"
>
  <path
    d="m29.094 11.234 c-3.1838 0-5.7188 2.5662-5.7188 5.75 v94.031 c0 3.1838 2.5349 5.75 5.7188 5.75 h69.812
      c3.1838 0 5.7188-2.5662 5.7188-5.75 v-70.656 h-21.031 c-4.3061 0-8.0625-3.1411-8.0625-7.3125 v-21.812 h-46.438 z
      m50.438 0 v21.812 c0 1.7141 1.632 3.3125 4.0625 3.3125 h21.031 l-25.094-25.125 z m-7.0312 32.656
      c0.85894 0 0.9375 0.27654 0.9375 1.25 s-0.04039 1.1875-0.9375 1.1875
      c-0.78259 0-0.96875-0.174-0.96875-0.9375 0-1.2407 0.10981-1.5 0.96875-1.5 z m-38.781 1.7812 h4.3438
      c2.6913 0 4.0312 1.06 4.0312 2.9688 0 0.97346-0.41015 1.7416-1.25 2.2188 1.3552 0.47719 2 1.3201 2 2.6562 0 0.97346-0.43616 1.8458-1.2188 2.4375-0.93529 0.68715-1.9294 0.78125-3.0938 0.78125
      h-4.875 c-0.43901 0-0.65625-0.24849-0.65625-0.6875 0-0.62988 0.36674-0.65625 1.1875-0.65625 h0.28125 v-8.375 h-0.28125
      c-0.80168 0-1.125-0.0767-1.125-0.6875 0-0.43901 0.23632-0.65625 0.65625-0.65625 z m2.25 1.3438 v3.4375 h1.9375
      c1.737 0 2.5938-0.53533 2.5938-1.7188 0-1.088-0.74901-1.7188-2.2188-1.7188 h-2.3125 z m13.562 0.84375
      c2.8249 0 4.5312 1.982 4.5312 4.0625 0 0.87803-0.35475 0.875-1.5 0.875 h-6.25
      c0.09544 1.7942 1.2284 2.8125 3.1562 2.8125 1.8897 0 3.0664-1.1562 3.9062-1.1562 0.36266 0 0.65625 0.25018 0.65625 0.59375 0 0.38175-0.22771 0.70152-0.78125 0.96875-1.2789 0.62989-2.6465 0.9375-3.9062 0.9375-2.8822 0-4.6875-1.7757-4.6875-4.5625 0-2.6722 1.9928-4.5312 4.875-4.5312
      z m35 0 c1.7751 0 3.0625 1.1556 3.0625 3.3125 v4.2188 h0.40625
      c0.59171 0 0.875 0.17906 0.875 0.65625 0 0.53445-0.30069 0.6875-0.96875 0.6875 h-2.0625
      c-0.66806 0-0.96875-0.0767-0.96875-0.6875 0-0.51536 0.30069-0.65625 0.96875-0.65625 h0.28125 v-3.875
      c0-1.4888-0.68465-2.2188-1.9062-2.2188-1.1262 0-2.4375 0.82536-2.4375 2.2188 v3.875 h0.4375
      c0.64897 0 0.875 0.14089 0.875 0.65625 0 0.62989-0.29376 0.6875-1 0.6875 h-2.1562
      c-0.53445 0-0.8125-0.24849-0.8125-0.6875 0-0.53445 0.33025-0.65625 1.0938-0.65625 h0.1875 v-5.9688 h-0.40625
      c-0.59171 0-0.875-0.17906-0.875-0.65625 0-0.64897 0.42231-0.65625 1.2812-0.65625 h0.875
      c0.36266 0 0.5625 0.14595 0.5625 0.375 v0.625 c0.89711-0.83985 1.714-1.25 2.6875-1.25 z m-24 0.21875
      c0.95437 0 1.8841 0.35626 2.7812 1.0625 v-0.65625 c0-0.26722 0.16859-0.375 0.53125-0.375 h1.4062
      c0.49628 0 0.71875 0.21724 0.71875 0.65625 0 0.53445-0.31116 0.65625-1.0938 0.65625 h-0.15625 v7
      c0 1.0498-9e-3 1.8684-0.5625 2.5938-0.68715 0.89711-1.9818 1.4062-3.7188 1.4062-1.3743 0-2.0625-0.23295-2.0625-0.84375 0-0.38175 0.37349-0.71875 0.8125-0.71875 0.55354 0 1.0662 0.125 1.5625 0.125 1.9469 0 2.5625-0.85341 2.5625-2.7812
      v-1.1562 c-0.7635 0.87802-1.6725 1.3125-2.875 1.3125-2.3096 0-4-1.7131-4-4.1562 0-2.405 1.8414-4.125 4.0938-4.125 z
      m9.4688 0.03125 h2.7188 c0.36266 0 0.53125 0.14595 0.53125 0.375 v6.9062 h3
      c0.47719 0 0.6875 0.19815 0.6875 0.65625 0 0.53445-0.19646 0.6875-0.75 0.6875 h-7.2188
      c-0.49628 0-0.75-0.24849-0.75-0.6875 s0.29714-0.65625 0.8125-0.65625 h2.8125 v-5.9688 h-1.7812
      c-0.51536 0-0.8125-0.21724-0.8125-0.65625 s0.25372-0.65625 0.75-0.65625 z m-20.469 1.0312
      c-1.6415 0-2.8248 0.89141-3.1875 2.4375 h6.0625 c-0.17179-1.4888-1.3671-2.4375-2.875-2.4375 z m11.094 0.34375
      c-1.6224 0-2.75 1.1154-2.75 2.7188 0 1.5652 1.1085 2.6875 2.75 2.6875 1.6224 0 2.7812-1.1032 2.7812-2.6875 0-1.5652-1.1397-2.7188-2.7812-2.7188
      z m-24.656 2.0938 v3.8125 h2.0625 c2.1378 0 3.1875-0.41743 3.1875-1.9062 0-1.527-1.0201-1.9062-3.0625-1.9062 h-2.1875 z
      m7.9688 9.0312 c0.95437 0 1.625 0.73668 1.625 1.8438 0 1.1071-0.65154 1.8125-1.625 1.8125 s-1.6875-0.70542-1.6875-1.8125
      c0-1.1071 0.73313-1.8438 1.6875-1.8438 z m-0.375 11.531
      c0.11065-0.02199 0.2557 0 0.375 0 0.95437 0 1.625 0.70542 1.625 1.8125 0 1.1071-0.65154 1.8438-1.625 1.8438
      s-1.6875-0.73668-1.6875-1.8438 c0-0.96869 0.53796-1.6585 1.3125-1.8125 z m0.375 11.469
      c0.95437 0 1.625 0.70543 1.625 1.8125
      s-0.65154 1.8438-1.625 1.8438-1.6875-0.73668-1.6875-1.8438 0.73313-1.8125 1.6875-1.8125 z m18.688 7.8438 h1.9062
      c0.36266 0 0.53125 0.10778 0.53125 0.375 v10.531 h0.40625
      c0.59171 0 0.875 0.17906 0.875 0.65625 0 0.41992-0.28666 0.65625-0.6875 0.65625 h-1.75
      c-0.28632 0-0.375-0.14427-0.375-0.46875 v-0.78125
      c-0.74441 0.93528-1.8705 1.4688-3.1875 1.4688-2.3478 0-4.1562-1.8225-4.1562-4.4375 0-2.4623 1.8867-4.4062 4.4062-4.4062 1.2789 0 2.3372 0.44664 3.0625 1.3438
      v-3.5938 h-0.5 c-0.87802 0-1.3125-0.04545-1.3125-0.65625 0-0.43901 0.28498-0.6875 0.78125-0.6875 z m-28.969 1.1562
      c0.14212-0.01512 0.28265 0 0.46875 0 h7.7188 c0.41992 0 0.65625 0.25372 0.65625 0.75 v2.1875
      c0 0.59171-0.14089 0.875-0.65625 0.875-0.49628 0-0.6875-0.27112-0.6875-0.84375 v-1.6563 h-4.9688 v3.1875 h2.4375 v-0.5
      c0-0.62989 0.14781-0.90625 0.625-0.90625 0.51536 0 0.5625 0.33025 0.5625 1.0938 v1.75
      c0 0.74441-9e-3 1.0938-0.5625 1.0938-0.49628 0-0.625-0.32333-0.625-1.125 v-0.28125 h-2.4375 v4.125 h4.9688 v-1.5312
      c0-0.78259 0.0767-1.0938 0.6875-1.0938 0.53445 0 0.65625 0.27636 0.65625 0.90626 v2.3438
      c0 0.43901-0.23633 0.6875-0.65625 0.6875 h-8.1563
      c-0.4581 0-0.6875-0.21724-0.6875-0.65625 0-0.59172 0.32333-0.65625 1.125-0.65625 h0.59375 v-8.4375 h-0.59375
      c-0.80167 0-1.125-0.03329-1.125-0.625 0-0.47242 0.2299-0.64213 0.65625-0.6875 z m16.594 2.2188
      c1.7751 0 3.0625 1.1556 3.0625 3.3125 v4.2188 h0.40625
      c0.59171 0 0.90625 0.17906 0.90625 0.65625 0 0.53444-0.33194 0.65625-1 0.65625 h-2.0625
      c-0.66806 0-0.96875-0.0455-0.96875-0.65625 0-0.51537 0.30069-0.65625 0.96875-0.65625 h0.3125 v-3.875
      c0-1.4888-0.68465-2.25-1.9062-2.25-1.1262 0-2.4375 0.85661-2.4375 2.25 v3.875
      c0.1527 0 0.29172-0.0312 0.40625-0.0312 0.64897 0 0.875 0.17213 0.875 0.6875 0 0.62989-0.29376 0.65625-1 0.65625
      h-2.1562 c-0.53445 0-0.8125-0.21724-0.8125-0.65625 0-0.53445 0.3615-0.65625 1.125-0.65625 h0.1875 v-5.9688 h-0.4375
      c-0.59171 0-0.875-0.21031-0.875-0.6875 0-0.64897 0.45356-0.65625 1.3125-0.65625 h0.875
      c0.36266 0 0.53125 0.14595 0.53125 0.375 v0.65625 c0.89711-0.83985 1.714-1.25 2.6875-1.25 z m10.469 1.5938
      c-1.756 0-2.9375 1.2423-2.9375 3.0938 0 1.756 1.2769 2.875 2.9375 2.875 1.7179 0 2.9688-1.2821 2.9688-3
      s-1.2318-2.9688-2.9688-2.9688 z m11.469 4.0625
      c0.12578-0.0212 0.23662 0 0.375 0 1.1071 0 1.8438 0.68278 1.8438 1.6562 0 0.97346-0.73668 1.6562-1.8438 1.6562
      s-1.8125-0.70188-1.8125-1.6562 c0-0.83508 0.55702-1.508 1.4375-1.6562 z"
  />
</svg>
