<svg
  width="800px"
  height="800px"
  viewBox="0 0 48 48"
  fill="#ffffff"
  xmlns="http://www.w3.org/2000/svg"
>
  <g
    id="Layer_2"
    data-name="Layer 2"
  >
    <g
      id="invisible_box"
      data-name="invisible box"
    >
      <rect
        width="48"
        height="48"
        fill="none"
      />
    </g>
    <g
      id="icons_Q2"
      data-name="icons Q2"
    >
      <path
        d="m40 30 a2 2 0 0 0-2 2 v1 h-16 a2 2 0 0 1 0-4 h4 a12 12 0 0 0 0-24 h-16 v-1 a2 2 0 0 0-4 0 v12 a2 2 0 0 0 4 0 v-1 h16
          a2 2 0 0 1 0 4 h-4 a12 12 0 0 0 0 24 h16 v1 a2 2 0 0 0 4 0 v-12 a2 2 0 0 0-2-2 z m-18 9 a8 8 0 0 1 0-16 h4
          a6 6 0 0 0 0-12 h-16 v-2 h16 a8 8 0 0 1 0 16 h-4 a6 6 0 0 0 0 12 h16 v2 z"
      />
    </g>
  </g>
</svg>
