<svg
  width="432.07pt"
  height="445.38pt"
  viewBox="0 0 432.07 445.38"
  fill="#ffffff"
  xmlns="http://www.w3.org/2000/svg"
  {http://www.w3.org/XML/1998/namespace}space="preserve"
>
  <g
    fill="none"
    stroke="#fff"
    stroke-width="12.465"
    id="Layer_x0020_3"
    stroke-linecap="round"
    stroke-linejoin="round"
  >
    <path
      d="m215.87 286.48c-1.385 49.516 0.348 99.377 5.193 111.5 4.848 12.118 15.223 35.688 50.9 28.045 29.806-6.39 40.651-18.756 45.357-46.051 3.466-20.082 10.148-75.854 11.005-87.281"
    />
    <path
      d="m173.1 38.256s-161.52-66.016-154.01 84.109c1.597 31.938 45.779 241.66 98.473 178.32 19.256-23.166 36.671-41.335 36.671-41.335"
    />
    <path
      d="m260.35 26.207c-5.591 1.753 89.848-34.889 144.09 34.417 19.159 24.484-3.043 124.52-56.153 203.33"
    />
    <path
      d="m348.28 263.95s3.461 17.036 53.764 6.653c22.04-4.552 8.776 12.774-13.577 23.155-18.345 8.514-59.474 10.696-60.146-1.069-1.729-30.355 21.647-21.133 19.96-28.739-1.525-6.85-11.979-13.573-18.894-30.338-6.037-14.633-82.796-126.85 21.287-110.18 3.813-0.789-27.146-99.002-124.55-100.6-97.385-1.597-94.19 119.76-94.19 119.76"
      stroke-linejoin="bevel"
    />
    <path
      d="m188.6 274.33c-13.577 15.166-9.584 17.829-36.723 23.417-27.459 5.66-11.326 15.733-0.797 18.365 12.768 3.195 42.307 7.718 62.266-20.229 6.078-8.509-0.036-22.086-8.385-25.547-4.034-1.671-9.428-3.765-16.361 3.994z"
    />
    <path
      d="m187.72 274.07c-1.368-8.917 2.93-19.528 7.536-31.942 6.922-18.626 22.893-37.255 10.117-96.339-9.523-44.029-73.396-9.163-73.436-3.193-0.039 5.968 2.889 30.26-1.067 58.548-5.162 36.913 23.488 68.132 56.479 64.938"
    />
    <path
      d="m172.52 141.7c-0.288 2.039 3.733 7.48 8.976 8.207 5.234 0.73 9.714-3.522 9.998-5.559 0.284-2.039-3.732-4.285-8.977-5.015-5.237-0.731-9.719 0.333-9.996 2.367z"
      fill="#fff"
      stroke-width="4.155"
      stroke-linecap="butt"
      stroke-linejoin="miter"
    />
    <path
      d="m331.94 137.54c0.284 2.039-3.732 7.48-8.976 8.207-5.238 0.73-9.718-3.522-10.005-5.559-0.277-2.039 3.74-4.285 8.979-5.015s9.718 0.333 10.002 2.368z"
      fill="#fff"
      stroke-width="2.0775"
      stroke-linecap="butt"
      stroke-linejoin="miter"
    />
    <path
      d="m350.68 123.43c0.863 15.994-3.445 26.888-3.988 43.914-0.804 24.748 11.799 53.074-7.191 81.435"
    />
    <path
      d="m0 60.232"
      stroke-width="3"
    />
  </g>
</svg>
