<svg
  width="800px"
  height="800px"
  viewBox="0 0 48 48"
  fill="none"
  xmlns="http://www.w3.org/2000/svg"
>
  <rect
    width="48"
    height="48"
    fill="#fff"
    fill-opacity=".01"
  />
  <path
    d="m13 35h-6v6"
    stroke="#fff"
    stroke-width="4"
    stroke-linecap="round"
    stroke-linejoin="round"
  />
  <path
    d="m41 41h-6v-6"
    stroke="#fff"
    stroke-width="4"
    stroke-linecap="round"
    stroke-linejoin="round"
  />
  <path
    d="m35 13h6v-6"
    stroke="#fff"
    stroke-width="4"
    stroke-linecap="round"
    stroke-linejoin="round"
  />
  <path
    d="m7 7h6v6"
    stroke="#fff"
    stroke-width="4"
    stroke-linecap="round"
    stroke-linejoin="round"
  />
  <path
    d="m13 7.294c-5.4222 3.5774-9 9.7238-9 16.706 0 1.0196 0.0763 2.0214 0.2235 3"
    stroke="#fff"
    stroke-width="4"
    stroke-linecap="round"
    stroke-linejoin="round"
  />
  <path
    d="m27 43.776c-0.9786 0.1472-1.9804 0.2235-3 0.2235-6.9821 0-13.128-3.5778-16.706-9"
    stroke="#fff"
    stroke-width="4"
    stroke-linecap="round"
    stroke-linejoin="round"
  />
  <path
    d="m43.776 21c0.1472 0.9786 0.2235 1.9804 0.2235 3 0 6.9821-3.5778 13.128-9 16.706"
    stroke="#fff"
    stroke-width="4"
    stroke-linecap="round"
    stroke-linejoin="round"
  />
  <path
    d="M21 4.2235C21.9786 4.0763 22.9804 4 24 4C30.9821 4 37.1285 7.57778 40.706 13"
    stroke="#fff"
    stroke-width="4"
    stroke-linecap="round"
    stroke-linejoin="round"
  />
</svg>
