<svg
  width="800px"
  height="800px"
  viewBox="0 0 16 16"
  fill="#ffffff"
  class="bi bi-sort-down"
  xmlns="http://www.w3.org/2000/svg"
>
  <path
    d="M3.5 2.5 a.5.5 0 0 0-1 0 v8.793 l-1.146-1.147 a.5.5 0 0 0-.708.708 l2 1.999.007.007 a.497.497 0 0 0 .7-.006 l2-2
      a.5.5 0 0 0-.707-.708 L3.5 11.293 V2.5 z m3.5 1 a.5.5 0 0 1 .5-.5 h7 a.5.5 0 0 1 0 1 h-7 a.5.5 0 0 1-.5-.5 z M7.5 6
      a.5.5 0 0 0 0 1 h5 a.5.5 0 0 0 0-1 h-5 z m0 3 a.5.5 0 0 0 0 1 h3 a.5.5 0 0 0 0-1 h-3 z m0 3 a.5.5 0 0 0 0 1 h1
      a.5.5 0 0 0 0-1 h-1 z"
  />
</svg>
