<?xml version="1.0" standalone="no"?>
<!DOCTYPE svg PUBLIC "-//W3C//DTD SVG 20010904//EN"
 "http://www.w3.org/TR/2001/REC-SVG-20010904/DTD/svg10.dtd">
<svg version="1.0" xmlns="http://www.w3.org/2000/svg"
 width="320.000000pt" height="320.000000pt" viewBox="0 0 320.000000 320.000000"
 preserveAspectRatio="xMidYMid meet">

<g transform="translate(0.000000,320.000000) scale(0.100000,-0.100000)"
fill="#000000" stroke="none">
<path d="M972 2750 c-18 -11 -41 -34 -52 -52 -19 -31 -20 -51 -20 -393 0 -493
-26 -459 352 -463 l258 -3 0 -140 0 -139 -525 0 -526 0 -24 -25 c-24 -24 -25
-28 -25 -180 l0 -155 85 0 85 0 0 95 0 95 467 -2 467 -3 -3 -92 -3 -93 91 0
91 0 0 95 0 95 465 0 465 0 0 -95 0 -95 85 0 85 0 0 154 c0 136 -2 156 -19
177 l-19 24 -531 5 -531 5 -3 137 -2 137 262 3 c378 4 353 -29 353 463 0 390
-1 397 -69 442 l-34 23 -596 0 c-577 0 -597 -1 -629 -20z m1096 -262 c7 -7 12
-31 12 -55 0 -32 -5 -45 -19 -53 -30 -15 -913 -14 -929 2 -16 16 -16 90 0 106
17 17 919 17 936 0z m0 -260 c7 -7 12 -31 12 -55 0 -32 -5 -45 -19 -53 -13 -6
-176 -10 -461 -10 -285 0 -448 4 -461 10 -14 8 -19 21 -19 53 0 24 5 48 12 55
17 17 919 17 936 0z"/>
<path d="M94 1040 c-12 -4 -31 -21 -43 -36 -20 -26 -21 -37 -21 -265 l0 -239
29 -32 29 -33 391 -3 c430 -3 435 -2 466 58 22 43 22 457 0 500 -31 59 -37 60
-452 59 -208 0 -388 -4 -399 -9z"/>
<path d="M1188 1032 c-52 -32 -58 -60 -58 -292 0 -175 3 -218 16 -246 30 -64
31 -64 459 -64 l385 0 38 34 37 34 0 235 c0 259 -3 274 -60 302 -28 13 -90 15
-412 15 -338 -1 -381 -2 -405 -18z"/>
<path d="M2298 1035 c-53 -30 -58 -53 -58 -295 0 -244 5 -266 60 -295 26 -14
84 -15 421 -13 l391 3 29 33 29 32 0 240 0 240 -29 32 -29 33 -394 2 c-334 2
-397 0 -420 -12z"/>
</g>
</svg>
