<svg
  width="320"
  height="320"
  viewBox="0 0 320 320"
  fill="#ffffff"
  xmlns="http://www.w3.org/2000/svg"
  version="1.0"
>
  <g
    fill="#fff"
    transform="translate(0 320) scale(.1 -.1)"
  >
    <path
      d="m972 2750 c-18-11-41-34-52-52-19-31-20-51-20-393 0-493-26-459 352-463 l258-3 v-279 h-1051 l-24-25 c-24-24-25-28-25-180
        v-155 h170 v190 l467-2 467-3-3-92-3-93 h182 v190 h930 v-190 h170 v154 c0 136-2 156-19 177
        l-19 24-1062 10-3 137-2 137 262 3 c378 4 353-29 353 463 0 390-1 397-69 442 l-34 23 h-596 c-577 0-597-1-629-20 z
        m1096-262 c7-7 12-31 12-55 0-32-5-45-19-53-30-15-913-14-929 2 s-16 90 0 106 c17 17 919 17 936 0 z m0-260
        c7-7 12-31 12-55 0-32-5-45-19-53-13-6-176-10-461-10 s-448 4-461 10 c-14 8-19 21-19 53 0 24 5 48 12 55 17 17 919 17 936 0
        z"
    />
    <path
      d="m94 1040 c-12-4-31-21-43-36-20-26-21-37-21-265 v-239 l29-32 29-33 391-3
        c430-3 435-2 466 58 22 43 22 457 0 500-31 59-37 60-452 59-208 0-388-4-399-9 z"
    />
    <path
      d="m1188 1032 c-52-32-58-60-58-292 0-175 3-218 16-246 30-64 31-64 459-64 h385 l38 34 37 34 v235
        c0 259-3 274-60 302-28 13-90 15-412 15-338-1-381-2-405-18 z"
    />
    <path
      d="m2298 1035 c-53-30-58-53-58-295 0-244 5-266 60-295 26-14 84-15 421-13 l391 3 29 33 29 32 v480 l-29 32-29 33-394 2
        c-334 2-397 0-420-12 z"
    />
  </g>
</svg>
