<svg
  width="800px"
  height="800px"
  viewBox="0 0 24 24"
  fill="none"
  xmlns="http://www.w3.org/2000/svg"
>
  <path
    d="m18 8 v7.3 c0 1.1201 0 1.6802-0.218 2.108-0.1917 0.3763-0.4977 0.6823-0.874 0.874-0.4278 0.218-0.9879 0.218-2.108 0.218
      h-2.8 m6-10.5 c1.3807 0 2.5-1.1193 2.5-2.5 s-1.1193-2.5-2.5-2.5-2.5 1.1193-2.5 2.5 1.1193 2.5 2.5 2.5 z m-6 10.5 2-2.5
      m-2 2.5 2 2.5 m-8-5 v-7.3
      c0-1.1201 0-1.6802 0.21799-2.108 0.19174-0.37633 0.4977-0.68229 0.87403-0.87403 0.42782-0.21799 0.98788-0.21799 2.108-0.21799
      h2.8 m-6 10.5 c-1.3807 0-2.5 1.1193-2.5 2.5 s1.1193 2.5 2.5 2.5 2.5-1.1193 2.5-2.5-1.1193-2.5-2.5-2.5 z m6-10.5-2 2.5
      m2-2.5-2-2.5"
    stroke="#fff"
    stroke-width="1.5"
    stroke-linecap="round"
    stroke-linejoin="round"
  />
</svg>
