<svg
  width="700"
  height="700"
  viewBox="0 0 700 700"
  fill="#ffffff"
  id="Layer_1"
  xmlns="http://www.w3.org/2000/svg"
  enable-background="new 0 0 700 700"
  version="1.1"
  xml:space="preserve"
>
  <style
    type="text/css"
  >
    .st0{fill:#FFFFFF;}
  </style>
  <path
    d="M193.6,38.6h21.9v21.9h-21.9V38.6z"
    class="st0"
  />
  <path
    d="M148.7,38.6h21.9v21.9h-21.9V38.6z"
    class="st0"
  />
  <path
    d="M238.4,38.6h21.9v21.9h-21.9V38.6z"
    class="st0"
  />
  <path
    d="m339.2 306.9c5.5-1.1 9.9-5.5 9.9-11v-48.2c0-5.5-4.4-9.9-9.9-11l-28.5-3.3c-1.1-3.3-3.3-7.7-4.4-11l17.5-21.9c3.3-4.4 3.3-11-1.1-14.2l-34-34c-4.4-4.4-9.9-4.4-14.2-1.1l-21.9 17.5c-3.3-2.2-6.6-3.3-11-4.4l-2.2-27.4c-1.1-5.5-5.5-9.9-11-9.9h-48.2c-5.5 0-9.9 4.4-11 9.9l-3.3 28.5c-3.3 1.1-7.7 3.3-11 4.4l-21.9-17.5c-4.4-3.3-11-3.3-14.2 1.1l-34 34c-4.4 4.4-4.4 9.9-1.1 14.2l17.5 21.9c-2.2 3.3-3.3 6.6-4.4 11l-28.5 3.3c-5.5 1.1-9.9 5.5-9.9 11v48.2c0 5.5 4.4 9.9 9.9 11l28.5 3.3c1.1 3.3 3.3 7.7 4.4 11l-17.2 21.8c-3.3 4.4-3.3 11 1.1 14.2l34 34c4.4 4.4 9.9 4.4 14.2 1.1l21.9-17.5c3.3 2.2 6.6 3.3 11 4.4l3.3 28.5c1.1 5.5 5.5 9.9 11 9.9h48.2c5.5 0 9.9-4.4 11-9.9l3.3-28.5c3.3-1.1 7.7-3.3 11-4.4l21.9 17.5c4.4 3.3 11 3.3 14.2-1.1l34-34c4.4-4.4 4.4-9.9 1.1-14.2l-17.5-21.9c2.2-3.3 3.3-6.6 4.4-11l27.1-4.3zm-37.2-17.6c-4.4 0-7.7 3.3-9.9 7.7-2.2 6.6-4.4 13.1-7.7 19.7-2.2 4.4-2.2 8.8 1.1 12l16.4 19.7-19.7 19.7-20.8-15.3c-3.3-3.3-8.8-3.3-12-1.1-6.6 3.3-13.1 6.6-19.7 7.7-4.4 1.1-7.7 4.4-7.7 9.9l-3.3 25.2h-28.5l-3.3-25.2c0-4.4-3.3-7.7-7.7-9.9-6.6-2.2-13.1-4.4-19.7-7.7-4.4-2.2-8.8-2.2-12 1.1l-19.7 16.4-19.7-19.7 16.4-19.7c3.3-3.3 3.3-8.8 1.1-12-3.3-6.6-6.6-13.1-7.7-19.7-1.1-4.4-4.4-7.7-9.9-7.7l-25.2-3.3v-28.5l25.2-3.3c4.4 0 7.7-3.3 9.9-7.7 2.2-6.6 4.4-13.1 7.7-19.7 2.2-4.4 2.2-8.8-1.1-12l-16.4-20.8 19.7-19.7 19.7 16.4c3.3 3.3 8.8 3.3 12 1.1 6.6-3.3 13.1-6.6 19.7-7.7 4.4-1.1 7.7-4.4 7.7-9.9l3.3-25.2h28.5l3.3 25.2c0 4.4 3.3 7.7 7.7 9.9 6.6 2.2 13.1 4.4 19.7 7.7 4.4 2.2 8.8 2.2 12-1.1l19.7-16.4 19.7 19.7-16.4 19.7c-3.3 3.3-3.3 8.8-1.1 12 3.3 6.6 6.6 13.1 7.7 19.7 1.1 4.4 4.4 7.7 9.9 7.7l25.2 3.3v28.5l-24.1 3.3z"
    class="st0"
  />
  <path
    d="m204.5 199.6c-39.4 0-72.3 32.9-72.3 72.3s32.9 72.3 72.3 72.3 72.3-32.9 72.3-72.3-31.8-72.3-72.3-72.3zm0 123.7c-27.4 0-50.4-23-50.4-50.4s23-50.4 50.4-50.4 50.4 23 50.4 50.4-21.9 50.4-50.4 50.4z"
    class="st0"
  />
  <path
    d="m193.6 452.5h-122.7c-6.6 0-11 4.4-11 11s4.4 11 11 11h122.7c6.6 0 11-4.4 11-11-0.1-5.5-4.5-11-11-11z"
    class="st0"
  />
  <path
    d="m193.6 508.4h-122.7c-6.6 0-11 4.4-11 11s4.4 11 11 11h122.7c6.6 0 11-4.4 11-11-0.1-5.6-4.5-11-11-11z"
    class="st0"
  />
  <path
    d="m193.6 564.2h-122.7c-6.6 0-11 4.4-11 11s4.4 11 11 11h122.7c6.6 0 11-4.4 11-11-0.1-5.5-4.5-11-11-11z"
    class="st0"
  />
  <path
    d="m691.8 362.7-39.4-36.1c-84.3-74.5-257.3-231.1-242-212.5v-46c0-12-9.9-21.9-21.9-21.9h-65.7v-25.2c0-12-9.9-21.9-21.9-21.9h-191.7c-12 0-21.9 9.9-21.9 21.9v24.1h-65.7c-12 0-21.9 9.9-21.9 21.9v554.1c0 12 9.9 21.9 21.9 21.9h225.6v46c0 6.6 4.4 11 11 11h320.8c6.6 0 11-4.4 11-11v-131.4c0-42.7-35-77.8-77.8-77.8h-28.5c-3.3 0-5.5 1.1-7.7 3.3l-56.9 56.9-56.9-56.9c-2.2-2.2-4.4-3.3-7.7-3.3h-28.5c-42.7 0-77.8 35-77.8 77.8v64.6h-225.5v-554.1h65.7v11c0 12 9.9 21.9 21.9 21.9h191.7c12 0 21.9-9.9 21.9-21.9v-11h65.7v43.8l-44.9-5.5c-7.7-1.1-13.1 6.6-12 13.1 5.5 20.8 15.3 64.6 16.4 67.9 2.2 4.4 1.1 2.2 40.5 38.3v95.3c-29.6 12-50.4 40.5-50.4 74.5 0 44.9 36.1 81 81 81s81-36.1 81-81-36.1-81-81-81h-8.8v-70.1l213.6 192.8c8.8 7.7 23 7.7 30.7-2.2l37.2-41.6c4.4-4.4 5.5-9.9 5.5-16.4 0-5.5-2.2-11-6.6-14.3zm-422.7 194.9c0-30.7 25.2-55.8 55.8-55.8h24.1l62.4 62.4c2.2 2.2 4.4 3.3 7.7 3.3s5.5-1.1 7.7-3.3l62.4-62.4h24.1c30.7 0 55.8 25.2 55.8 55.8v120.5h-47.1v-89.8c0-6.6-4.4-11-11-11s-11 4.4-11 11v89.8h-161.9v-89.8c0-6.6-4.4-11-11-11s-11 4.4-11 11v89.8h-47.1l0.1-120.5zm-159.9-478.5v-58.1h191.6v58l-191.6 0.1zm368 316.5c0 32.9-26.3 59.1-59.1 59.1s-59.1-26.3-59.1-59.1 26.3-59.1 59.1-59.1c32.8-0.1 59.1 26.2 59.1 59.1zm-104.1-213.6 37.2-41.6 217.9 194.9-37.1 41.7-218-195zm14.3-48.2-24.1 26.3-7.7-30.7 31.8 4.4zm251.8 287-31.8-28.5 37.2-41.6 31.8 28.5-37.2 41.6z"
    class="st0"
  />
</svg>
