<svg
  width="800px"
  height="800px"
  viewBox="0 0 64 64"
  fill="#ffffff"
  xmlns="http://www.w3.org/2000/svg"
>
  <g
    id="Market_Analysis"
    data-name="Market Analysis"
  >
    <path
      d="M53.26,14.83 l2,.52-8.72,8.72 A2.09,2.09,0,0,0,46,24 a2,2,0,0,0-1.72,1 H31.72 A2,2,0,0,0,30,24
        a2,2,0,0,0-2,2,2.09, 2.09,0,0,0,.07.51 l-10,10 A7,7,0,0,0,14,35.11 V21 H49 V19 H13 a1,1,0,0,0-1,1 V35.37
        A7,7,0,0,0,6.9,42.1 a7,7,0,0,0,1.4, 4.19 l-5,5,1.42,1.42,5-5 A7,7,0,0,0,18.85,47 a7.18,7.18,0,0,0,1.42-2 H51
        a1,1,0,0,0,1-1 V24 H50 V43 H20.84 c0-.3.06-.6.06-.9 a7, 7,0,0,0-1.4-4.19 l10-10 A2.09,2.09,0,0,0,30,28 a2,2,0,0,0,1.72-1
        H44.28 A2,2,0,0,0,46,28 a2,2,0,0,0,2-2,2.09,2.09,0,0, 0-.07-.51 l8.72-8.72.52,2 L60,12 Z M17.5,40.5
        a2,2,0,1,1-2-2,2.09,2.09,0,0,1,.51.07 l.65-.64 a5.59,5.59,0,0,1,1.41, 1.41 l-.64.65 A2.09,2.09,0,0,1,17.5,40.5 Z"
    />
    <rect
      x="26"
      y="37"
      width="2"
      height="4"
    />
    <rect
      x="30"
      y="35"
      width="2"
      height="6"
    />
    <rect
      x="34"
      y="36"
      width="2"
      height="5"
    />
    <rect
      x="38"
      y="34"
      width="2"
      height="7"
    />
    <rect
      x="42"
      y="35"
      width="2"
      height="6"
    />
    <rect
      x="46"
      y="32"
      width="2"
      height="9"
    />
  </g>
</svg>
