<svg
  width="800px"
  height="800px"
  viewBox="0 0 24 24"
  fill="#ffffff"
  id="XMLID_223_"
  xmlns="http://www.w3.org/2000/svg"
  space="preserve"
  version="1.1"
>
  <g
    id="optimization"
  >
    <path
      d="m17 24 v-13 h6 v13 h-6 z m2-11 v9 h2 v-9 h-2 z m-4 11 h-6 v-8 h6 v8 z m-4-2 h2 v-4 h-2 v4 z m-4 2 h-6 v-6 h6 v6 z m-4-2
        h2 v-2 h-2 v2 z m-2-6 v-2 c7.8 0 12.8-3.4 16.1-10.9 l-4.3 1.7-0.8-1.9 7.5-2.9 3 7.2-1.9 0.8-1.7-4.2
        c-3.6 8.3-9.3 12.2-17.9 12.2 z"
    />
  </g>
</svg>
