<svg
  width="200"
  height="200"
  viewBox="0 0 200 200"
  fill="#ffffff"
  xmlns="http://www.w3.org/2000/svg"
  version="1.0"
>
  <g
    fill="#fff"
    transform="translate(0 200) scale(.1 -.1)"
  >
    <path
      d="m827 1984 c-361-65-659-323-776-671-22-65-51-216-51-264 v-29 h257 l7 68 c8 82 52 213 97 289 112 187 321 326 537 356
        l82 11 v256 l-37-1 c-21 0-73-7-116-15 z"
    />
    <path
      d="m1020 1873v-130l67-7c126-13 265-71 372-156l48-38 185 185-64 50c-163 128-338 199-539 219l-69 7v-130z"
    />
    <path
      d="m1632 1597 c-92-92-93-93-73-111 33-30 99-137 127-206 101-250 53-560-118-756 l-27-30 92-92 93-92 36 43
        c99 119 172 262 211 417 30 121 30 339 0 460-39 154-122 316-219 428 l-29 33-93-94 z"
    />
    <path
      d="m1191 1446c-8-9-10-129-9-422l3-409h240l3 414c2 325 0 416-10 423-23 14-214 10-227-6z"
    />
    <path
      d="m855 1218c-3-7-4-146-3-308l3-295h240v610l-118 3c-89 2-119-1-122-10z"
    />
    <path
      d="m525 997c-3-7-4-96-3-197l3-185h240v390l-118 3c-90 2-119 0-122-11z"
    />
    <path
      d="m4 908 c42-420 336-766 744-875 133-36 353-38 482-6 155 40 298 112 417 211 l43 36-182 184-64-49
        c-139-105-260-144-454-143-125 0-141 2-223 31-113 40-184 83-270 163-127 118-207 270-230 438 l-11 82 h-259 l7-72 z"
    />
  </g>
</svg>
