<svg
  width="550"
  height="550"
  viewBox="0 0 550 550"
  fill="#ffffff"
  xmlns="http://www.w3.org/2000/svg"
  version="1.0"
>
  <g
    transform="translate(0 550) scale(.1 -.1)"
  >
    <path
      d="m285 4863 c-38-10-65-36-75-72-8-25-10-550-8-1674 l3-1639 33-29 32-29 h4297 l39 29
        c67 50 692 684 703 714 15 40 15 2592 0 2635-6 17-23 39-37 49-26 17-128 18-2497 19-1359 1-2479 0-2490-3 z m4825-1377
        v-1175 l-302-3 c-332-3-334-4-363-64-12-26-15-85-15-323 v-291 h-4020 v3030 h4700 v-1174 z m-150-1389 c0-1-72-74-160-162
        l-160-160 v325 h160 c88 0 160-1 160-3 z"
    />
    <path
      d="m758 4361-33-29-3-329 c-3-373 0-396 58-425 30-16 67-18 278-18 h242 v-246 c0-255 3-273 44-306 19-16 62-18 509-18 h487
        l1-367 c0-258 4-379 12-403 20-58 58-70 218-70 h137 l4-75 c3-66 7-78 31-102 l27-28 h1130 l27 28 28 27 v610 l-28 27-27 28
        h-1132 l-29-33 c-29-32-29-34-29-152 v-120 h-160 v630 h160 v-65 c0-35 5-76 12-90 25-55 21-55 613-55 s588 0 613 55
        c8 18 12 111 12 308 0 262-1 284-20 314-13 21-31 35-57 42-50 14-1044 15-1094 1-66-18-74-36-77-181 l-4-129 h-158 v680 h160
        v-87
        c0-102 12-131 60-155 32-16 80-18 555-18 334 0 534 4 558 11 26 7 44 21 57 42 19 30 20 52 20 310 0 304-5 332-56 356-18 8-184 11-570 11-591 0-587 0-612-55-7-14-12-66-12-115
        v-90 h-142 c-161 0-184-7-210-60-16-32-18-74-18-433 v-397 l-417 2-418 3-1 183 v182 h292
        c161 0 304 4 317 9 14 6 35 20 46 32 21 22 21 31 21 377 v354 l-58 58 h-1332 l-32-29 z m1222-381 v-210 h-1050 v420 h1050
        v-210 z m1770 0 v-160 h-835 l2 157 c1 87 3 159 3 161 0 1 187 2 415 2 h415 v-160 z m0-840 v-160 h-413 c-228 0-416 2-418 4
        s-3 74-1 160 l3 156 h829 v-160 z m0-835 v-155 h-835 v310 h835 v-155 z"
    />
    <path
      d="m4170 4240v-100h260v200h-260v-100z"
    />
    <path
      d="m4590 4240v-100h260v200h-260v-100z"
    />
    <path
      d="m4170 3925v-105h260v210h-260v-105z"
    />
    <path
      d="m4590 3925v-105h260v210h-260v-105z"
    />
    <path
      d="m4170 3614v-104h260v205l-260 4v-105z"
    />
    <path
      d="m4590 3613v-103h260v211l-260-6v-102z"
    />
    <path
      d="m4170 3298v-103h260v205h-260v-102z"
    />
    <path
      d="m4590 3298v-103h260v205h-260v-102z"
    />
    <path
      d="m720 2620v-100h785v200h-785v-100z"
    />
    <path
      d="m1610 2620v-100h210v200h-210v-100z"
    />
    <path
      d="m720 2305v-105h390c305 0 390 3 391 13 1 6 2 54 3 104l1 93h-785v-105z"
    />
    <path
      d="m727 2093c-4-3-7-51-7-105v-98h1360v210h-673c-371 0-677-3-680-7z"
    />
    <path
      d="m265 1251 c-11-5-29-19-40-31-18-20-20-39-23-234-4-250 0-290 35-322 l26-24 h4352 l333 111
        c366 122 368 123 366 201-2 70-16 77-378 198 l-331 110-2160-1 c-1188 0-2169-4-2180-8 z m565-306 v-105 h-420 v210 h420
        v-105 z m3660 0 v-105 l-1727 2-1728 3-3 103-3 102 h3461 v-105 z m295 39 c44-15 83-29 87-33 s-35-21-87-38 l-95-31 v64
        c0 35 3 64 7 64 5 0 44-12 88-26 z"
    />
  </g>
</svg>
