<svg
  width="800px"
  height="800px"
  viewBox="0 0 512 512"
  fill="#ffffff"
  id="Management"
  xmlns="http://www.w3.org/2000/svg"
  enable-background="new 0 0 512 512"
  space="preserve"
  version="1.1"
>
  <path
    d="m182.92 264.71
      c-39.745 0-72.08 32.336-72.08 72.08 0 39.745 32.335 72.079 72.08 72.079 39.744 0 72.08-32.334 72.08-72.079 0-14.443-4.259-28.381-12.314-40.306-2.095-3.099-6.305-3.915-9.406-1.821-3.1 2.096-3.916 6.306-1.821 9.406 6.538 9.677 9.993 20.99 9.993 32.721 0 32.274-26.257 58.531-58.531 58.531-32.275 0-58.531-26.257-58.531-58.531
      s26.256-58.531 58.531-58.531 c3.741 0 6.774-3.033 6.774-6.773-1e-3 -3.743-3.034-6.776-6.775-6.776 z"
  />
  <path
    d="m308.15 401.06-17.715-17.717
      c-1.592-1.592-2.026-4.051-1.151-6.156 0.018-0.039 0.101-0.234 0.116-0.273 0.914-2.206 2.956-3.632 5.203-3.632 h25.054
      c3.74 0 6.774-3.033 6.774-6.774 v-67.184 c0-3.741-3.034-6.774-6.774-6.774 h-25.054
      c-2.247 0-4.289-1.426-5.273-3.798-0.921-2.213-0.486-4.672 1.105-6.266 l17.715-17.715 c2.646-2.645 2.646-6.934 0-9.58
      l-47.505-47.505 c-2.646-2.645-6.935-2.645-9.581 0-2.646 2.646-2.646 6.935 0 9.581 l42.717 42.715-12.925 12.924
      c-5.487 5.486-7.071 13.748-3.973 21.195 3.017 7.287 9.972 11.997 17.72 11.997 h18.279 v53.635 h-18.279
      c-7.748 0-14.703 4.71-17.671 11.88-0.015 0.035-0.097 0.228-0.111 0.264-3.038 7.299-1.454 15.563 4.035 21.047
      l12.925 12.926-37.926 37.926-12.925-12.926
      c-5.488-5.488-13.751-7.071-21.194-3.973-7.288 3.018-11.998 9.975-11.998 17.721 v18.279 h-53.634 v-18.28
      c0-7.747-4.709-14.703-12.144-17.781-7.299-3.036-15.56-1.453-21.048 4.033 l-12.925 12.926-37.925-37.926 12.925-12.926
      c5.486-5.488 7.07-13.75 3.973-21.193-3.019-7.287-9.975-11.997-17.72-11.997 h-18.278 v-53.635 h18.279
      c7.746 0 14.702-4.71 17.781-12.144 3.035-7.299 1.452-15.561-4.034-21.049 l-12.925-12.924 37.925-37.925 12.925 12.924
      c5.486 5.488 13.747 7.072 21.194 3.974 7.288-3.019 11.997-9.975 11.997-17.72 v-18.279 h53.634 v18.279
      c0 7.747 4.71 14.703 11.998 17.72 2.442 1.012 4.884 2.138 7.255 3.346 3.33 1.697 7.411 0.373 9.111-2.961 1.698-3.333 0.373-7.412-2.961-9.111-2.686-1.369-5.452-2.644-8.222-3.792-2.207-0.914-3.633-2.956-3.633-5.203
      v-25.054 c0-3.742-3.033-6.774-6.774-6.774 h-67.182 c-3.741 0-6.774 3.032-6.774 6.774 v25.054
      c0 2.247-1.426 4.289-3.799 5.272-2.211 0.922-4.671 0.488-6.263-1.105 l-17.715-17.715 c-2.646-2.645-6.936-2.645-9.581 0
      l-47.506 47.505 c-2.646 2.646-2.646 6.936 0 9.582 l17.715 17.713
      c1.593 1.594 2.026 4.053 1.128 6.213-9e-3 0.021-0.082 0.197-0.092 0.218-0.914 2.207-2.956 3.633-5.202 3.633 h-25.053
      c-3.741 0-6.774 3.033-6.774 6.774 v67.184 c0 3.741 3.033 6.774 6.774 6.774 h25.054
      c2.246 0 4.288 1.426 5.272 3.798 0.92 2.213 0.486 4.672-1.106 6.264 l-17.715 17.715 c-2.646 2.646-2.646 6.936 0 9.582
      l47.506 47.505 c2.646 2.645 6.935 2.645 9.581 0 l17.715-17.716
      c1.592-1.594 4.051-2.023 6.211-1.127 0.021 9e-3 0.197 0.082 0.218 0.092 2.207 0.914 3.633 2.956 3.633 5.203 v25.053
      c0 3.742 3.033 6.774 6.774 6.774 h67.183 c3.741 0 6.774-3.032 6.774-6.774 v-25.053
      c0-2.248 1.426-4.29 3.557-5.174 0.029-0.012 0.215-0.088 0.243-0.1 2.212-0.921 4.672-0.485 6.263 1.105 l17.715 17.715
      c1.271 1.271 2.994 1.984 4.791 1.984 1.796 0 3.519-0.713 4.79-1.983 l47.505-47.505 c2.644-2.646 2.644-6.935-2e-3 -9.579
      z"
  />
  <path
    d="m377.93 312.51 c0 24.05 19.566 43.617 43.618 43.617 s43.618-19.567 43.618-43.617 c0-24.051-19.566-43.619-43.618-43.619
      s-43.618 19.568-43.618 43.619 z m73.687 0 c0 16.58-13.489 30.069-30.069 30.069 s-30.07-13.489-30.07-30.069
      c0-16.582 13.49-30.07 30.07-30.07 s30.069 13.488 30.069 30.07 z"
  />
  <path
    d="m465.81 443.78 c3.74 0 6.774-3.032 6.774-6.773 v-16.967 c0-28.145-22.897-51.042-51.043-51.042
      s-51.043 22.897-51.043 51.042 v43.62 h-82.472 c-3.74 0-6.774 3.032-6.774 6.774 0 3.741 3.034 6.773 6.774 6.773 h88.918
      c0.111 6e-3 0.216 0.033 0.328 0.033 h88.537 c3.74 0 6.774-3.033 6.774-6.773 0-3.742-3.034-6.775-6.774-6.775 h-81.762
      v-43.652 c0-20.674 16.82-37.494 37.494-37.494 s37.494 16.82 37.494 37.494 v16.967 c0 3.741 3.034 6.773 6.775 6.773 z"
  />
  <path
    d="m93.609 185.17 c3.741 0 6.774-3.033 6.774-6.774 v-113.91 h44.934
      c3.741 0 6.774-3.032 6.774-6.774 0-3.741-3.033-6.774-6.774-6.774 h-51.708 c-3.741 0-6.774 3.033-6.774 6.774 v120.68
      c0 3.742 3.033 6.774 6.774 6.774 z"
  />
  <path
    d="m375.44 64.49 h45.933 v163.94 c0 3.742 3.033 6.774 6.774 6.774 3.74 0 6.773-3.033 6.773-6.774 v-170.71
      c0-3.741-3.033-6.774-6.773-6.774 h-52.707 c-3.74 0-6.773 3.033-6.773 6.774 0 3.742 3.033 6.774 6.773 6.774 z"
  />
  <path
    d="m185.38 93.665 h151 c3.74 0 6.773-3.033 6.773-6.774 v-45.363 c0-3.741-3.033-6.774-6.773-6.774 h-151
      c-3.741 0-6.774 3.033-6.774 6.774 v45.363 c0 3.741 3.033 6.774 6.774 6.774 z m6.774-45.363 h137.46 v31.814 h-137.46
      v-31.814 z"
  />
  <path
    d="m182.92 292.96 c-3.742 0-6.774 3.033-6.774 6.774 v37.051 c0 3.741 3.032 6.773 6.774 6.773 h24.714
      c3.741 0 6.774-3.032 6.774-6.773 0-3.742-3.033-6.775-6.774-6.775 h-17.939 v-30.275 c-1e-3 -3.742-3.034-6.775-6.775-6.775
      z"
  />
  <path
    d="m168.65 146.98 h152.94 c3.74 0 6.773-3.032 6.773-6.774 0-3.741-3.033-6.774-6.773-6.774 h-152.94
      c-3.742 0-6.774 3.033-6.774 6.774 s3.032 6.774 6.774 6.774 z"
  />
  <path
    d="m321.59 188.1 h-31.064 c-3.74 0-6.774 3.033-6.774 6.774 s3.034 6.774 6.774 6.774 h31.064 c3.74 0 6.773-3.033 6.773-6.774
      s-3.033-6.774-6.773-6.774 z"
  />
  <path
    d="m362.33 154.59 c1.323 1.322 3.057 1.983 4.789 1.983 1.734 0 3.469-0.662 4.79-1.984 l19.19-19.191
      c2.646-2.645 2.646-6.934 0-9.58-2.646-2.644-6.937-2.645-9.579 1e-3 l-14.401 14.401-5.706-5.705
      c-2.646-2.645-6.937-2.646-9.579 1e-3 -2.646 2.645-2.646 6.935 0 9.58 l10.496 10.494 z"
  />
  <path
    d="m362.33 209.26 c1.323 1.322 3.057 1.984 4.789 1.984 1.734 0 3.469-0.662 4.79-1.985 l19.19-19.191
      c2.646-2.645 2.646-6.934 0-9.58-2.646-2.644-6.937-2.645-9.579 1e-3 l-14.401 14.401-5.706-5.705
      c-2.646-2.645-6.937-2.646-9.579 0-2.646 2.645-2.646 6.935 0 9.58 l10.496 10.495 z"
  />
</svg>
