<svg
  width="800px"
  height="800px"
  viewBox="0 0 24 24"
  fill="#ffffff"
  xmlns="http://www.w3.org/2000/svg"
>
  <path
    d="m11.727 0 c-0.967 1e-3 -1.914 0.086-2.834 0.248 l0.098-0.014 c-2.423 0.428-2.862 1.324-2.862 2.976 v2.182 h5.726 v0.727
      h-7.874 c-0.02 0-0.043-1e-3 -0.066-1e-3 -1.737 0-3.184 1.239-3.507 2.881 l-4e-3 0.023
      c-0.256 0.872-0.403 1.874-0.403 2.91 s0.147 2.038 0.422 2.985 l-0.019-0.076 c0.407 1.695 1.379 2.902 3.04 2.902 h1.969
      v-2.616 c0.045-1.953 1.622-3.523 3.574-3.557 h5.722 c1.584-0.013 2.863-1.299 2.863-2.885 v-0.026 1e-3 -5.452
      c-0.104-1.561-1.314-2.81-2.848-2.975 l-0.014-1e-3 c-0.866-0.149-1.863-0.234-2.879-0.234 h-0.107 5e-3 z m-3.096 1.755
      h0.017 c0.603 0 1.091 0.489 1.091 1.091 s-0.489 1.091-1.091 1.091 c-0.601 0-1.089-0.487-1.091-1.088 v-8e-3
      c0-0.596 0.48-1.08 1.074-1.086 h1e-3 z"
  />
  <path
    d="m18.287 6.119 v2.542 c-0.022 1.977-1.604 3.578-3.572 3.63 h-5.724 c-1.584 0.033-2.856 1.322-2.862 2.909 v5.453
      c0 1.551 1.349 2.464 2.862 2.91 0.855 0.277 1.839 0.437 2.86 0.437 s2.005-0.16 2.927-0.456 l-0.068 0.019
      c1.44-0.417 2.862-1.258 2.862-2.91 v-2.184 h-5.719 v-0.727 h8.582
      c1.664 0 2.284-1.161 2.863-2.902 0.28-0.87 0.441-1.871 0.441-2.91 s-0.161-2.04-0.46-2.979 l0.019 0.07
      c-0.411-1.656-1.2-2.902-2.863-2.902 z m-3.216 13.807 h0.017 c0.603 0 1.091 0.489 1.091 1.091 s-0.489 1.091-1.091 1.091
      c-0.603 0-1.091-0.489-1.091-1.091 v-0.011 c0-0.595 0.48-1.077 1.074-1.08 z"
  />
</svg>
