<svg
  width="800px"
  height="800px"
  viewBox="0 0 24 24"
  fill="#ffffff"
  role="img"
  xmlns="http://www.w3.org/2000/svg"
>
  <path
    d="M21.693 3.162 H3.33 L0 6.49 v14.348 h20.671 L24 17.51 V3.162 z M12.785 18.4 l-1.562.728-1.35-2.217
      c-.196.057-.499.09-.924.09-1.579 0-2.683-.425-3.305-1.276-.622-.85-.932-2.2-.932-4.033 0-1.84.319-3.206.949-4.098.63-.892 1.726-1.341 3.288-1.341 1.562 0 2.658.441 3.28 1.333.63.883.94 2.25.94 4.098 0 1.219-.13 2.2-.384 2.945-.261.752-.679 1.325-1.268 1.718
      z m4.736-1.587 c-.858 0-1.447-.196-1.766-.59-.32-.392-.483-1.136-.483-2.232 v-3.534 H14.11 V9.051 h1.162 V6.843 h1.644
      V9.05 h2.094 v1.415 h-2.094 v3.346 c0 .622.05 1.03.14 1.227.09.204.326.303.695.303 l1.243-.05.073 1.326
      c-.67.13-1.186.196-1.546.196 z m-8.58-9.08
      c-.95 0-1.604.311-1.963.94-.352.63-.532 1.629-.532 3.011 0 1.374.172 2.364.515 2.953.344.589 1.006.892 1.98.892.973 0 1.628-.295 1.971-.876.335-.58.507-1.57.507-2.953 0-1.39-.172-2.396-.523-3.026-.352-.63-1.006-.94-1.955-.94
      Z"
  />
</svg>
