<svg
  width="920"
  height="512"
  viewBox="0 0 920 512"
  fill="#ffffff"
  xmlns="http://www.w3.org/2000/svg"
  version="1.0"
>
  <g
    transform="translate(0 512) scale(.1 -.1)"
  >
    <path
      d="m4066 5105 c-3-9-6-52-6-94 v-78 l-102-7
        c-489-34-919-228-1259-568-295-295-480-665-544-1088-18-123-21-383-4-509 61-476 307-929 669-1233 58-48 107-88 110-87 6 0 172 231 168 233-2 1-37 30-78 63-299 244-505 599-576 998-21 118-24 376-5 500 92 603 504 1107 1071 1310 143 52 363 95 483 95
        h67 v-84 c0-60 4-87 14-95 11-10 60 19 248 149 128 88 233 167 233 175 0 15-433 323-466 332-9 3-19-3-23-12 z"
    />
    <path
      d="m5118 4458
        c-98-135-94-127-67-146 59-41 187-162 250-236 184-215 310-470 369-747 28-131 39-420 20-537-18-116-20-121-41-207-117-460-456-865-897-1072-187-87-463-153-649-153
        h-42 l-3 92
        c-2 54-7 93-14 95-9 3-422-275-466-314-10-9-15-19-12-24 2-5 53-42 112-82 59-41 141-98 182-127 132-92 180-121 190-115 6 3 10 46 10 96 0 64 3 89 13 90 6 0 41 2 77 5 426 27 769 156 1111 418
        l45 35 225-225-13-71
        c-14-84-3-165 33-241 17-35 133-157 458-484 408-409 441-439 506-470 63-29 79-32 160-32 80 0 97 3 157 31 161 76 249 233 226 407-17 127-21 133-491 604-497 498-492 494-648 500-47 2-102-1-121-6
        l-36-10-112 113-113 114 55 73
        c219 292 335 579 387 963 17 118 6 424-19 545-83 412-256 744-530 1018-74 74-221 202-233 202-2 0-38-46-79-102 z"
    />
    <path
      d="m3852 4235
        c-437-77-808-387-961-803-91-247-99-562-20-802 80-247 238-473 434-621 576-437 1404-296 1799 305 134 203 193 391 203 642 12 301-69 558-249 799-181 241-436 403-738 470-104 23-360 29-468 10
        z m453-1355-405-405-242 243-243 242 245 245 240-240 282 283 283 282 245-245-405-405 z"
    />
  </g>
</svg>
