<svg
  width="800px"
  height="800px"
  viewBox="0 0 42 42"
  fill="#ffffff"
  id="Layer_1"
  xmlns="http://www.w3.org/2000/svg"
  baseProfile="tiny"
  version="1.1"
  {http://www.w3.org/XML/1998/namespace}space="preserve"
>
  <path
    d="m17.737 30.521c0 0.815 0.259 1.481 0.775 2.01 0.528 0.517 1.185 0.785 1.971 0.785 0.797 0 1.462-0.27 1.99-0.785 0.536-0.527 0.807-1.193 0.807-2.01 0-0.808-0.271-1.482-0.807-2-0.527-0.527-1.193-0.787-1.99-0.787-0.786 0-1.442 0.26-1.971 0.787-0.516 0.518-0.775 1.194-0.775 2zm0.945-5.542h3.751c-0.101-0.766-0.05-1.145 0.18-1.761 0.238-0.616 0.547-1.204 0.936-1.75 0.378-0.549 0.814-1.075 1.305-1.583 0.477-0.498 0.935-1.025 1.353-1.571 0.418-0.548 0.774-1.125 1.056-1.731 0.287-0.618 0.428-1.294 0.428-2.06 0-0.985-0.17-1.84-0.498-2.577-0.338-0.746-0.815-1.363-1.433-1.86-0.618-0.508-1.354-0.885-2.188-1.134-0.846-0.249-1.762-0.379-2.756-0.379-1.363 0-2.586 0.299-3.671 0.886-1.095 0.577-2.04 1.323-2.826 2.239l2.378 2.108c0.537-0.577 1.125-1.024 1.74-1.362 0.628-0.329 1.314-0.498 2.08-0.498 0.946 0 1.683 0.259 2.219 0.785 0.527 0.528 0.797 1.215 0.797 2.08 0 0.548-0.141 1.055-0.408 1.532-0.279 0.479-0.618 0.965-1.025 1.453-0.408 0.486-0.846 0.995-1.303 1.502-0.459 0.518-0.866 1.063-1.225 1.661-0.357 0.598-0.627 1.255-0.815 1.971-0.194 0.716-0.203 1.195-0.075 2.049zm-17.182-3.979c0 10.766 8.735 19.5 19.5 19.5 10.766 0 19.5-8.734 19.5-19.5s-8.734-19.5-19.5-19.5c-10.765 0-19.5 8.734-19.5 19.5zm3.592 0c0-8.785 7.123-15.909 15.908-15.909s15.909 7.124 15.909 15.909-7.124 15.909-15.909 15.909-15.908-7.124-15.908-15.909z"
  />
</svg>
