<svg
  width="800px"
  height="800px"
  viewBox="0 0 32 32"
  fill="#ffffff"
  id="icon"
  xmlns="http://www.w3.org/2000/svg"
>
  <defs
  >
    <style
    >
      .cls-1{fill:none;}
    </style>
  </defs>
  <polygon
    points="30 9 27.9 9 24 15.6 24 9 22 9 22 23 24 23 24 18.7 24.9 17.2 27.9 23 30 23 26.1 15.4"
  />
  <path
    d="m16 23 h-4 v-14 h4 a4.0118 4.0118 0 0 1 4 4 v6 a4.0118 4.0118 0 0 1-4 4 z m-2-2 h2 a2.0059 2.0059 0 0 0 2-2 v-6
      a2.0059 2.0059 0 0 0-2-2 h-2 z"
  />
  <path
    d="M8,23 H2 V21 H8 V17 H4 a2.0059,2.0059,0,0,1-2-2 V11 A2.0059,2.0059,0,0,1,4,9 h6 v2 H4 v4 H8 a2.0059,2.0059,0,0,1,2,2 v4
      A2.0059,2.0059,0,0,1,8,23 Z"
  />
  <rect
    width="32"
    height="32"
    id="_Transparent_Rectangle_"
    class="cls-1"
    data-name="&lt;Transparent Rectangle&gt;"
  />
</svg>
