<svg
  width="800px"
  height="800px"
  viewBox="0 0 512 512"
  fill="#000000"
  xmlns="http://www.w3.org/2000/svg"
>
  <path
    d="m253.92 20.86 c-38.28 0-74.42 9.152-106.36 25.376 l11.967 20.73
      c29.084-15.037 62.08-23.538 97.044-23.538 35.998 0 69.908 9.015 99.613 24.892 l10.727-18.58
      c-33.535-18.404-72.04-28.88-112.99-28.88 z m-122.68 34.496 c-65.156 39.914-109.37 110.66-112.34 191.94 h25.97
      c2.682-71.938 41.318-134.77 98.45-171.02 l-12.076-20.918 z m251.68 4.028-10.662 18.467
      c55.79 36.48 93.37 98.538 96.01 169.45 h20.67 c-2.88-78.62-44.34-147.38-106.02-187.92 z m-133.62 2.88
      c-65.001 2.396-121.73 36.803-154.91 87.954 l46.106 26.618 c-3.475 5.153-6.612 10.552-9.393 16.158 l-46.113-26.621
      c-13.8 26.61-21.603 56.844-21.603 88.926 0 32.418 7.97 62.948 22.042 89.76 l45.917-26.51
      c2.802 5.594 5.962 10.98 9.457 16.12 l-45.893 26.497 c33.25 50.713 89.725 84.778 154.39 87.162 v-52.113
      c2.685 0.152 5.39 0.238 8.112 0.238 3.56 0 7.085-0.133 10.578-0.392 v52.07 c63.662-3.702 118.99-38.127 151.38-88.706
      l-44.652-25.78 c3.45-5.17 6.565-10.58 9.318-16.2 l44.64 25.77
      c13.475-26.36 21.074-56.24 21.074-87.915 0-31.34-7.447-60.917-20.656-87.073 l-44.82 25.875
      c-2.73-5.632-5.83-11.05-9.26-16.233 l44.857-25.897 c-32.316-51.016-87.88-85.79-151.88-89.512 v52.544
      c-3.492-0.26-7.018-0.395-10.576-0.395-2.724 0-5.428 0.085-8.113 0.238 v-52.583 z m-37.177 69.422 20.276 35.145
      c7.914-2.2 16.253-3.383 24.867-3.383 8.623 0 16.97 1.184 24.89 3.388 l20.278-35.15 40.14 23.078-20.355 35.283
      c11.824 11.63 20.54 26.41 24.785 42.985 h40.722 v46.156 h-40.74 c-4.253 16.56-12.974 31.322-24.795 42.94
      l20.383 35.33-40.14 23.077-20.315-35.213 c-7.91 2.198-16.242 3.38-24.852 3.38-8.6 0-16.927-1.18-24.83-3.374
      l-20.312 35.207-40.136-23.078 20.37-35.312 c-11.828-11.62-20.554-26.39-24.81-42.957 h-40.717 v-46.155 h40.697
      c4.246-16.583 12.967-31.37 24.8-43.006 l-20.343-35.264 40.137-23.078 z m-193.18 134.3
      c3.365 80.998 47.677 151.42 112.8 191.08 l12.725-22.04 c-57.045-35.686-95.94-97.754-99.492-169.05 h-26.03 z m449.23 0
      c-3.5 70.267-41.33 131.58-97.036 167.5 l11.3 19.572 c61.64-40.295 103.21-108.73 106.46-187.07 h-20.726 z m-113.18 176.92
      c-29.42 15.485-62.903 24.264-98.42 24.264-34.484 0-67.055-8.27-95.846-22.922 l-12.646 21.9
      c31.814 16.06 67.766 25.116 105.84 25.116 40.746 0 79.07-10.366 112.48-28.596 l-11.41-19.762 z"
  />
</svg>
