<svg
  width="800px"
  height="800px"
  viewBox="0 0 512 512"
  fill="#ffffff"
  xmlns="http://www.w3.org/2000/svg"
  enable-background="new 0 0 512 512"
  space="preserve"
  version="1.1"
>
  <g
    id="2069a460dcf28295e231f3111e04100d"
  >
    <path
      d="m511.48 198.15 c-0.49 3.747-4.809 5.925-25.622 5.771-101.01-0.876-113.67 14.367-113.67 14.367 s-8.52 4.931-2.677 16.214
        c6.242 12.035 82.003 100.6 98.417 131.07 10.66 19.771 25.618 54.013-33.825 74.291-58.168 20.261-167.27 0.19-167.99 0-26.44-6.646-25.8-11.16-25.505-13.111 0.521-3.737 4.763-5.752 25.564-5.743 95.817 0.082 142.14-6.687 153.35-13.687 6.868-4.251 8.021-10.774 7.386-16.5-1.393-12.493-31.066-48.904-55.587-77.575-25.174-29.497-78.751-80.96-42.631-112.19 43.325-37.454 138.79-20.986 157.46-16.967 19.797 4.236 25.741 10.969 25.327 14.063
        z m-313.03-162.7
        c42.177-0.055 74.967 2.69 97.415 6.714 45.665 8.243 34.913 31.289 21.935 53.346-31.493 53.7-116.54 114.11-121.49 117.52-6.483 4.464-2.936 7.067 2.735 4.963 68.965-25.65 138.46-69.891 166.52-123.63 23.804-45.583 6.741-67.205-29.547-77.394-64.791-18.228-131.96-1.529-137.62 0.136-8.057 2.363-24.293 6.832-22.924 12.757 0.881 3.792 4.106 5.598 22.965 5.584
        z m41.142 217.61
        c-67.224-19.875-140.51-2.595-151.69 0.363-16.922 4.491-26.834 9.014-26.14 14.317 0.521 3.919 4.85 6.614 25.645 6.088 49.571-1.198 90.642 0.485 116.6 7.748 32.15 8.982 36.11 25.541 20.188 58.068-7.363 15.034-18.246 30.567-34.736 47.09-32.913 33.026-74.056 54.512-97.233 66.243-22.533 11.441-30.776 5.362-28.276-5.925 3.085-13.81 67.015-124.44 67.015-124.44 4.813-8.401 5.661-16.286 0-18.649-4.845-2.064-13.633 4.745-22.76 15.306-37.31 43.339-106.14 175.19-107.42 179.52-1.252 4.142 1.982 4.668 3.216 4.695 29.134-0.227 208.02-53.133 265.74-161.27 30.395-56.938 15.011-75.783-30.146-89.161
        z"
    />
  </g>
</svg>
