<svg
  width="500"
  height="240"
  viewBox="0 0 500 240"
  fill="#ffffff"
  xmlns="http://www.w3.org/2000/svg"
>
  <ellipse
    cx="120"
    cy="50"
    fill="none"
    stroke="#fff"
    stroke-width="15"
    rx="85"
    ry="35"
  />
  <path
    d="m35 50v150a85 35 1 1 0 170 0v-150m-170 50a85 35 1 1 0 170 0m-170 50a85 35 1 1 0 170 0"
    fill="none"
    stroke="#fff"
    stroke-width="15"
  />
  <path
    d="m300 100a25 25 1 1 0-50 0 20 25 1 0 0 25 25 20 25 1 0 1 20 25 25 25 1 0 1-50-5"
    fill="none"
    stroke="#fff"
    stroke-width="15"
  />
  <path
    d="m375 175a50 50 1 1 1 15-5m-15-20 30 40"
    fill="none"
    stroke="#fff"
    stroke-width="15"
  />
  <path
    d="m440 70v80a25 25 1 0 0 25 25h20"
    fill="none"
    stroke="#fff"
    stroke-width="15"
  />
</svg>
