<svg
  width="800px"
  height="800px"
  viewBox="0 0 512 512"
  fill="#ffffff"
  id="_x32_"
  xmlns="http://www.w3.org/2000/svg"
  space="preserve"
  version="1.1"
>
  <style
    type="text/css"
  />
  <path
    d="m512 19.25 c0-10.1-8.195-18.279-18.287-18.279 h-184.85 v73.652
      c4.586-2.558 9.865-4.008 15.481-4.008 17.623 0 31.919 14.287 31.919 31.923 0 17.619-14.288 31.914-31.919 31.914-5.616 0-10.895-1.458-15.481-3.999
      v73.644 h73.652
      c-2.549 4.586-4.008 9.864-4.008 15.476 0 17.635 14.288 31.923 31.923 31.923 17.627 0 31.914-14.288 31.914-31.923 0-5.612-1.458-10.89-3.999-15.476
      h73.652 v-184.85 z"
    class="st0"
  />
  <path
    d="m429.62 275.37 h-92.794 c-3.25 0-6.256 1.718-7.901 4.504 l0.09-0.154-0.106 0.171
      c-0.839 1.426-1.263 3.038-1.263 4.643 0 1.531 0.391 3.078 1.157 4.464 l5.849 10.532
      c1.311 2.37 1.954 4.863 1.963 7.583-8e-3 4.203-1.621 8.08-4.586 11.062-2.981 2.965-6.866 4.578-11.062 4.594-4.203-0.017-8.088-1.629-11.078-4.594
      l0.012 0.017 c-2.974-2.998-4.582-6.883-4.59-11.078 8e-3 -2.713 0.651-5.213 1.958-7.591 l5.853-10.524
      c0.77-1.386 1.157-2.924 1.157-4.464 0-1.605-0.424-3.217-1.276-4.66-1.649-2.793-4.655-4.504-7.9-4.504 h-69.432 v-37.184
      c12.548-0.196 24.4-5.14 33.278-14.035 9.09-9.066 14.125-21.227 14.116-34.072 8e-3 -12.862-5.03-25.023-14.116-34.081-8.871-8.896-20.726-13.832-33.278-14.027
      v-60.556 c-4e-3 -5.066-4.11-9.172-9.176-9.172 h-191.94
      c-9.204-7e-3 -17.94 3.601-24.432 10.109-6.447 6.452-10.108 15.306-10.116 24.445 v369.69
      c-8e-3 9.196 3.608 17.928 10.116 24.428 6.452 6.443 15.293 10.108 24.432 10.117 h369.73
      c9.115-8e-3 17.961-3.674 24.404-10.117 6.509-6.5 10.117-15.224 10.109-24.428 v-191.94
      c1e-3 -5.066-4.105-9.172-9.171-9.172 z m-401.25-168.57
      c0-2.118 0.986-3.559 1.792-4.366 0.835-0.831 2.272-1.825 4.386-1.825 h172.75 v73.603
      c0 1.776 0.941 3.413 2.468 4.317 0.782 0.456 1.657 0.685 2.537 0.685 0.839 0 1.674-0.204 2.432-0.627 l10.528-5.849
      c2.969-1.646 6.203-2.485 9.608-2.485 5.29 0 10.271 2.061 14.014 5.8 3.747 3.755 5.808 8.74 5.808 14.027 0 5.286-2.061 10.264-5.8 14.01-3.751 3.747-8.732 5.808-14.022 5.808-3.409 0-6.639-0.839-9.604-2.485
      l-10.536-5.849 c-0.753-0.423-1.592-0.627-2.427-0.627-0.88 0-1.756 0.228-2.537 0.693-1.527 0.896-2.468 2.533-2.468 4.309
      v73.603 h-45.575
      c0.09-1.133 0.134-2.264 0.134-3.38 0-11.77-4.582-22.824-12.894-31.124-8.304-8.317-19.358-12.894-31.128-12.894-11.766 0-22.819 4.578-31.12 12.886-8.32 8.3-12.902 19.362-12.898 31.124 0 1.124 0.044 2.249 0.134 3.389
      h-45.579 v-172.74 z m178.93 375.87 h-172.75 c-2.114 0-3.551-0.994-4.366-1.8-0.826-0.831-1.812-2.273-1.812-4.382 v-172.76
      h73.599 c1.772 0 3.413-0.937 4.313-2.46 0.9-1.532 0.925-3.422 0.062-4.969 l-5.844-10.532
      c-1.65-2.974-2.485-6.207-2.489-9.604 4e-3 -5.287 2.07-10.271 5.8-14.019 3.758-3.738 8.74-5.808 14.022-5.808
      s10.264 2.07 14.01 5.8 c3.743 3.755 5.808 8.74 5.812 14.018-4e-3 3.413-0.844 6.647-2.477 9.604 l-5.857 10.532
      c-0.864 1.556-0.838 3.446 0.062 4.969 0.9 1.531 2.542 2.468 4.313 2.468 h73.599 v45.59
      c-1.133-0.089-2.26-0.13-3.376-0.13-11.774 0-22.828 4.578-31.12 12.886-8.324 8.308-12.902 19.362-12.894 31.124-8e-3 11.762 4.57 22.824 12.887 31.124 8.3 8.317 19.354 12.894 31.128 12.894 1.124 0 2.252-0.041 3.376-0.13
      v45.584 z m203.13-6.182 c0 2.109-0.993 3.543-1.808 4.366-0.831 0.823-2.265 1.817-4.374 1.817 h-172.75 v-73.603
      c0-1.776-0.936-3.413-2.468-4.309-0.782-0.465-1.658-0.692-2.537-0.692-0.835 0-1.674 0.204-2.428 0.627 l-10.544 5.849
      c-2.961 1.645-6.191 2.484-9.6 2.484-5.282 0-10.264-2.068-14.01-5.8-3.743-3.747-5.808-8.732-5.812-14.019 4e-3 -5.294 2.07-10.271 5.808-14.018 3.744-3.739 8.724-5.808 14.015-5.816 3.385 0 6.618 0.839 9.6 2.484
      l10.54 5.857 c0.758 0.424 1.592 0.628 2.432 0.628 0.879 0 1.755-0.229 2.537-0.684 1.527-0.904 2.468-2.542 2.468-4.318
      v-73.611 h45.578
      c-0.089 1.132-0.134 2.265-0.134 3.388-4e-3 11.754 4.574 22.808 12.886 31.116 8.308 8.325 19.366 12.903 31.132 12.903
      s22.82-4.578 31.129-12.894 c8.316-8.3 12.886-19.354 12.886-31.124 0-1.124-0.041-2.248-0.13-3.388 h45.582 v172.76 z"
    class="st0"
  />
</svg>
