<svg
  width="800px"
  height="800px"
  viewBox="0 0 512 512"
  fill="#ffffff"
  id="Layer_1"
  xmlns="http://www.w3.org/2000/svg"
  space="preserve"
  version="1.1"
>
  <path
    d="m454.11 317.89 h-7.158 v-25.786 h20.371 c5.697 0 10.314-4.619 10.314-10.314 v-118.62 c0-5.696-4.618-10.315-10.314-10.315
      h-125.18 l-0.62-6.507
      c-2.408-25.289-12.966-48.336-29.728-64.897-17.351-17.143-40.692-26.583-65.722-26.583-5.697 0-10.314 4.619-10.314 10.315
      v49.239 c0 5.696 4.618 10.314 10.314 10.314 h10.265 c4.293 0 7.785 3.492 7.785 7.784 v20.53
      c0 4.293-3.492 7.786-7.785 7.786 h-10.265 c-5.697 0-10.314 4.619-10.314 10.315 v5.157 h-61.887 v-5.157
      c0-5.696-4.618-10.315-10.314-10.315 h-10.265 c-4.293 0-7.785-3.493-7.785-7.786 v-20.53 c0-4.292 3.492-7.784 7.785-7.784
      h10.265 c5.697 0 10.314-4.619 10.314-10.314 v-49.239
      c0-5.696-4.618-10.315-10.314-10.315-25.03 0-48.371 9.441-65.722 26.583-16.762 16.561-27.32 39.608-29.728 64.897
      l-3.54 37.165 h-20.127 v-50.108 c0-5.696-4.618-10.314-10.314-10.314-5.697 0-10.315 4.619-10.315 10.314 v53.082
      c-13.971 5.839-23.815 19.643-23.815 35.707 s9.844 29.867 23.815 35.705 v53.082 c0 5.696 4.618 10.315 10.315 10.315
      s10.314-4.619 10.314-10.315 v-50.108 h20.863
      c2.289 4.733 5.242 9.165 8.837 13.121 10.464 11.508 25.386 18.108 40.94 18.108 h48.477
      c5.697 0 10.315-4.619 10.315-10.315 v-17.805 h61.887 v17.805 c0 5.696 4.618 10.315 10.315 10.315 h20.371 v26.575
      c-27.425 4.538-48.411 28.409-48.411 57.101 v3.997 h-201.13 c-5.697 0-10.315 4.619-10.315 10.314 v56.73
      c0 5.696 4.618 10.314 10.315 10.314 h484.78 c5.697 0 10.314-4.619 10.314-10.314 v-71.042
      c1e-3 -31.92-25.969-57.89-57.889-57.89 z m-394.11-86.366 c-0.277 2.917-0.32 5.833-0.135 8.723 h-21.185
      c-9.952 0-18.05-8.098-18.05-18.05 s8.098-18.05 18.05-18.05 h23.927 l-2.607 27.377 z m55.086 39.951
      c-9.899 0-19.018-4.033-25.678-11.357-3.356-3.69-5.818-7.926-7.318-12.478-0.026-0.086-0.051-0.171-0.078-0.256-1.413-4.408-1.933-9.109-1.476-13.904
      l8.111-85.172 c3.725-39.105 29.686-67.453 64.6-72.127 v27.93 c-15.645 0.026-28.365 12.762-28.365 28.413 v20.53
      c0 15.652 12.72 28.389 28.365 28.415 v90.006 h-38.161 z m120.68-28.119 h-61.887 v-46.415 h61.887 v46.415 z
      m20.629 28.119 v-90.006 c15.645-0.026 28.365-12.763 28.365-28.415 v-20.53 c0-15.651-12.72-28.386-28.365-28.413 v-27.93
      c34.913 4.673 60.875 33.022 64.6 72.127 l1.509 15.843 c0.504 5.293 4.95 9.337 10.268 9.337 h124.24 v38.395 h-69.107
      c-5.697 0-10.315 4.619-10.315 10.314 s4.618 10.314 10.315 10.314 h69.107 v38.964 h-200.62 z m169.93 20.629 v25.786
      h-139.24 v-25.786 h139.24 z m65.048 144.4 h-464.15 v-36.101 h464.15 v36.101 z m0-56.73 h-252.7 v-3.997
      c0-20.545 16.716-37.261 37.261-37.261 h178.18 c20.545 0 37.261 16.716 37.261 37.261 v3.997 z"
  />
  <path
    d="m347.63 211.88 h-1.032 c-5.697 0-10.314 4.619-10.314 10.314 s4.618 10.314 10.314 10.314 h1.031
      c5.697 0 10.314-4.619 10.314-10.314 s-4.617-10.314-10.313-10.314 z"
  />
</svg>
