<?xml version="1.0" encoding="iso-8859-1"?>
<!-- Uploaded to: SVG Repo, www.svgrepo.com, Generator: SVG Repo Mixer Tools -->
<svg fill="#000000" height="800px" width="800px" version="1.1" id="Layer_1" xmlns="http://www.w3.org/2000/svg" xmlns:xlink="http://www.w3.org/1999/xlink" 
	 viewBox="0 0 512 512" xml:space="preserve">
<g>
	<g>
		<g>
			<path d="M454.11,317.886h-7.158V292.1h20.371c5.697,0,10.314-4.619,10.314-10.314V163.169c0-5.696-4.618-10.315-10.314-10.315
				H342.146l-0.62-6.507c-2.408-25.289-12.966-48.336-29.728-64.897c-17.351-17.143-40.692-26.583-65.722-26.583
				c-5.697,0-10.314,4.619-10.314,10.315v49.239c0,5.696,4.618,10.314,10.314,10.314h10.265c4.293,0,7.785,3.492,7.785,7.784v20.53
				c0,4.293-3.492,7.786-7.785,7.786h-10.265c-5.697,0-10.314,4.619-10.314,10.315v5.157h-61.887v-5.157
				c0-5.696-4.618-10.315-10.314-10.315h-10.265c-4.293,0-7.785-3.493-7.785-7.786v-20.53c0-4.292,3.492-7.784,7.785-7.784h10.265
				c5.697,0,10.314-4.619,10.314-10.314V65.182c0-5.696-4.618-10.315-10.314-10.315c-25.03,0-48.371,9.441-65.722,26.583
				c-16.762,16.561-27.32,39.608-29.728,64.897l-3.54,37.165H44.444v-50.108c0-5.696-4.618-10.314-10.314-10.314
				c-5.697,0-10.315,4.619-10.315,10.314v53.082C9.844,192.325,0,206.129,0,222.193s9.844,29.867,23.815,35.705v53.082
				c0,5.696,4.618,10.315,10.315,10.315c5.697,0,10.314-4.619,10.314-10.315v-50.108h20.863c2.289,4.733,5.242,9.165,8.837,13.121
				c10.464,11.508,25.386,18.108,40.94,18.108h48.477c5.697,0,10.315-4.619,10.315-10.315v-17.805h61.887v17.805
				c0,5.696,4.618,10.315,10.315,10.315h20.371v26.575c-27.425,4.538-48.411,28.409-48.411,57.101v3.997H16.905
				c-5.697,0-10.315,4.619-10.315,10.314v56.73c0,5.696,4.618,10.314,10.315,10.314h484.78c5.697,0,10.314-4.619,10.314-10.314
				v-56.73v-14.312C512,343.856,486.03,317.886,454.11,317.886z M59.999,231.52c-0.277,2.917-0.32,5.833-0.135,8.723H38.679
				c-9.952,0-18.05-8.098-18.05-18.05s8.098-18.05,18.05-18.05h23.927L59.999,231.52z M115.085,271.471
				c-9.899,0-19.018-4.033-25.678-11.357c-3.356-3.69-5.818-7.926-7.318-12.478c-0.026-0.086-0.051-0.171-0.078-0.256
				c-1.413-4.408-1.933-9.109-1.476-13.904l8.111-85.172c3.725-39.105,29.686-67.453,64.6-72.127v27.93
				c-15.645,0.026-28.365,12.762-28.365,28.413v20.53c0,15.652,12.72,28.389,28.365,28.415v90.006H115.085z M235.763,243.352
				h-61.887v-46.415h61.887V243.352z M256.392,271.471v-90.006c15.645-0.026,28.365-12.763,28.365-28.415v-20.53
				c0-15.651-12.72-28.386-28.365-28.413v-27.93c34.913,4.673,60.875,33.022,64.6,72.127l1.509,15.843
				c0.504,5.293,4.95,9.337,10.268,9.337h124.24v38.395h-69.107c-5.697,0-10.315,4.619-10.315,10.314s4.618,10.314,10.315,10.314
				h69.107v38.964H256.392z M426.323,292.1v25.786H287.078V292.1H426.323z M491.371,436.503H27.22v-36.101h464.151V436.503z
				 M491.371,379.773H238.667v-3.997h0c0-20.545,16.716-37.261,37.261-37.261H454.11c20.545,0,37.261,16.716,37.261,37.261V379.773z
				"/>
			<path d="M347.632,211.878H346.6c-5.697,0-10.314,4.619-10.314,10.314s4.618,10.314,10.314,10.314h1.031
				c5.697,0,10.314-4.619,10.314-10.314S353.328,211.878,347.632,211.878z"/>
		</g>
	</g>
</g>
</svg>