<svg xmlns="http://www.w3.org/2000/svg" width="60" height="60" viewBox="0 0 24 24">
  <g transform="rotate(90 12 12)">
    <path
      fill="#ffffff"
      d="M20 9a2.995 2.995 0 0 0-2.816 2H6.816c-.027-.074-.05-.15-.082-.221l7.09-4.726a3.006 3.006 0 1 0-.558-.83l-7.09 4.725a3 3 0 1 0 0 4.105l7.09 4.726A2.973 2.973 0 0 0 13 20a3.02 3.02 0 1 0 .823-2.052l-7.089-4.726A2.973 2.973 0 0 0 7 12h10a3 3 0 1 0 3-3zm-6-5a2 2 0 1 1 2 2 2.002 2.002 0 0 1-2-2zm2 14a2 2 0 1 1-2 2 2.002 2.002 0 0 1 2-2zm4-4a2 2 0 1 1 2-2 2.002 2.002 0 0 1-2 2z"
    />
  </g>
  <path
    fill="#ffffff"
    d="M11 8h2v3.5H9l3 3.5 3-3.5H13V8h-2z"
  />
</svg>
