<svg
  width="800px"
  height="800px"
  viewBox="-351 153 256 256"
  fill="#ffffff"
  id="Layer_1"
  xmlns="http://www.w3.org/2000/svg"
  baseProfile="tiny"
  space="preserve"
  version="1.2"
>
  <path
    d="m-283 367.8 c0 9-7.3 16.3-16.3 16.3 s-16.3-7.3-16.3-16.3 7.3-16.3 16.3-16.3 16.3 7.3 16.3 16.3 z m2.2 19.5 h-37.4
      c-11.3 0-18.5 9.3-18.5 21.1 v0.3 h74.4 v-0.1 c0.2-11.9-6.9-21.3-18.5-21.3 z m41.7-19.5 c0 9 7.3 16.3 16.3 16.3
      s16.3-7.3 16.3-16.3-7.3-16.3-16.3-16.3-16.3 7.3-16.3 16.3 z m34.8 19.5 h-37.4 c-11.3 0-18.5 9.3-18.5 21.1 v0.3 h74.4
      v-0.1 c0.2-11.9-7-21.3-18.5-21.3 z m58-35.8 c-9 0-16.3 7.3-16.3 16.3
      s7.3 16.3 16.3 16.3 16.3-7.3 16.3-16.3-7.3-16.3-16.3-16.3 z m18.5 35.8 h-37.4 c-11.3 0-18.5 9.3-18.5 21.1 v0.3 h74.4
      v-0.1 c0.2-11.9-7-21.3-18.5-21.3 z m-118-23.7 c0-9-7.3-16.3-16.3-16.3
      s-16.3 7.3-16.3 16.3 7.3 16.3 16.3 16.3 16.3-7.3 16.3-16.3 z m76.5 0 c0-9-7.3-16.3-16.3-16.3
      s-16.3 7.3-16.3 16.3 7.3 16.3 16.3 16.3 16.3-7.3 16.3-16.3 z m-131.8-148.5 c7.2 0 13.1-5.9 13.1-13.1
      s-5.9-13.1-13.1-13.1-13.1 5.9-13.1 13.1 5.9 13.1 13.1 13.1 z m-32.6 59.3 v-39.9 c0-9 7.3-16.3 16.3-16.3 h29.6
      c4.2 0 8.4 1.6 11.6 4.8 0 0.1 13.6 13.7 13.6 13.7 h6.8 v-71.8 h-14.5 v-11.8 h151.2 v11.8 h-12.3 v155 h-124.4 v-71.8 h-9
      c-1.5 0-2.9-0.6-3.9-1.5 l-11.5-11.5 c-0.3-0.3-0.8-0.5-1.2-0.5-0.9 0-1.6 0.7-1.6 1.6 v101 c0 4.5-3.7 8.2-8.2 8.2
      s-8.2-3.7-8.2-8.2 v-57 c0-0.9-0.7-1.6-1.6-1.6 s-1.6 0.7-1.6 1.6 v57.1 c0 4.5-3.7 8.2-8.2 8.2 s-8.2-3.7-8.2-8.2 v-99.5
      c0-0.9-0.7-1.6-1.6-1.6 s-1.6 0.7-1.6 1.6 v36.7 c0 3.2-2.5 5.7-5.7 5.7 s-5.7-2.6-5.8-5.8 z m81.4-37.7 h13.7
      c1.1 0 2.1 0.3 3 0.9 l14.7-20.3 c0.5-0.6 1.3-0.8 1.9-0.3 s0.7 1.3 0.3 1.9 l-15 20.7
      c0.4 0.8 0.7 1.7 0.7 2.8 0 3.2-2.5 5.7-5.7 5.7 h-13.6 v68.3 h117.4 v-151.4 h-117.4 v71.7 z"
  />
</svg>
