<svg
  width="343"
  height="343"
  viewBox="0 0 343 343"
  fill="#ffffff"
  id="algorithm"
  xmlns="http://www.w3.org/2000/svg"
>
  <path
    d="m235.69 304 a27.689 27.689 0 1 0 27.689 27.689 27.722 27.722 0 0 0-27.689-27.689 z m0 44.3
      a16.614 16.614 0 1 1 16.611-16.611 16.635 16.635 0 0 1-16.611 16.611 z"
    fill="#fff"
    id="Path_43"
    data-name="Path 43"
    transform="translate(-64.015 -93.561)"
  />
  <path
    d="m240 32h44.3v11.076h-44.3z"
    fill="#fff"
    id="Path_44"
    data-name="Path 44"
    transform="translate(-73.864 -9.848)"
  />
  <path
    d="m240 64h44.3v11.076h-44.3z"
    fill="#fff"
    id="Path_45"
    data-name="Path 45"
    transform="translate(-73.864 -19.697)"
  />
  <path
    d="m192 96h77.53v11.076h-77.53z"
    fill="#fff"
    id="Path_46"
    data-name="Path 46"
    transform="translate(-59.091 -29.545)"
  />
  <path
    d="m192 128h77.53v11.076h-77.53z"
    fill="#fff"
    id="Path_47"
    data-name="Path 47"
    transform="translate(-59.091 -39.394)"
  />
  <path
    d="m192 160h77.53v11.076h-77.53z"
    fill="#fff"
    id="Path_48"
    data-name="Path 48"
    transform="translate(-59.091 -49.242)"
  />
  <path
    d="M343.348,177.212 v-44.3 h-77.53 v44.3 h33.227 v55.379 H232.591 v-9.532 l-13.6-4.535 L225.4,205.71,204.093,184.4
      l-12.82,6.414-4.529-13.6 h-9.532 V143.985 h55.379 V77.53 h66.455 v30.934 l-12.7-12.7-7.831,7.831,26.067,26.067
      L330.65,103.6 l-7.831-7.831-12.7,12.7 V66.455 h-77.53 V0 H147.23 L110.758,36.472 V66.455 H33.227 v42.01 l-12.7-12.7
      L12.7,103.6 l26.067,26.067 L64.832,103.6,57,95.766 l-12.7,12.7 V77.53 h66.455 v66.455 h55.379 v33.227 H156.6
      l-4.529,13.6-12.82-6.414 L117.945,205.71 l6.409,12.814-13.6,4.535 v9.532 H44.3 V177.212 H77.53 v-44.3 H0 v44.3 H33.227
      V266.6 a22.152,22.152,0,1,0,11.076,0 V243.667 H77.53 v67.474 a16.614,16.614,0,1,0,11.076,0 V243.667 h22.152 V253.2
      l13.6,4.535-6.409,12.814,21.311,21.311,12.82-6.414,4.529,13.6 h30.134 l4.529-13.6,12.82,6.414 L225.4,270.547
      l-6.409-12.814,13.6-4.535 v-9.532 h22.152 v67.474 a16.614,16.614,0,1,0,11.076,0 V243.667 h33.227 V266.6
      a22.152,22.152,0,1,0,11.076,0 V177.212 Z M143.985,18.907 V33.227 H129.664 Z M121.833,44.3 h33.227 V11.076 h66.455
      V132.909 H121.833 Z M11.076,143.985 H66.455 v22.152 H11.076 Z M49.841,287.97 a11.076,11.076,0,1,1-11.076-11.076
      A11.087,11.087,0,0,1,49.841,287.97 Z m33.227,44.3 a5.538,5.538,0,1,1,5.538-5.538 A5.545,5.545,0,0,1,83.068,332.273 Z
      m138.447-87.062-12.7,4.237-.936,2.442 c-.279.708-.554,1.414-.86,2.1
      l-1.074,2.4,5.987,11.973-10.018,10.018-11.973-5.987-2.4,1.073 c-.681.306-1.374.581-2.077.849 l-2.466.93-4.243,12.725
      H164.587 l-4.243-12.725-2.466-.93 c-.7-.268-1.4-.544-2.077-.849 l-2.4-1.073-11.973,5.987 L131.414,268.36
      l5.987-11.973-1.074-2.4 c-.311-.692-.581-1.39-.86-2.1 l-.936-2.442-12.7-4.237 V231.041 l12.7-4.237.936-2.442
      c.279-.708.554-1.414.86-2.1 l1.074-2.4-5.987-11.973,10.018-10.018,11.973,5.987,2.4-1.074
      c.681-.306,1.374-.581,2.077-.849 l2.466-.93,4.243-12.72 h14.169 L183,201.013 l2.466.93 c.7.268,1.4.544,2.077.849
      l2.4,1.074,11.973-5.987 L211.935,207.9 l-5.987,11.973,1.074,2.4 c.311.692.581,1.39.86,2.1 l.936,2.442,12.7,4.237 Z
      m38.765,87.062 a5.538,5.538,0,1,1,5.538-5.538 A5.545,5.545,0,0,1,260.28,332.273 Z m55.379-44.3
      a11.076,11.076,0,1,1-11.076-11.076 A11.087,11.087,0,0,1,315.659,287.97 Z M276.894,143.985 h55.379 v22.152 H276.894 Z
      m0,0"
    fill="#fff"
    id="Path_49"
    data-name="Path 49"
  />
</svg>
