<?xml version="1.0" encoding="UTF-8"?> <svg xmlns="http://www.w3.org/2000/svg" id="algorithm" width="343.348" height="343.348" viewBox="0 0 343.348 343.348"><path id="Path_43" data-name="Path 43" d="M235.689,304a27.689,27.689,0,1,0,27.689,27.689A27.722,27.722,0,0,0,235.689,304Zm0,44.3A16.614,16.614,0,1,1,252.3,331.689,16.635,16.635,0,0,1,235.689,348.3Zm0,0" transform="translate(-64.015 -93.561)" fill="#3764eb"></path><path id="Path_44" data-name="Path 44" d="M240,32h44.3V43.076H240Zm0,0" transform="translate(-73.864 -9.848)" fill="#3764eb"></path><path id="Path_45" data-name="Path 45" d="M240,64h44.3V75.076H240Zm0,0" transform="translate(-73.864 -19.697)" fill="#3764eb"></path><path id="Path_46" data-name="Path 46" d="M192,96h77.53v11.076H192Zm0,0" transform="translate(-59.091 -29.545)" fill="#3764eb"></path><path id="Path_47" data-name="Path 47" d="M192,128h77.53v11.076H192Zm0,0" transform="translate(-59.091 -39.394)" fill="#3764eb"></path><path id="Path_48" data-name="Path 48" d="M192,160h77.53v11.076H192Zm0,0" transform="translate(-59.091 -49.242)" fill="#3764eb"></path><path id="Path_49" data-name="Path 49" d="M343.348,177.212v-44.3h-77.53v44.3h33.227v55.379H232.591v-9.532l-13.6-4.535L225.4,205.71,204.093,184.4l-12.82,6.414-4.529-13.6h-9.532V143.985h55.379V77.53h66.455v30.934l-12.7-12.7-7.831,7.831,26.067,26.067L330.65,103.6l-7.831-7.831-12.7,12.7V66.455h-77.53V0H147.23L110.758,36.472V66.455H33.227v42.01l-12.7-12.7L12.7,103.6l26.067,26.067L64.832,103.6,57,95.766l-12.7,12.7V77.53h66.455v66.455h55.379v33.227H156.6l-4.529,13.6-12.82-6.414L117.945,205.71l6.409,12.814-13.6,4.535v9.532H44.3V177.212H77.53v-44.3H0v44.3H33.227V266.6a22.152,22.152,0,1,0,11.076,0V243.667H77.53v67.474a16.614,16.614,0,1,0,11.076,0V243.667h22.152V253.2l13.6,4.535-6.409,12.814,21.311,21.311,12.82-6.414,4.529,13.6h30.134l4.529-13.6,12.82,6.414L225.4,270.547l-6.409-12.814,13.6-4.535v-9.532h22.152v67.474a16.614,16.614,0,1,0,11.076,0V243.667h33.227V266.6a22.152,22.152,0,1,0,11.076,0V177.212ZM143.985,18.907V33.227H129.664ZM121.833,44.3h33.227V11.076h66.455V132.909H121.833ZM11.076,143.985H66.455v22.152H11.076ZM49.841,287.97a11.076,11.076,0,1,1-11.076-11.076A11.087,11.087,0,0,1,49.841,287.97Zm33.227,44.3a5.538,5.538,0,1,1,5.538-5.538A5.545,5.545,0,0,1,83.068,332.273Zm138.447-87.062-12.7,4.237-.936,2.442c-.279.708-.554,1.414-.86,2.1l-1.074,2.4,5.987,11.973-10.018,10.018-11.973-5.987-2.4,1.073c-.681.306-1.374.581-2.077.849l-2.466.93-4.243,12.725H164.587l-4.243-12.725-2.466-.93c-.7-.268-1.4-.544-2.077-.849l-2.4-1.073-11.973,5.987L131.414,268.36l5.987-11.973-1.074-2.4c-.311-.692-.581-1.39-.86-2.1l-.936-2.442-12.7-4.237V231.041l12.7-4.237.936-2.442c.279-.708.554-1.414.86-2.1l1.074-2.4-5.987-11.973,10.018-10.018,11.973,5.987,2.4-1.074c.681-.306,1.374-.581,2.077-.849l2.466-.93,4.243-12.72h14.169L183,201.013l2.466.93c.7.268,1.4.544,2.077.849l2.4,1.074,11.973-5.987L211.935,207.9l-5.987,11.973,1.074,2.4c.311.692.581,1.39.86,2.1l.936,2.442,12.7,4.237Zm38.765,87.062a5.538,5.538,0,1,1,5.538-5.538A5.545,5.545,0,0,1,260.28,332.273Zm55.379-44.3a11.076,11.076,0,1,1-11.076-11.076A11.087,11.087,0,0,1,315.659,287.97ZM276.894,143.985h55.379v22.152H276.894Zm0,0" fill="#3764eb"></path></svg> 