<svg
  width="512"
  height="512"
  viewBox="0 0 512 512"
  fill="#ffffff"
  xmlns="http://www.w3.org/2000/svg"
  version="1.0"
>
  <g
    fill="#fff"
    transform="translate(0 512) scale(.1 -.1)"
  >
    <path
      d="m2512 5107 c-19-11-387-513-473-646-37-57-37-92 0-133 l29-33 116-3 116-4 v-90 c0-86 1-91 29-119 l29-29 h404 l29 29
        c28 28 29 33 29 119 v90 l116 4 116 3 29 33 c37 41 37 76 0 133-86 133-454 635-473 646-13 7-34 12-48 12 s-35-5-48-12 z
        m174-434 c65-91 121-170 122-175 2-4-24-8-57-8-53 0-65-4-93-29-32-28-33-32-36-120 l-4-91 h-116 l-4 91
        c-3 88-4 92-36 120-28 25-40 29-93 29-33 0-59 4-57 8 7 19 242 342 248 342 4 0 60-75 126-167 z"
    />
    <path
      d="m2341 3834
        c-243-41-482-161-667-336-261-248-404-578-404-938 0-335 122-643 352-886 512-540 1364-540 1876 0 230 243 352 551 352 886
        s-122 643-352 886 c-252 265-582 406-948 403-69-1-163-7-209-15 z m410-199
        c279-49 534-211 704-449 62-87 129-232 162-352 25-91 28-114 28-274 s-3-183-28-274
        c-119-430-464-740-897-807-118-18-325-6-440 26-389 107-678 401-781 795-26 98-36 309-20 421 68 472 443 843 931 922 62 10 265 6 341-8
        z"
    />
    <path
      d="m2480 3217
        c-116-27-202-94-254-197-76-153-50-270 59-270 46 0 95 45 95 87 0 84 59 161 139 183 96 26 200-45 217-146 16-103-69-204-172-204-28 0-44-8-70-34
        l-34-34 v-332 l29-32 c24-27 36-33 71-33 s47 6 71 33 c28 31 29 36 29 136 v103 l64 32
        c81 39 156 119 187 199 35 86 33 207-4 285-15 32-40 76-56 96-82 103-240 158-371 128 z"
    />
    <path
      d="m2495 2067 c-17-14-28-36-32-63-5-36-1-46 25-75 25-28 37-34 72-34 s47 6 72 34
        c26 29 30 39 25 75-7 54-44 86-97 86-26 0-48-8-65-23 z"
    />
    <path
      d="m659 3081 c-133-86-635-454-646-473-16-29-16-67 0-96 11-19 513-387 646-473 57-37 92-37 133 0 l33 29 3 116 4 116 h90
        c86 0 91 1 119 29 l29 29 v404 l-29 29 c-28 28-33 29-119 29 h-90 l-4 116-3 116-33 29 c-41 37-76 37-133 0 z m-29-331
        c0-52 4-64 29-92 28-32 32-33 120-36 l91-4 v-116 l-91-4
        c-88-3-92-4-120-36-25-28-29-40-29-93 0-33-4-59-8-57-27 11-342 243-340 250 3 9 329 246 341 247 4 1 7-26 7-59 z"
    />
    <path
      d="m4328 3081-33-29-3-116-4-116 h-90 c-86 0-91-1-119-29 l-29-29 v-404 l29-29 c28-28 33-29 119-29 h90 l4-116 3-116 33-29
        c41-37 76-37 133 0 127 82 635 454 646 473 16 29 16 67 0 96-11 19-519 391-646 473-57 37-92 37-133 0 z m345-395
        c92-66 167-122 167-126 0-6-323-241-342-248-4-2-8 24-8 57 0 53-4 65-29 93-28 32-32 33-120 36 l-91 4 v116 l91 4
        c88 3 92 4 120 36 25 28 29 40 29 93 0 33 4 59 8 57 5-1 84-57 175-122 z"
    />
    <path
      d="m2329 1041 c-28-28-29-33-29-119 v-90 l-116-4-116-3-29-33
        c-37-41-37-76 0-133 86-133 454-635 473-646 29-16 67-16 96 0 19 11 387 513 473 646 37 57 37 92 0 133 l-29 33-116 3-116 4
        v90 c0 86-1 91-29 119 l-29 29 h-404 l-29-29 z m293-262
        c3-88 4-92 36-120 28-25 40-29 93-29 33 0 59-4 57-8-7-19-242-342-248-342 s-241 323-248 342
        c-2 4 24 8 57 8 53 0 65 4 93 29 32 28 33 32 36 120 l4 91 h116 l4-91 z"
    />
  </g>
</svg>
