<?xml version="1.0" standalone="no"?>
<!DOCTYPE svg PUBLIC "-//W3C//DTD SVG 20010904//EN"
 "http://www.w3.org/TR/2001/REC-SVG-20010904/DTD/svg10.dtd">
<svg version="1.0" xmlns="http://www.w3.org/2000/svg"
 width="320.000000pt" height="320.000000pt" viewBox="0 0 320.000000 320.000000"
 preserveAspectRatio="xMidYMid meet">

<g transform="translate(0.000000,320.000000) scale(0.100000,-0.100000)"
fill="#000000" stroke="none">
<path d="M125 2751 c-22 -10 -52 -31 -67 -47 -61 -65 -58 -9 -58 -1106 0 -955
1 -1005 19 -1043 23 -49 64 -89 113 -109 33 -14 197 -16 1468 -16 1271 0 1435
2 1468 16 49 20 90 60 113 109 18 38 19 88 19 1045 0 957 -1 1007 -19 1045
-23 49 -64 89 -113 109 -33 14 -197 16 -1470 16 -1373 0 -1435 -1 -1473 -19z
m625 -1151 l0 -1070 -290 0 -290 0 -32 29 -33 29 0 1012 0 1012 33 29 32 29
290 0 290 0 0 -1070z m2312 1041 l33 -29 0 -1012 0 -1012 -33 -29 -32 -29
-1090 0 -1090 0 0 1070 0 1070 1090 0 1090 0 32 -29z"/>
<path d="M230 2540 c-24 -24 -24 -29 -4 -58 15 -21 20 -22 198 -22 128 0 186
4 194 12 19 19 15 66 -7 78 -12 6 -92 10 -190 10 -158 0 -173 -2 -191 -20z"/>
<path d="M246 2342 c-20 -4 -38 -45 -29 -68 3 -8 17 -20 30 -25 32 -12 215
-12 246 0 30 12 42 43 28 70 -10 18 -23 20 -135 23 -68 2 -131 1 -140 0z"/>
<path d="M226 1998 c-20 -29 -20 -34 4 -58 18 -18 33 -20 194 -20 188 0 206 5
206 54 0 43 -14 46 -206 46 -178 0 -183 -1 -198 -22z"/>
<path d="M224 1785 c-15 -23 -15 -27 0 -50 l16 -25 183 0 c196 0 207 3 207 50
0 47 -11 50 -207 50 l-183 0 -16 -25z"/>
<path d="M230 1580 c-24 -24 -24 -29 -4 -58 15 -21 20 -22 198 -22 128 0 186
4 194 12 19 19 15 66 -7 78 -12 6 -92 10 -190 10 -158 0 -173 -2 -191 -20z"/>
<path d="M226 1358 c-20 -29 -20 -34 4 -58 18 -18 33 -20 191 -20 98 0 178 4
190 10 22 12 26 59 7 78 -8 8 -66 12 -194 12 -178 0 -183 -1 -198 -22z"/>
<path d="M224 1145 c-15 -23 -15 -27 0 -50 l16 -25 183 0 c129 0 187 4 195 12
19 19 15 66 -7 78 -12 6 -93 10 -195 10 l-176 0 -16 -25z"/>
<path d="M230 830 c-24 -24 -24 -29 -4 -58 14 -21 22 -22 143 -22 111 0 130 2
144 18 22 24 21 38 -3 62 -18 18 -33 20 -140 20 -107 0 -122 -2 -140 -20z"/>
<path d="M977 2542 c-22 -24 -21 -45 1 -65 15 -14 41 -17 145 -17 119 0 127 1
141 22 20 29 20 34 -4 58 -18 18 -33 20 -143 20 -107 0 -126 -2 -140 -18z"/>
<path d="M1407 2542 c-21 -23 -22 -46 -1 -66 12 -13 40 -16 143 -16 137 0 151
5 151 52 0 40 -25 48 -158 48 -102 0 -121 -3 -135 -18z"/>
<path d="M1838 2549 c-21 -12 -24 -59 -6 -77 8 -8 54 -12 139 -12 135 0 159 8
159 50 0 42 -24 50 -153 50 -67 0 -130 -5 -139 -11z"/>
<path d="M2268 2549 c-21 -12 -24 -59 -6 -77 8 -8 54 -12 139 -12 134 0 159 8
159 49 0 41 -30 51 -156 51 -65 0 -127 -5 -136 -11z"/>
<path d="M2686 2538 c-21 -29 -20 -41 2 -61 15 -14 41 -17 145 -17 119 0 127
1 141 22 20 29 20 34 -4 58 -18 18 -33 20 -144 20 -118 0 -126 -1 -140 -22z"/>
<path d="M1213 1839 c-61 -24 -132 -89 -164 -150 -31 -60 -38 -178 -15 -247
22 -65 93 -145 160 -180 44 -23 63 -27 136 -27 73 0 93 4 142 28 58 28 128 95
128 122 0 17 -35 55 -50 55 -5 0 -27 -16 -48 -35 -127 -114 -291 -93 -363 47
-40 77 -19 188 48 249 88 83 225 78 307 -10 17 -17 39 -31 51 -31 23 0 55 28
55 48 0 25 -78 97 -135 124 -75 35 -171 38 -252 7z"/>
<path d="M1720 1841 c-6 -12 -10 -126 -10 -300 0 -241 2 -282 16 -295 20 -20
48 -20 68 0 12 12 16 37 16 105 l0 89 73 0 72 -1 78 -104 c79 -107 104 -124
135 -93 23 23 12 61 -39 130 -28 38 -50 70 -48 72 2 1 25 15 51 29 112 65 140
218 56 313 -59 67 -85 74 -282 74 -163 0 -176 -1 -186 -19z m368 -97 c59 -41
64 -119 11 -170 -30 -29 -32 -29 -160 -32 l-129 -4 0 111 0 111 128 0 c99 0
132 -3 150 -16z"/>
<path d="M2362 1843 c-5 -10 -22 -146 -37 -302 -27 -275 -27 -285 -10 -298 11
-7 26 -13 35 -13 37 0 47 32 64 194 9 88 18 161 20 163 2 2 34 -72 71 -164 37
-92 71 -174 77 -180 13 -16 50 -17 66 -1 6 6 42 88 79 181 77 194 73 194 93
-18 15 -165 38 -203 95 -161 18 13 18 21 -9 297 -15 155 -32 291 -37 301 -11
21 -61 25 -76 6 -6 -7 -47 -107 -93 -222 -51 -127 -86 -203 -90 -195 -4 8 -42
102 -85 209 -43 107 -82 201 -88 208 -14 18 -65 15 -75 -5z"/>
</g>
</svg>
