<svg
  width="800px"
  height="800px"
  viewBox="0 0 52 52"
  fill="#ffffff"
  xmlns="http://www.w3.org/2000/svg"
  enable-background="new 0 0 52 52"
  space="preserve"
>
  <path
    d="m20.1 37.2 v-0.2 c0.2-2.7 2.4-4.9 5.2-4.9 h6.7 c-1.1-1.9-0.9-4.4 0.7-6.2 l0.2-0.2 1.6-1.5 c0.9-1 2.2-1.5 3.4-1.6 v-16.5
      c0-2.2-1.8-4-4-4 h-27.8 c-2.2 0-4 1.8-4 4 v27.9 c0 2.2 1.8 4 4 4 h13.9 v-0.8 z m-12-28.9 c0-0.6 0.4-1 1-1 h6
      c0.6 0 1 0.4 1 1 v2.8 c0 0.6-0.4 1-1 1 h-6 c-0.6 0-1-0.4-1-1 v-2.8 z m0 8.7 c0-0.6 0.4-1 1-1 h21.9 c0.6 0 1 0.4 1 1 v2.8
      c0 0.6-0.4 1-1 1 h-21.8 c-0.6 0-1-0.4-1-1 l-0.1-2.8 z m0 11.6 v-2.8 c0-0.6 0.4-1 1-1 h18 c0.6 0 1 0.4 1 1 v2.8
      c0 0.6-0.4 1-1 1 h-17.9 c-0.7 0-1.1-0.4-1.1-1 z"
  />
  <path
    d="m39.2 27 c-0.6-0.5-1.3-0.5-1.7 0 l-1.7 1.6 c-0.4 0.5-0.4 1.2 0 1.6 l4.4 4.4
      c0.2 0.2 0.2 0.3 0.2 0.6 0 0.5-0.3 0.8-0.8 0.8 h-14.3 c-0.6 0-1.1 0.5-1.2 1.1 v2.4 c0.1 0.6 0.6 1.1 1.2 1.3 h14.3
      c0.2 0 0.3 0.1 0.4 0.2 0.3 0.2 0.4 0.8 0.2 1.1 l-4.4 4.4 c-0.4 0.5-0.4 1.2 0 1.6 l1.6 1.7 c0.5 0.4 1.2 0.4 1.6 0
      l10.6-10.6 c0.4-0.5 0.4-1.2 0-1.6 l-10.4-10.6 z"
  />
</svg>
