<svg
  width="512"
  height="512"
  viewBox="0 0 512 512"
  fill="#FFFFFF"
  xmlns="http://www.w3.org/2000/svg"
  version="1.1"
>
  <path
    d="m0 0
      c0.90523-0.01029 1.8105-0.02058 2.7431-0.031182 0.99065 0.0039637 1.9813 0.0079274 3.002 0.012011 1.0554-0.0075022 2.1108-0.015004 3.1982-0.022734 3.5483-0.021388 7.0962-0.021216 10.644-0.021059 2.5393-0.01061 5.0786-0.022439 7.6179-0.0354 6.9071-0.030831 13.814-0.041934 20.721-0.047642 4.3138-0.0037512 8.6276-0.012559 12.941-0.022499 11.946-0.02694 23.893-0.049449 35.839-0.051878 1.1467-2.3336e-4 1.1467-2.3336e-4 2.3165-4.7144e-4 1.5497-2.9105e-4 3.0994-5.7642e-4 4.6491-8.5615e-4 0.76927-1.4285e-4 1.5385-2.8571e-4 2.3311-4.3289e-4 0.77021-1.3967e-4 1.5404-2.7934e-4 2.334-4.2324e-4 12.478-0.0031348 24.956-0.039718 37.434-0.091213 12.815-0.052461 25.629-0.078716 38.444-0.078154 7.1936-2.5255e-4 14.387-0.011473 21.58-0.051176 6.7668-0.037158 13.533-0.038176 20.3-0.014828 2.4832 0.0028648 4.9665-0.006231 7.4496-0.028179 3.3917-0.028119 6.7806-0.013026 10.172 0.012844 0.98172-0.018344 1.9634-0.036687 2.9749-0.055586 6.3403 0.10932 9.5533 1.5755 14.054 6.0614 0.5739 0.61254 1.1478 1.2251 1.7391 1.8562 1.2514 1.2161 2.5059 2.4291 3.7646 3.6376 1.3094 1.3036 2.6162 2.6098 3.9207 3.9183 0.72133 0.71957 1.4427 1.4391 2.1858 2.1805 2.3567 2.3523 4.7097 4.7082 7.0625 7.0643 1.6451 1.6444 3.2904 3.2887 4.9358 4.9329 3.4334 3.432 6.865 6.8657 10.295 10.301 4.404 4.4097 8.8125 8.8149 13.222 13.219 3.3912 3.3876 6.7799 6.7775 10.168 10.168 1.6256 1.6263 3.252 3.2519 4.8791 4.8767 2.2645 2.262 4.5257 4.5271 6.7862 6.7931 1.0137 1.0107 1.0137 1.0107 2.0479 2.0417 0.91869 0.92292 0.91869 0.92292 1.8559 1.8645 0.53439 0.53477 1.0688 1.0695 1.6194 1.6205 2.7876 3.0668 2.3846 5.7994 2.3906 9.8172 0.0023522 0.67139 0.0047045 1.3428 0.007128 2.0345 0.0067091 2.2719 0.0062312 4.5438 0.005822 6.8157 0.0032974 1.6364 0.0070227 3.2728 0.011141 4.9093 0.010042 4.5142 0.01374 9.0284 0.016389 13.543 0.0038966 4.8617 0.013475 9.7234 0.022213 14.585 0.019781 11.749 0.029832 23.497 0.038728 35.246 0.0043796 5.5274 0.0097472 11.055 0.014989 16.582 0.017013 18.365 0.031509 36.729 0.038749 55.094 0.00191 4.7679 0.0038303 9.5358 0.0057859 14.304 4.8374e-4 1.1851 9.6748e-4 2.3702 0.0014659 3.5912 0.0083064 19.212 0.033653 38.425 0.066115 57.637 0.033028 19.708 0.051078 39.415 0.054278 59.122 0.002169 11.072 0.010974 22.144 0.036461 33.217 0.021648 9.4264 0.029786 18.853 0.020033 28.279-0.0045616 4.8126-0.0025508 9.625 0.016761 14.438 0.017512 4.4018 0.016732 8.8032 0.0011027 13.205-0.0023944 1.5962 0.0020414 3.1925 0.013829 4.7887 0.014989 2.163 0.005539 4.3246-0.010227 6.4875 9.7681e-4 1.2034 0.0019536 2.4068 0.00296 3.6466-0.49794 3.0401-0.49794 3.0401-2.1689 5.4267-2.9135 2.0183-4.5592 2.1136-8.0887 2.1139-1.1829 0.0098143-2.3658 0.019629-3.5845 0.02974-1.3008-0.009605-2.6015-0.01921-3.9417-0.029106-1.3948 0.0038918-2.7896 0.0095312-4.1844 0.016771-3.8371 0.014791-7.6738 0.0045523-11.511-0.0097367-4.1364-0.011086-8.2727 8.2476e-4 -12.409 0.009842-8.1049 0.013951-16.21 0.0063626-24.315-0.0086756-9.4334-0.016839-18.867-0.013653-28.3-0.0099059-16.829 0.005882-33.657-0.0083063-50.486-0.032947-16.339-0.023922-32.678-0.031005-49.018-0.020508-17.781 0.011403-35.563 0.013347-53.344-0.0010981-1.8952-0.0015259-3.7904-0.0030462-5.6855-0.004561-0.93253-7.5782e-4 -1.8651-0.0015156-2.8258-0.0022964-6.5795-0.0047477-13.159-0.002888-19.739 0.0013618-8.0155 0.0049208-16.031-0.0010317-24.046-0.020894-4.0916-0.0098885-8.1831-0.01496-12.275-0.0071075-3.7429 0.0070369-7.4856 2.9931e-4 -11.229-0.017604-2.0011-0.005985-4.0021 0.0028009-6.0032 0.012047-1.7743-0.01266-1.7743-0.01266-3.5845-0.025576-1.0231-0.0010291-2.0462-0.0020582-3.1002-0.0031186-3.0721-0.43573-4.4531-1.2232-6.6595-3.3772-0.49219-2.4775-0.49219-2.4775-0.48102-5.4859-0.0054987-1.14-0.010997-2.2801-0.016663-3.4547 0.014381-1.2516 0.028762-2.5031 0.043579-3.7926-5.841e-4 -1.3172-0.0011682-2.6343-0.00177-3.9914-0.0011491-3.6136 0.022391-7.2266 0.050296-10.84 0.024981-3.7756 0.027353-7.5513 0.032102-11.327 0.012439-7.1505 0.045274-14.301 0.085398-21.451 0.044688-8.1401 0.066697-16.28 0.086782-24.421 0.041826-16.746 0.1122-33.491 0.20129-50.237-0.69299 0.0036872-1.386 0.0073743-2.1 0.011173-16.85 0.088278-33.7 0.1545-50.55 0.19608-8.1486 0.020639-16.297 0.048784-24.445 0.094509-7.1009 0.039828-14.202 0.065665-21.303 0.074596-3.7612 0.0052217-7.522 0.017521-11.283 0.046566-4.1953 0.032136-8.3901 0.033042-12.585 0.031181-1.2516 0.014381-2.5031 0.028762-3.7926 0.043579-1.14-0.0054986-2.2801-0.010997-3.4547-0.016663-1.4892 0.0055308-1.4892 0.0055308-3.0084 0.011173-2.4775-0.49219-2.4775-0.49219-4.297-2.1114-1.5518-3.1294-1.5552-5.4605-1.5547-8.9538-0.0039744-0.65875-0.0079488-1.3175-0.012044-1.9962-0.0096189-2.2057 0.002192-4.4108 0.013951-6.6166-0.0024281-1.5819-0.0061476-3.1638-0.011063-4.7457-0.0094096-4.2954 1.656e-5 -8.5905 0.013332-12.886 0.01131-4.4923 0.0072074-8.9845 0.0052531-13.477-8.8303e-4 -7.5432 0.0102-15.086 0.02861-22.629 0.021175-8.7262 0.024676-17.452 0.018438-26.179-0.0056903-8.3892-5.24e-5 -16.778 0.011174-25.168 0.0046496-3.5729 0.0055183-7.1458 0.0034142-10.719-0.0018807-4.205 0.0062039-8.4098 0.02206-12.615 0.0042501-1.5452 0.0050886-3.0904 0.0023098-4.6356-0.0032121-2.1052 0.005835-4.21 0.018089-6.3152 0.0020529-1.1793 0.0041057-2.3586 0.0062208-3.5737 0.25448-2.8724 0.25448-2.8724 2.2545-5.8724 2.3701-0.36914 2.3701-0.36914 5.4036-0.36076 1.1471-0.004124 2.2941-0.008248 3.476-0.012497 1.2645 0.010786 2.529 0.021572 3.8318 0.032684 1.3402 8.4589e-4 2.6804 3.7188e-4 4.0205-0.0013275 3.6445-8.6288e-4 7.2887 0.01681 10.933 0.037722 3.8063 0.018718 7.6127 0.020513 11.419 0.024076 7.2107 0.0093348 14.421 0.033968 21.632 0.064048 8.2079 0.0335 16.416 0.050019 24.624 0.065086 16.887 0.031381 33.774 0.08417 50.66 0.15097-0.0036872-0.89914-0.0073744-1.7983-0.011173-2.7247-0.088258-21.857-0.15449-43.714-0.19608-65.571-0.020643-10.57-0.048798-21.14-0.094509-31.71-0.039813-9.2105-0.065662-18.421-0.074596-27.631-0.0052241-4.879-0.017539-9.7577-0.046566-14.637-0.027082-4.5891-0.035539-9.1778-0.02951-13.767-0.0011035-1.6871-0.0091002-3.3742-0.024391-5.0613-0.019816-2.2984-0.015149-4.5955-0.0041962-6.8939-0.0036872-1.2877-0.0073744-2.5755-0.011173-3.9023 0.49219-3.1022 0.49219-3.1022 2.2408-4.7718 2.5209-1.4897 3.865-1.7092 6.7662-1.7191
      z m2.4853 11.389 v167 l195 1
      c1.4165 2.8329 1.1293 5.2081 1.1337 8.3772 0.0022656 0.66183 0.0045311 1.3237 0.0068653 2.0056 0.0063534 2.2279 0.0055098 4.4557 0.0046856 6.6837 0.0029906 1.5931 0.0063929 3.1862 0.010178 4.7793 0.0088532 4.3346 0.011179 8.6692 0.011816 13.004 9.479e-4 3.6136 0.0046247 7.2272 0.0081721 10.841 0.0081492 8.5216 0.010584 17.043 0.0098736 25.565-6.0124e-4 8.8035 0.0099587 17.607 0.025744 26.41 0.013054 7.5482 0.018441 15.096 0.017801 22.645-2.5557e-4 4.5127 0.0026282 9.0254 0.013178 13.538 0.0096456 4.2418 0.0097847 8.4836 0.0024834 12.725-0.0010502 1.5601 0.0013427 3.1202 0.0073605 4.6804 0.0076617 2.1232 0.0031144 4.246-0.004631 6.3691 5.4477e-4 1.1902 0.0010895 2.3804 0.0016508 3.6067-0.24889 2.7705-0.24889 2.7705-2.2489 4.7705-2.57 0.20532-5.0336 0.28512-7.6055 0.27847-0.79392 0.0057924-1.5878 0.011585-2.4058 0.017553-2.6748 0.017079-5.3495 0.019883-8.0243 0.022822-1.9116 0.0092927-3.8232 0.01946-5.7348 0.030441-5.2022 0.027388-10.404 0.042475-15.607 0.055428-5.432 0.015592-10.864 0.042395-16.296 0.068031-10.292 0.046857-20.584 0.083568-30.875 0.11667-13.903 0.045305-27.807 0.1062-41.71 0.16625-21.914 0.094229-43.828 0.16755-65.742 0.24433
      v127 h324 v-383 c-25.08-0.33-50.16-0.66-76-1-18.398-18.398-2.6577-51.983-3-78 h-245 z m256 9 v59 h59
      c-3.7637-4.391-7.3802-8.5061-11.439-12.568-0.50646-0.50821-1.0129-1.0164-1.5347-1.54-1.6483-1.6526-3.3002-3.3017-4.9523-4.9505-1.155-1.1557-2.3099-2.3116-3.4646-3.4675-2.4064-2.4079-4.8146-4.8139-7.2241-7.2187-3.0949-3.0892-6.1853-6.1829-9.2744-9.2779-2.377-2.3806-4.7563-4.7588-7.1364-7.1363-1.1415-1.1408-2.2822-2.2824-3.4222-3.4247-1.5845-1.5871-3.1722-3.1709-4.7608-4.7539-0.90346-0.90266-1.8069-1.8053-2.7377-2.7353-1.7061-2.0411-1.7061-2.0411-3.054-1.927
      z m-394 168 v147 h324 v-147 h-324 z"
    transform="translate(160.51 13.611)"
  />
  <path
    d="m0 0
      c1.2232-0.01142 1.2232-0.01142 2.4712-0.023071 1.7291-0.010809 3.4582-0.013651 5.1873-0.0091553 2.617 9.6433e-4 5.2309-0.040475 7.8474-0.084961 10.547-0.0767 18.287 0.63413 26.678 7.6133 5.5551 6.7911 7.0082 12.064 6.8984 20.848-0.51428 4.784-2.2133 8.8418-4.3359 13.125 0.60328 0.4241 1.2066 0.8482 1.8281 1.2852 6.33 4.6454 10.573 8.7667 12.172 16.715 0.72018 7.497 0.0076268 13.538-4 20-3.8261 4.5309-8.3352 8.1117-14 10-1.6306 0.10198-3.265 0.14839-4.8987 0.16113-1.4915 0.014411-1.4915 0.014411-3.0132 0.029114-1.0719 0.0042499-2.1439 0.0084998-3.2483 0.012878-1.1008 0.0057001-2.2016 0.0114-3.3358 0.017273-2.3276 0.0094476-4.6552 0.015983-6.9828 0.019836-3.5731 0.0097365-7.1456 0.040775-10.719 0.072266-2.2585 0.0065269-4.5169 0.011779-6.7754 0.015625-1.074 0.012347-2.1479 0.024694-3.2544 0.037415-0.9912-0.0030011-1.9824-0.0060022-3.0036-0.0090942-0.87475 0.0036456-1.7495 0.0072913-2.6508 0.011047-0.69911-0.12127-1.3982-0.24255-2.1185-0.36749-2.4827-3.7241-2.2887-6.6018-2.2747-10.912-0.0051109-0.80517-0.010222-1.6103-0.015488-2.4399-0.013911-2.664-0.012938-5.3277-0.010635-7.9917-0.0038857-1.8494-0.0082201-3.6988-0.012985-5.5482-0.0074652-3.877-0.0071685-7.754-0.0019074-11.631 0.005799-4.9737-0.011145-9.9469-0.034345-14.921-0.014715-3.8192-0.015612-7.6384-0.01249-11.458-5.1423e-4 -1.8341-0.0057708-3.6681-0.015812-5.5022-0.012305-2.5618-0.005609-5.1229 0.0060062-7.6846-0.0076437-0.76061-0.015287-1.5212-0.023163-2.3049 0.051071-5.0833 0.051071-5.0833 1.6894-7.5755 3.0374-1.8368 6.51-1.4996 9.96-1.5005
      z m-0.25391 11.469 v28
      c4.5169 0.061875 9.0338 0.12375 13.688 0.1875 1.4163 0.027312 2.8326 0.054624 4.2917 0.082764 1.6867 0.011239 1.6867 0.011239 3.4075 0.022705 1.1469 0.01571 2.2937 0.031421 3.4753 0.047607 5.3149-0.57685 8.6883-3.3981 12.138-7.3406 1.5963-4.7889 1.8318-9.1701-0.25-13.75-2.6647-3.426-4.5695-5.8565-8.75-7.25-2.1379-0.08338-4.2784-0.10734-6.418-0.097656-1.1295 0.0024976-2.2589 0.0049951-3.4226 0.0075684-1.4345 0.009104-2.869 0.018208-4.3469 0.027588
      l-13.812 0.0625 z m0 39 v29
      c4.9814 0.092248 9.9598 0.17175 14.941 0.21973 1.6915 0.020014 3.3829 0.047234 5.0742 0.082031 2.4429 0.048973 4.8848 0.071313 7.3281 0.088867 1.1192 0.030968 1.1192 0.030968 2.2611 0.062561 5.4936 0.0023047 9.8599-1.2735 14.395-4.4532 2.8193-3.1865 3.9172-6.3261 4.4375-10.562-0.65366-5.1359-2.1297-8.2278-5.9375-11.75-4.5156-3.048-8.6365-2.8193-13.887-2.7852-0.81701 0.001415-1.634 0.0028299-2.4758 0.0042877-2.6084 0.0055956-5.2167 0.018147-7.825 0.030869-1.7689 0.0050156-3.5378 0.0095784-5.3066 0.013672-4.3353 0.010172-8.6705 0.029748-13.006 0.048828
      z"
    transform="translate(163.25 230.53)"
  />
  <path
    d="m0 0
      c3.625 0.375 3.625 0.375 7 1 6.2428 15.352 12.181 30.816 18.003 46.332 1.006 2.6795 2.0188 5.3564 3.0371 8.0312 1.2514 3.2872 2.4914 6.5784 3.7235 9.8729 0.68833 1.8323 1.3878 3.6605 2.0874 5.4886 3.9615 10.664 3.9615 10.664 3.149 16.276-2 2-2 2-4.9375 2.375-3.0625-0.375-3.0625-0.375-4.5859-1.9844-1.7922-2.9016-2.9645-5.8239-4.1641-9.0156-0.43699-1.1473-0.87398-2.2945-1.3242-3.4766-0.98828-2.8984-0.98828-2.8984-0.98828-4.8984
      h-37 l-3 10
      c-3.4872 7.4872-3.4872 7.4872-5 9-2.9375 0.1875-2.9375 0.1875-6 0-2-2-2-2-2.2702-5.1884 0.28615-4.0365 1.158-7.0219 2.5934-10.797 0.37075-0.98934 0.37075-0.98934 0.74899-1.9987 0.81385-2.1632 1.644-4.3197 2.4746-6.4764 0.57428-1.5151 1.1476-3.0305 1.72-4.5463 1.2003-3.1715 2.408-6.3401 3.6218-9.5064 1.5473-4.0365 3.0825-8.0775 4.6129-12.12 1.4696-3.8813 2.9445-7.7605 4.4203-11.639 0.27724-0.72944 0.55447-1.4589 0.84011-2.2104 8.162-21.44 8.162-21.44 11.238-24.516
      z m2 21
      c-1.8577 4.9273-3.7089 9.8569-5.5542 14.789-0.62877 1.6777-1.2593 3.3548-1.8916 5.0312-0.9081 2.4085-1.8099 4.8194-2.7104 7.2307-0.42654 1.1251-0.42654 1.1251-0.86169 2.273-1.1243 3.0259-1.9821 5.4205-1.9821 8.6762
      h28
      c-1.5114-4.1261-3.0229-8.2521-4.5349-12.378-0.51313-1.4004-1.0262-2.8007-1.5391-4.2012-3.9275-10.724-3.9275-10.724-7.926-21.421
      h-1 z"
    transform="translate(283,231)"
  />
  <path
    d="m0 0
      c3.0625 0.375 3.0625 0.375 4.6017 2.0211 1.6879 2.7197 2.7798 5.3905 3.8969 8.3918 0.45702 1.2177 0.91405 2.4355 1.3849 3.6901 0.48943 1.3237 0.9788 2.6475 1.4681 3.9713 0.50833 1.3598 1.0173 2.7193 1.5269 4.0786 1.3368 3.5699 2.6662 7.1425 3.9936 10.716 2.1299 5.7308 4.2699 11.458 6.4121 17.184 0.74781 2.0027 1.4917 4.0068 2.2352 6.0111 0.45072 1.2083 0.90144 2.4166 1.3658 3.6615 0.39732 1.0694 0.79465 2.1387 1.204 3.2405 0.75531 2.3215 0.75531 2.3215 1.9732 3.4091 0.29623-0.79736 0.59247-1.5947 0.89767-2.4162 2.79-7.5067 5.5852-15.011 8.3863-22.514 1.44-3.8574 2.8779-7.7155 4.3112-11.575 1.3828-3.7235 2.7708-7.4451 4.1627-11.165 0.53059-1.4211 1.0593-2.8429 1.586-4.2654 0.73692-1.9893 1.4806-3.9758 2.226-5.9619 0.42192-1.1325 0.84383-2.265 1.2785-3.4319 1.1516-2.6702 1.1516-2.6702 3.1516-4.6702 2.9375-0.375 2.9375-0.375 6 0 1.7505 1.7265 1.7505 1.7265 3 4-0.15674 2.2346-0.15674 2.2346-0.94531 4.7505-0.30325 0.97439-0.6065 1.9488-0.91895 2.9527-2.2298 6.4725-4.5866 12.887-7.0107 19.289-0.57175 1.5192-1.1432 3.0385-1.7144 4.5579-1.1903 3.1629-2.3841 6.3245-3.5806 9.4851-1.5299 4.0423-3.0508 8.088-4.5692 12.135-1.1752 3.1292-2.3551 6.2566-3.5363 9.3836-0.56277 1.4913-1.1241 2.9832-1.684 4.4757-0.78224 2.0831-1.5707 4.1638-2.3609 6.2439-0.44618 1.1815-0.89235 2.363-1.3521 3.5803-1.2477 2.9574-2.4093 5.5704-4.3276 8.1468-3.6875 0.3125-3.6875 0.3125-7 0-4.1606-7.69-7.0364-15.837-10.043-24.023-0.57438-1.5534-1.1492-3.1065-1.7244-4.6596-1.5045-4.0649-3.0037-8.1317-4.5016-12.199-2.4063-6.531-4.8213-13.059-7.2352-19.587-0.84174-2.2785-1.6816-4.5577-2.521-6.837-0.51266-1.3894-1.0253-2.7788-1.538-4.1681-0.4476-1.215-0.8952-2.4299-1.3564-3.6817-0.98597-2.739-0.98597-2.739-2.0804-4.8441-0.1875-3.5-0.1875-3.5 0-7 2-2 2-2 4.9375-2.375
      z"
    transform="translate(58.938 230.62)"
  />
</svg>
