<svg
  width="487"
  height="487"
  viewBox="0 0 487 487"
  fill="#ffffff"
  xmlns="http://www.w3.org/2000/svg"
  version="1.0"
>
  <g
    fill="#fff"
    transform="translate(0 487) scale(.1 -.1)"
  >
    <path
      d="m2235 4274
        c-322-46-628-163-856-326-198-143-357-306-484-499-95-144-158-279-223-474-28-87-34-111-64-255-21-102-17-493 5-595 41-186 71-282 134-430 136-320 372-600 673-800 196-129 437-227 681-277 99-20 143-23 334-23 187 1 237 4 330 23 139 28 294 79 446 147 423 189 764 549 934 985 105 271 130 404 129 690 0 265-23 402-103 615-90 244-172 386-326 570-91 109-119 136-249 244-71 58-137 115-147 125-10 11-20 18-22 15-2-2-33-92-69-199
        s-94-274-128-370-102-292-150-435 c-49-143-105-305-125-360 s-49-138-65-185
        c-139-406-249-726-305-885-37-104-94-271-127-370-32-99-63-183-66-187-12-13-27 5-72 87-23 44-62 112-85 150-23 39-59 102-80 140-21 39-58 105-82 149-23 43-43 80-43 81
        s-47 85-105 185-105 184-105 187
        c0 2-29 55-65 118-122 216-192 340-225 400-31 56-62 112-247 443-41 73-72 139-69 147 3 9 19 15 38 15 18 0 89 9 158 20 97 15 128 16 137 7 10-11 133-225 133-232 0-2 28-50 61-107 68-114 70-117 194-343 48-88 118-212 154-275 37-63 107-188 156-277
        s90-161 91-160 33 94 72 207 98 284 132 380 76 220 95 275
        c18 55 82 242 143 415 95 271 223 641 267 775 8 22 28 78 45 125 46 124 71 202 68 205-21 17-268 91-408 121-72 16-441 28-515 18
        z m430-330
        c44-8 82-14 84-14 7 0-8-50-74-235-65-185-198-567-295-850-75-220-105-298-116-302-8-2-47 65-259 442-267 476-290 515-306 515-9 0-77-9-151-19-215-31-238-34-238-23 0 15 128 138 205 197 143 109 343 209 507 253 80 22 228 50 298 56 72 6 258-5 345-20
        z m982-579 c207-271 315-585 316-920 3-603-341-1140-895-1399-99-46-267-101-329-107-42-5-43-9 23 181 28 80 94 273 148 430
        s126 364 160 460 95 274 137 395 c41 121 92 270 113 330 128 370 233 672 237 688 9 31 34 15 90-58 z m-2653-537
        c8-13 48-84 88-158 41-74 85-153 98-175 24-43 56-99 243-435 38-69 84-150 102-180 s50-89 72-130
        c52-96 227-409 263-469 55-93 160-289 160-300 0-16-19-14-84 9-152 52-357 169-481 273-283 239-466 559-531 927-20 114-23 367-5 455 32 162 43 205 51 205 5 0 16-10 24-22
        z"
    />
  </g>
</svg>
