<?xml version="1.0" encoding="UTF-8"?>
<svg version="1.1" xmlns="http://www.w3.org/2000/svg" width="375" height="375">
<path d="M0 0 C123.75 0 247.5 0 375 0 C375 123.75 375 247.5 375 375 C251.25 375 127.5 375 0 375 C0 251.25 0 127.5 0 0 Z " fill="#000000" transform="translate(0,0)"/>
<path d="M0 0 C123.75 0 247.5 0 375 0 C375 123.75 375 247.5 375 375 C251.25 375 127.5 375 0 375 C0 251.25 0 127.5 0 0 Z M150.35839844 5.84643555 C148.37181473 6.31324848 146.381807 6.76223856 144.390625 7.20898438 C132.03607542 10.02285711 120.55465162 13.92541498 109.0625 19.25 C108.01416992 19.73452637 106.96583984 20.21905273 105.88574219 20.71826172 C79.3944957 33.15016067 58.20255313 51.83901836 40.4453125 74.8359375 C38.95869512 76.7595159 37.45304793 78.66883839 35.9140625 80.55078125 C30.25681938 87.78974336 25.86531104 95.99881117 21.75 104.1875 C21.43321289 104.81567627 21.11642578 105.44385254 20.79003906 106.09106445 C8.21421089 131.62210702 3.49634404 157.84754481 2 186 C1.95182129 186.75958008 1.90364258 187.51916016 1.85400391 188.30175781 C0.11719506 216.72093376 8.75203713 248.52769898 23 273 C23.49048828 273.86206055 23.98097656 274.72412109 24.48632812 275.61230469 C36.82881362 297.27477773 50.70513094 317.01301977 71 332 C71.68384766 332.51046875 72.36769531 333.0209375 73.07226562 333.546875 C75.41556575 335.29184316 77.76789132 337.02373476 80.125 338.75 C80.86540527 339.29366211 81.60581055 339.83732422 82.36865234 340.39746094 C87.3888569 344.01592729 92.5408828 347.09488287 98 350 C98.77069824 350.42587402 99.54139648 350.85174805 100.33544922 351.29052734 C115.27869865 359.50340272 130.43413813 364.99918808 147 369 C147.84691406 369.20625 148.69382813 369.4125 149.56640625 369.625 C162.50318228 372.56223129 175.86535482 372.32534746 189.0625 372.4375 C189.94688751 372.44998779 190.83127502 372.46247559 191.74246216 372.4753418 C237.37539105 373.00429045 282.10760123 353.65150102 315 322.3359375 C324.35152061 313.15175312 333.05672549 304.14304543 340 293 C340.37092773 292.40944824 340.74185547 291.81889648 341.12402344 291.21044922 C343.45643909 287.47798967 345.69349083 283.69883545 347.89111328 279.88574219 C348.97269083 278.04644122 350.10148597 276.24589723 351.24609375 274.4453125 C358.81913272 262.21471527 362.88500306 248.70880613 367 235 C367.28133789 234.08299316 367.56267578 233.16598633 367.85253906 232.22119141 C371.69924003 219.05623045 372.34950461 206.08421741 372.31567383 192.47045898 C372.31252495 189.83339591 372.3360274 187.19747149 372.36132812 184.56054688 C372.42346046 168.36091009 370.27373817 152.88780417 365.75 137.3125 C365.44408936 136.24854004 365.13817871 135.18458008 364.82299805 134.08837891 C362.23228648 125.33218579 359.08873873 117.15404113 355 109 C354.55462891 108.09975098 354.10925781 107.19950195 353.65039062 106.27197266 C338.8963036 76.6224946 316.29801033 48.93216162 288 31 C287.34 31 286.68 31 286 31 C277.41407136 55.137064 268.87162562 79.28766765 260.5 103.5 C254.92313622 119.62912073 249.27900777 135.73234651 243.5625 151.8125 C237.23682639 169.60674252 231.02347901 187.43743534 224.86502075 205.29019165 C219.14713759 221.86049983 213.34069707 238.39708803 207.46386719 254.91165161 C203.24663446 266.76577411 199.07439964 278.63406044 194.96875 290.52734375 C194.5519397 291.73460114 194.13512939 292.94185852 193.70568848 294.18569946 C191.6730767 300.07714882 189.64535544 305.97024071 187.62304688 311.86523438 C186.89456177 313.98178134 186.16604771 316.09831834 185.4375 318.21484375 C185.102948 319.19460678 184.768396 320.17436981 184.42370605 321.18382263 C184.11759399 322.0718306 183.81148193 322.95983856 183.49609375 323.87475586 C183.09668579 325.03991982 183.09668579 325.03991982 182.68920898 326.22862244 C182 328 182 328 181 329 C180.64397705 328.33282959 180.2879541 327.66565918 179.92114258 326.97827148 C173.09476651 314.20215135 166.19820641 301.48187364 159.03393555 288.89135742 C154.66914802 281.21124306 150.38453901 273.48875417 146.125 265.75 C144.76306831 263.27601553 143.40112219 260.80203901 142.0390625 258.328125 C141.70190216 257.71568436 141.36474182 257.10324371 141.0173645 256.47224426 C137.52878537 250.13859556 134.01546911 243.81875667 130.5 237.5 C125.31436281 228.17704606 120.14947003 218.84295446 115 209.5 C108.59931823 197.88776859 102.17204526 186.29056695 95.7265625 174.703125 C93.19592544 170.15357527 90.67031266 165.60128724 88.1484375 161.046875 C80.53515207 147.30457654 72.84103897 133.61374621 65 120 C69.35289756 119.3248677 73.70749743 118.66140624 78.0625 118 C79.29162109 117.80921875 80.52074219 117.6184375 81.78710938 117.421875 C82.98271484 117.24140625 84.17832031 117.0609375 85.41015625 116.875 C86.50465088 116.70742187 87.59914551 116.53984375 88.72680664 116.3671875 C92.17743681 115.9800951 95.53064309 115.93856147 99 116 C99.29543701 116.54599854 99.59087402 117.09199707 99.89526367 117.65454102 C106.13647719 129.17558411 112.46140412 140.6426317 118.93041992 152.03735352 C123.16381452 159.50101906 127.34091747 166.99470055 131.5 174.5 C136.6478268 183.78737056 141.83941813 193.04800518 147.0793457 202.28369141 C151.00128386 209.20631111 154.86617674 216.15960812 158.71749878 223.12167358 C164.65102573 233.84682457 170.69811664 244.48697577 177 255 C179.32368505 252.67631495 179.83241286 251.03447657 180.88500977 247.93505859 C181.43415794 246.33287979 181.43415794 246.33287979 181.99440002 244.69833374 C182.38941208 243.52686798 182.78442413 242.35540222 183.19140625 241.1484375 C183.83051328 239.27792893 184.46962504 237.40742198 185.10893154 235.53698158 C185.79201456 233.53513057 186.4723111 231.5323517 187.15185547 229.52929688 C189.29532848 223.21248686 191.45692049 216.90187151 193.61819077 210.59113312 C194.1061149 209.16629003 194.5938379 207.74137805 195.08136368 206.31639862 C199.4628688 193.5113736 203.9518086 180.74680676 208.5 168 C215.01919535 149.70867322 221.38163958 131.36567787 227.6875 113 C227.91156399 112.34742973 228.13562798 111.69485947 228.36648178 111.02251434 C228.81624634 109.71257788 229.26600522 108.40263945 229.71575832 107.09269905 C235.03909697 91.58853674 240.38671081 76.09365333 245.8125 60.625 C246.23494492 59.41960068 246.23494492 59.41960068 246.66592407 58.18984985 C249.31012405 50.64510087 251.96249672 43.10333446 254.62890625 35.56640625 C255.01522217 34.46925293 255.40153809 33.37209961 255.79956055 32.24169922 C256.48583916 30.29269912 257.17573612 28.34496677 257.87036133 26.39892578 C258.15806396 25.58020996 258.4457666 24.76149414 258.7421875 23.91796875 C258.9882373 23.22469482 259.23428711 22.5314209 259.48779297 21.81713867 C260.13565176 19.83341114 260.13565176 19.83341114 260 17 C224.45256872 4.36199211 187.80590939 -2.96991055 150.35839844 5.84643555 Z " fill="#FFFFFF" transform="translate(0,0)"/>
<path d="M0 0 C1.12232418 0.94977216 2.2429226 1.90158384 3.36279297 2.85424805 C3.98701141 3.38406784 4.61122986 3.91388763 5.25436401 4.45976257 C19.78944059 17.28458351 29.63882569 40.50231962 34 59 C34.21591797 59.88913086 34.43183594 60.77826172 34.65429688 61.69433594 C45.17026465 105.28753754 39.52201172 146.38329995 16.06958008 184.82739258 C-2.24076238 213.91907437 -29.25070407 233.84325105 -61 246 C-61.75635742 246.29261719 -62.51271484 246.58523438 -63.29199219 246.88671875 C-71.13719811 249.86913361 -78.58185051 251.69692694 -87 252 C-84.96263282 244.11838163 -82.53515146 236.43626624 -79.859375 228.75 C-79.46057632 227.59535751 -79.06177765 226.44071503 -78.65089417 225.25108337 C-77.57683261 222.14387152 -76.49959332 219.03778588 -75.42074966 215.9322319 C-74.28603623 212.66345726 -73.15542703 209.39326304 -72.02416992 206.12329102 C-66.21445313 189.33721726 -60.37559044 172.56122316 -54.51464844 155.79296875 C-50.18733421 143.41238742 -45.88155325 131.0244589 -41.58602905 118.6328125 C-27.86051036 79.03951025 -14.02412574 39.488645 0 0 Z " fill="#FFFFFF" transform="translate(301,86)"/>
<path d="M0 0 C-1.32947287 6.50815254 -3.11072154 12.64954504 -5.31640625 18.91015625 C-5.64465393 19.85446503 -5.97290161 20.7987738 -6.31109619 21.771698 C-7.38985593 24.87041661 -8.47601613 27.96648205 -9.5625 31.0625 C-10.32477511 33.24606616 -11.08673272 35.42974318 -11.84838867 37.61352539 C-18.84404364 57.64667423 -25.93045434 77.64793493 -33.03369141 97.6431427 C-36.38933658 107.0909474 -39.72781115 116.5447818 -43.0625 126 C-43.57462056 127.45174333 -44.08674601 128.90348494 -44.59887695 130.35522461 C-45.7328788 133.57004605 -46.86655931 136.78498067 -48 140 C-50.74454525 137.54912878 -52.32102373 134.89605299 -54.08203125 131.6796875 C-54.67701416 130.59993652 -55.27199707 129.52018555 -55.88500977 128.40771484 C-56.52751284 127.23014668 -57.17000941 126.05257497 -57.8125 124.875 C-58.48369375 123.65412966 -59.15549647 122.43359392 -59.82788086 121.21337891 C-60.86445247 119.3320548 -61.90063635 117.45052827 -62.93495178 115.56796265 C-66.27732144 109.48483516 -69.66537245 103.42770352 -73.0625 97.375 C-74.2135923 95.32164297 -75.36463385 93.26825748 -76.515625 91.21484375 C-77.08603516 90.1976123 -77.65644531 89.18038086 -78.24414062 88.13232422 C-80.66631819 83.81133726 -83.08562925 79.48874767 -85.50512695 75.16625977 C-91.32437984 64.77052568 -97.15259123 54.37992404 -103 44 C-110.5183941 43.69851051 -117.70617624 44.85982771 -125.125 46 C-127.60616911 46.37896081 -130.08792575 46.7540991 -132.5703125 47.125 C-134.20637451 47.37636719 -134.20637451 47.37636719 -135.87548828 47.6328125 C-138.94952493 47.99406825 -141.90809743 48.06508045 -145 48 C-137.71417142 37.72511355 -129.61550801 31.10953464 -119.07226562 24.35449219 C-117.01227199 23.00802132 -114.99709437 21.61127135 -112.984375 20.1953125 C-80.43500148 -2.36856203 -38.29463825 -6.92297206 0 0 Z " fill="#FFFFFF" transform="translate(219,37)"/>
<path d="M0 0 C2.86099653 2.52681834 4.44907185 5.34964903 6.265625 8.6875 C6.57559418 9.25329773 6.88556335 9.81909546 7.20492554 10.40203857 C8.22461722 12.26551826 9.23717391 14.13278135 10.25 16 C10.96602821 17.31055258 11.68267137 18.62076934 12.39990234 19.93066406 C13.87802447 22.63057371 15.35415535 25.33155735 16.82910156 28.03320312 C20.06566352 33.95475052 23.34434737 39.85278045 26.625 45.75 C27.24149414 46.85923828 27.85798828 47.96847656 28.49316406 49.11132812 C33.22115453 57.61326368 37.9729758 66.10173568 42.73095703 74.58691406 C47.6422398 83.34966921 52.52041112 92.13059654 57.39453125 100.9140625 C61.57950485 108.4522137 65.78300435 115.97972083 70 123.5 C76.7132313 135.47352146 83.38222625 147.47133899 90.04296875 159.47412109 C93.1668082 165.10284776 96.2938258 170.72980935 99.42044067 176.35699463 C101.02909844 179.25226004 102.63758958 182.14761801 104.24609375 185.04296875 C104.77904053 186.00227295 105.3119873 186.96157715 105.86108398 187.94995117 C106.23692627 188.62646729 106.61276855 189.3029834 107 190 C96.75535649 193.14391727 78.1877346 180.70995005 69 176 C60.66692032 171.44634888 53.63110379 165.54501613 46.52392578 159.31738281 C44.97556855 157.97887983 43.39982782 156.67954214 41.81640625 155.3828125 C30.38017133 145.70721846 21.36045829 131.9059631 14 119 C13.59749023 118.30664551 13.19498047 117.61329102 12.78027344 116.89892578 C-7.97806416 80.81970748 -9.79750286 39.80830044 0 0 Z " fill="#FFFFFF" transform="translate(40,144)"/>
</svg>
