<svg
  width="800px"
  height="800px"
  viewBox="0 0 256 256"
  fill="#ffffff"
  id="Layer_1"
  xmlns="http://www.w3.org/2000/svg"
  space="preserve"
  version="1.1"
>
  <circle
    cx="127"
    cy="21.5"
    r="21.3"
  />
  <path
    d="m241.5 57.4 c0-5.1-4.2-9.3-9.3-9.3 h-50.7 l32-32 c3.6-3.6 3.6-9.5 0-13.2-3.6-3.6-9.5-3.6-13.2 0 l-40.5 40.5
      c-3.1 3.1-7.2 4.7-11.3 4.7 h-43 c-4.1 0-8.2-1.6-11.3-4.7 l-40.5-40.5 c-3.6-3.6-9.5-3.6-13.2 0-3.6 3.6-3.6 9.5 0 13.2
      l32 32 h-50.7 c-5.1 0-9.3 4.2-9.3 9.3 s4.2 9.3 9.3 9.3 h53.8 l-11.5 11.5 h-38.7 c-5.1 0-9.3 4.2-9.3 9.3 s4.2 9.3 9.3 9.3
      h42.6 c2.5 0 4.7-1 6.4-2.6 l18.8-18.8 c0.5-0.5 1.1-0.8 1.9-0.8 1.5 0 2.7 1.2 2.7 2.7 v165.2 c0 7.4 6 13.3 13.3 13.3
      s13.3-6 13.3-13.3 v-93.2 c0-1.5 1.2-2.7 2.7-2.7 s2.7 1.2 2.7 2.7 v93.2 c0 7.4 6 13.3 13.3 13.3 s13.3-6 13.3-13.3 v-165.1
      c0-1.5 1.2-2.7 2.7-2.7 0.7 0 1.4 0.3 1.9 0.8 l18.8 18.8 c1.7 1.6 3.9 2.6 6.4 2.6 h42.6 c5.1 0 9.3-4.2 9.3-9.3
      s-4.2-9.3-9.3-9.3 h-38.7 l-11.5-11.5 h53.8 c4.9 0 9.1-4.2 9.1-9.4 z"
  />
</svg>
