<?xml version="1.0" encoding="utf-8"?>
<!-- Svg Vector Icons : http://www.onlinewebfonts.com/icon -->
<!DOCTYPE svg PUBLIC "-//W3C//DTD SVG 1.1//EN" "http://www.w3.org/Graphics/SVG/1.1/DTD/svg11.dtd">
<svg version="1.1" xmlns="http://www.w3.org/2000/svg" xmlns:xlink="http://www.w3.org/1999/xlink" x="0px" y="0px" viewBox="0 0 1000 1000" enable-background="new 0 0 1000 1000" xml:space="preserve">
<metadata> Svg Vector Icons : http://www.onlinewebfonts.com/icon </metadata>
<g><path d="M700.6,297.7v108.7c0,90.3-466.3,90.3-466.3,0v-117c36.4,19.2,72.8,38.4,109.2,57.6c12.2,6.4,31.4,7.4,44.9,5C492.4,333.8,596.5,315.8,700.6,297.7L700.6,297.7L700.6,297.7z M777.2,252.8l-0.2,89.9c-3.1,0.6-6.3,2.7-6.5,5.8l-0.9,11.9c-0.3,6.7,6.1,9.7,5.8,15l-0.7,10.8c-0.2,4.1-4.8,7.8-5,13l-15.5,100.9c6,12,66.4,12.3,73.1,0.1l-15.3-100.9c-0.3-5.5-5-8.7-5.3-13.1l-0.7-11c-0.3-5.7,6.5-7,6.1-14.6l-0.9-12.1c-0.2-3.2-3.5-5.3-6.8-5.9c0.1-90.8,0,13.2,0.2-84.7l181.4-31.5c4.9-0.8,6.1-4.3,0.5-6.3c-87.3-25.5-166.9-48.7-239.7-69.9c-65.4-19-125.7-36.6-181.6-52.9c-9.9-2.9-16.5-3-26.6-2.2c-73,6.2-150.5,12.7-233.1,19.7c-89.8,7.6-185.9,15.7-289.3,24.5c-8.6,1.1-6.7,7.8-1,10.2c41.1,21.6,86.1,45.3,135.6,71.4c59.9,31.6,127,67,203,107c6.6,3.5,20.6,4.7,31.3,2.9c124-21.6,248.1-43.1,372.1-64.7c-0.4-4.3-1.9-6.7-7.2-8.1L460.2,211c-25.2-4.1-20.6-22.2-5.9-20l313.4,51.2C773.7,243.1,777,247.1,777.2,252.8L777.2,252.8L777.2,252.8z M526.7,889.3c-6.8-25.5-7.3-51.6,6.2-76.2L48,657.6c-18.8,24.3-23.3,56.5-1.6,90.6l490,157.1l309.4-136.5c8.4-3.7,7-9.4-3.1-12.6l-8.2-2.6L526.7,889.3L526.7,889.3L526.7,889.3z M543,595.3l187.1-82.5l14.2-92.6L722,413c-10.3,77.3-201.2,82.9-254.6,82.9c-54.9,0-255-6-255-89.6v-34.6L58.1,439.8L543,595.3L543,595.3L543,595.3z M526.8,675.9c-6.8-25.5-7.3-51.6,6.2-76.2L48.1,444.1c-18.8,24.3-23.3,56.5-1.6,90.6l490,157.1l309.4-136.4c8.4-3.7,7-9.4-3.1-12.6l-8.2-2.6L526.8,675.9L526.8,675.9L526.8,675.9z M524.6,782.2c-6.8-25.5-7.3-51.6,6.2-76.3L45.9,550.4c-18.8,24.3-23.3,56.5-1.6,90.6l490,157.1l309.4-136.4c8.4-3.7,7-9.4-3.1-12.6l-8.2-2.6L524.6,782.2L524.6,782.2L524.6,782.2z"/></g>
</svg>