<svg
  width="750"
  height="750"
  viewBox="0 0 750 750"
  fill="#ffffff"
  xmlns="http://www.w3.org/2000/svg"
>
  <circle
    cx="375"
    cy="375"
    fill="#fff"
    r="375"
  />
  <path
    d="m300.85 426.98 h-29.32 c-9.133 0-16.564-7.427-16.564-16.564 v-16.342
      c0-0.965-0.682-1.8-1.693-2.079-10.167-2.769-19.97-6.843-29.137-12.104-0.832-0.477-1.812-0.381-2.434 0.24 l-11.673 11.673
      c-3.128 3.128-7.286 4.849-11.711 4.849-4.421 0-8.583-1.721-11.711-4.849 l-20.733-20.732
      c-3.128-3.129-4.852-7.29-4.852-11.712 0-4.425 1.724-8.586 4.852-11.711 l11.669-11.673
      c0.626-0.621 0.721-1.602 0.241-2.433-5.257-9.167-9.331-18.971-12.101-29.137-0.278-1.011-1.114-1.694-2.079-1.694 h-16.342
      c-9.132 0-16.563-7.431-16.563-16.563 v-29.32 c0-9.132 7.431-16.563 16.563-16.563 h16.342
      c0.965 0 1.801-0.679 2.079-1.694 2.77-10.163 6.844-19.966 12.104-29.137 0.477-0.831 0.382-1.812-0.24-2.434
      l-11.673-11.673 c-3.128-3.124-4.852-7.286-4.852-11.711 0-4.421 1.724-8.583 4.852-11.711 l20.733-20.733
      c3.128-3.128 7.286-4.848 11.711-4.848 s8.587 1.72 11.715 4.852 l11.669 11.669
      c0.622 0.622 1.599 0.717 2.434 0.241 9.167-5.261 18.967-9.331 29.133-12.104 1.018-0.279 1.697-1.114 1.697-2.079 v-16.343
      c0-9.132 7.431-16.563 16.564-16.563 h29.32 c9.132 0 16.563 7.431 16.563 16.563 v16.343
      c0 0.965 0.679 1.8 1.694 2.075 10.162 2.773 19.966 6.847 29.133 12.108 0.835 0.476 1.812 0.381 2.437-0.241
      l11.669-11.673 c6.474-6.469 16.953-6.473 23.426 4e-3 l2.194 2.194
      c6.847 6.843-3.502 17.212-10.357 10.356-1.351-1.167-3.082-4.016-4.902-2.193 l-11.673 11.669
      c-5.28 5.28-13.538 6.344-20.084 2.587-8.088-4.639-16.735-8.233-25.696-10.678-7.355-2.002-12.493-8.671-12.493-16.212
      v-16.339 c0-1.056-0.859-1.915-1.915-1.915 h-29.32 c-1.053 0-1.911 0.859-1.911 1.915 v16.343
      c0 7.541-5.139 14.206-12.493 16.212-8.965 2.445-17.613 6.035-25.7 10.674-6.542 3.757-14.801 2.693-20.081-2.587
      l-11.669-11.669 c-0.465-0.465-0.991-0.561-1.354-0.561-0.362 0-0.889 0.096-1.35 0.561 l-20.737 20.733
      c-0.462 0.461-0.561 0.992-0.561 1.35 0 0.363 0.099 0.893 0.561 1.355 l11.673 11.673
      c5.28 5.279 6.344 13.534 2.586 20.08-4.638 8.091-8.232 16.735-10.677 25.7-2.003 7.354-8.671 12.489-16.209 12.489
      h-16.342 c-1.056 0-1.915 0.862-1.915 1.915 v29.32 c0 1.056 0.859 1.915 1.915 1.915 h16.342
      c7.538 0 14.206 5.134 16.213 12.489 2.441 8.968 6.035 17.613 10.673 25.7 3.758 6.546 2.694 14.801-2.586 20.08
      l-11.669 11.673 c-0.466 0.462-0.561 0.992-0.561 1.354 0 0.359 0.099 0.889 0.561 1.355 l20.733 20.729
      c0.747 0.747 1.96 0.751 2.708 0 l11.669-11.669
      c5.28-5.28 13.539-6.344 20.085-2.587 8.087 4.639 16.731 8.232 25.695 10.678 7.355 2.002 12.494 8.67 12.494 16.212
      v16.338 c0 1.057 0.858 1.915 1.911 1.915 h29.32 c1.056 0 1.915-0.858 1.915-1.915 v-16.338
      c0-7.542 5.138-14.21 12.493-16.212 9.357-2.549 13.195 11.585 3.853 14.129-1.015 0.279-1.698 1.114-1.698 2.083 v16.338
      c0 9.133-7.431 16.564-16.563 16.564 z"
    fill="#4A76A8"
  />
  <path
    d="m217.16 271.49
      c0-48.432 48.698-81.631 93.574-64.534 9.045 3.453 3.845 17.144-5.218 13.691-35.416-13.5-73.712 12.791-73.712 50.843 0 30.952 26.07 56.137 57.633 54.287 9.651-0.584 10.555 14.053 0.862 14.625-39.799 2.342-73.139-29.396-73.139-68.912
      z"
    fill="#4A76A8"
  />
  <path
    d="m536.01 441.24-74.211-14.431 v-18.337 c20.84-14.218 32.124-34.352 34.58-56.965 10.819-0.859 19.356-9.934 19.356-20.966
      v-15.053 c17.635-7.667 15.255-33.405-3.403-37.746 v-5.81 c0-52.235-42.347-94.582-94.577-94.582 h-7.931
      c-52.235 0-94.578 42.347-94.578 94.578 v5.814 c-18.65 4.337-21.046 30.079-3.403 37.746 v15.053
      c0 11.032 8.538 20.107 19.356 20.966 2.144 19.729 11.391 37.788 25.978 50.346 2.793 2.407 5.661 4.612 8.602 6.619
      v18.337 l-74.211 14.431 c-39.154 7.614-69.671 29.686-69.671 70.411 v74.498 c0 16.483 13.362 29.846 29.846 29.846 h324.09
      c16.483 0 29.846-13.363 29.846-29.846 v-74.498 c0-40.592-30.331-62.763-69.672-70.411 z m-60.962 3.067
      c-5.318 7.732-13.447 19.535-22.229 32.245-3.578 5.185-9.998 5.845-12.508 4.342 l-11.57-6.939
      c11.284-6.665 26.897-18.109 31.635-32.502 l14.672 2.854 z m-61.261 21.107 c-11.123-5.6-33.298-19.436-33.359-32.513
      v-0.057-16.285 c21.316 9.193 45.379 9.205 66.723 0 v16.285 c0 13.099-22.229 26.966-33.364 32.57 z m-83.893-193.49
      c0-30.044 16.663-56.27 41.234-69.919 v9.182 c0 9.681 14.648 9.697 14.648 0 v-15.496
      c6.573-2.079 13.508-3.326 20.687-3.624 v36.217 c0 9.682 14.649 9.697 14.649 0 v-36.217
      c7.179 0.298 14.118 1.545 20.69 3.624 v15.496 c0 9.681 14.649 9.697 14.649 0 v-9.182
      c24.57 13.649 41.233 39.875 41.233 69.919 v5.295 h-167.79 v-5.295 z m-10.124 19.943 h188.04
      c7.019 0 7.012 10.609 0 10.609 h-188.04 c-7.023 0-7.015-10.609 0-10.609 z m25.612 52.22
      c-0.084-3.983-3.338-7.168-7.324-7.168-1.221-0.301-11.57 1.904-11.57-6.382 v-13.409 h174.6 v13.409
      c0 8.27-10.624 6.149-11.57 6.382-3.983 0-7.237 3.185-7.325 7.168-0.392 18.31-8.174 35.316-21.347 46.661-27.973 24.086-66.139 24.09-94.112 0-13.176-11.345-20.958-28.351-21.351-46.661
      z m21.816 97.362
      c4.742 14.393 20.352 25.837 31.639 32.502-11.596 6.21-10.776 8.068-16.044 7.446-3.277-0.393-6.218-2.216-8.095-4.932-8.758-12.681-16.861-24.449-22.171-32.162
      l14.671-2.854 z m-84.507 159.89 h-30.952 c-8.392 0-15.198-6.805-15.198-15.197 v-74.498
      c0-21.949 9.972-37.124 31.845-47.607 0.885 3.899 14.305 40.325 14.305 91.225 v46.077 z m123.77 0 h-109.12 v-46.077
      c0-55.149-13.924-90.66-15.293-96.672 8.552-2.842 2.201-0.653 54.802-11.242 15.117 21.969 43.331 62.958 59.963 86.597 6.317 8.976 9.651 19.52 9.651 30.495
      v36.899 z m7.324-67.531
      c-1.457-2.857-3.124-5.627-4.993-8.289-5.623-7.988-12.921-18.471-20.535-29.461 2.262-0.5 4.471-1.37 6.543-2.61
      l18.985-11.387 18.99 11.387
      c2.067 1.24 4.28 2.11 6.542 2.61-7.614 10.982-14.912 21.465-20.534 29.461-1.873 2.662-3.54 5.432-4.998 8.289 z
      m177.25 52.334 c0 8.392-6.801 15.197-15.197 15.197 h-30.953 v-27.633 c0-9.682-14.648-9.697-14.648 0 v27.633 h-109.12
      v-36.899
      c0-10.975 3.337-21.519 9.651-30.491 9.46-13.447 48.412-69.656 59.967-86.601 52.574 10.586 46.234 8.396 54.798 11.242-1.064 4.505-13.39 38.002-15.091 85.518-0.351 9.704 14.29 10.181 14.637 0.526 1.648-45.982 12.928-75.569 14.114-80.597 21.874 10.483 31.845 25.658 31.845 47.604
      v74.501 z"
    fill="#4A76A8"
  />
</svg>
